<?xml version="1.0" standalone="no"?>
<!DOCTYPE svg PUBLIC "-//W3C//DTD SVG 1.1//EN" "http://www.w3.org/Graphics/SVG/1.1/DTD/svg11.dtd" >
<svg xmlns="http://www.w3.org/2000/svg">
<metadata></metadata>
<defs>
<font id="kepler_stdlight_semicondensed" horiz-adv-x="876" >
<font-face units-per-em="2048" ascent="1434" descent="-614" />
<missing-glyph horiz-adv-x="407" />
<glyph unicode="&#xfb01;" horiz-adv-x="1021" d="M45 817l4 55h141v39q0 109 23 182.5t68 133.5q47 68 121.5 113.5t179.5 45.5q63 0 111 -16t80 -43t47.5 -60.5t15.5 -70.5q0 -41 -24 -68.5t-64 -27.5q-27 0 -40.5 13t-13.5 30q0 10 4 28.5t4 34.5q0 121 -155 121q-70 0 -124 -45t-77 -149q-10 -47 -18.5 -105.5 t-8.5 -155.5h226q139 0 214 9.5t103 19.5q-2 -35 -5 -119t-3 -207v-204q0 -117 1 -176.5t5 -94.5q0 -16 5 -25t18.5 -15.5t40 -8.5t71.5 -2l-6 -55q-51 0 -101 3t-110 3q-66 0 -113 -3t-92 -3l2 55q47 0 75 3t43.5 9.5t20.5 15.5t5 23q4 31 6 103.5t2 195.5v156 q0 186 -6 227q-2 14 -20.5 19.5t-61.5 5.5h-322v-363q0 -55 1 -109t1 -99.5t1.5 -79t1.5 -47.5q4 -35 33.5 -44.5t115.5 -15.5l-4 -55q-53 2 -105.5 4t-111.5 2q-55 0 -105.5 -3t-97.5 -3v55q43 2 68.5 4t39 6t18.5 12.5t7 22.5q4 29 7 131.5t3 243.5v338z" />
<glyph unicode="&#xfb02;" horiz-adv-x="1024" d="M43 817l6 55h141v60q0 121 29 204t94 148q45 45 108.5 73.5t149.5 28.5q59 0 102.5 -13t71.5 -34q33 10 62 19.5t57 17.5q-2 -59 -6 -178t-4 -295v-432q0 -172 1 -255t5 -118q0 -16 6 -24t20.5 -13.5t42 -7.5t70.5 -4l-6 -55q-59 0 -117.5 3t-111.5 3q-66 0 -110 -3 t-76 -3v55q45 0 72.5 4t42 10.5t18.5 16.5t6 24q0 12 2 48t4 86.5t3 112t1 126.5v578q0 131 -18 174q-6 14 -19.5 31.5t-34 32t-49 24.5t-67.5 10q-63 0 -112.5 -37t-72.5 -108q-18 -53 -25 -129t-7 -181h225l-15 -55l-213 -12q-2 -78 -2 -170v-197q0 -117 1 -209t4 -120 q2 -16 8 -26.5t22.5 -17t45 -9.5t77.5 -7l-8 -55q-49 0 -99.5 3t-111.5 3t-115.5 -3t-95.5 -3v55q43 2 68.5 5t40 8.5t19.5 13.5t7 20q2 14 3 52t3 89.5t3 112t1 119.5v336z" />
<glyph unicode="&#xfb03;" horiz-adv-x="1562" d="M49 -6l2 55q39 2 63.5 4t39 7.5t19.5 12.5t7 21q4 29 7 125t3 250v336l-139 12l4 55h135v37q0 88 23 164t76 137q47 61 121.5 105.5t181.5 44.5q90 0 150.5 -35t86.5 -76q43 59 117 98t174 39q63 0 111.5 -16t80 -44t47 -62.5t15.5 -71.5q0 -47 -24.5 -71.5t-65.5 -24.5 q-25 0 -39 11t-14 28q0 10 3 28.5t3 36.5q0 57 -38 92t-112 35q-72 0 -128 -47t-74 -150q-10 -47 -17.5 -109.5t-7.5 -148.5h221q141 0 216 9.5t106 19.5q-2 -35 -5 -119t-3 -209v-202q0 -117 1 -177.5t5 -93.5q0 -16 5 -25t18.5 -15.5t39 -8.5t68.5 -2l-4 -55 q-51 0 -100.5 3t-108.5 3q-66 0 -114 -3t-91 -3l2 55q47 0 75 3t43 9.5t20.5 15.5t7.5 23q2 29 4 98.5t2 192.5v164q0 186 -6 227q-2 14 -19.5 18.5t-62.5 4.5l-322 2q-2 -68 -2 -164v-213t2 -205t4 -116q2 -18 7 -28.5t21.5 -17t45.5 -9.5t78 -5l-4 -55q-43 0 -98.5 3 t-116.5 3q-55 0 -109.5 -3t-97.5 -3l2 55q41 2 65.5 4t38 6t19.5 12.5t8 22.5t4 48t3 81t1 106.5v125.5v350h-410q-2 -66 -2 -158v-209t1 -210t6 -122q0 -16 5 -26t20.5 -16.5t45 -9.5t82.5 -5l-10 -55q-47 0 -98.5 3t-112.5 3t-112.5 -3t-94.5 -3zM319 872h412 q0 68 9.5 145t25.5 130q-12 59 -68.5 105t-138.5 46q-72 0 -128 -42t-83 -142q-16 -51 -22.5 -121.5t-6.5 -120.5z" />
<glyph unicode="&#xfb04;" horiz-adv-x="1562" d="M43 817l4 55h143v27q0 88 24 169t77 142q45 61 119.5 105.5t181.5 44.5q90 0 147.5 -35t85.5 -70q45 61 117 96t160 35q63 0 107 -14t73 -35q33 10 63.5 19.5t59.5 19.5q-2 -59 -6 -180t-4 -295v-432v-148.5t1 -105.5t2 -70.5t1 -44.5q2 -16 7 -26.5t19.5 -14.5t41 -6 t71.5 -4l-8 -55q-59 0 -115.5 3t-116.5 3q-66 0 -104.5 -3t-73.5 -3v55q45 2 72 5t41 9.5t19 16.5t5 24q2 12 3.5 47t3.5 84.5t3 111t1 126.5v563q0 72 -4 119t-15 72q-12 33 -52 66.5t-118 33.5q-63 0 -112 -36t-72 -105q-35 -111 -35 -314h225l-14 -57l-213 -10 q-2 -68 -2 -165v-212q0 -117 2 -203t4 -116q2 -18 6 -28.5t19.5 -17t44.5 -9.5t78 -5l-4 -55q-47 0 -98.5 3t-112.5 3q-57 0 -109.5 -3t-95.5 -3v55q43 2 67.5 4t39 7.5t19.5 13.5t7 22q4 29 5 123t1 227v359h-410q-2 -68 -2 -159v-206q0 -117 1 -210t4 -121q2 -18 7 -28.5 t20.5 -17t44 -9.5t75.5 -5l-8 -55q-41 0 -91.5 3t-111.5 3t-116.5 -3t-96.5 -3l2 55q84 2 106.5 10.5t26.5 36.5q2 14 3 51t3 89.5t3 113t1 119.5v336zM319 872h412q0 66 6 135.5t27 139.5q-14 55 -64.5 103t-140.5 48q-66 0 -123 -40.5t-86 -143.5q-16 -51 -23.5 -119.5 t-7.5 -122.5z" />
<glyph horiz-adv-x="0" />
<glyph unicode="&#xd;" horiz-adv-x="407" />
<glyph unicode=" "  horiz-adv-x="407" />
<glyph unicode="&#x09;" horiz-adv-x="407" />
<glyph unicode="&#xa0;" horiz-adv-x="407" />
<glyph unicode="!" horiz-adv-x="395" d="M98 1202q0 29 10.5 53.5t26 42t32.5 27.5t30 10h2q20 0 37.5 -13t31 -32.5t20.5 -43t7 -44.5q0 -35 -5 -76t-14 -84q-12 -80 -22 -167t-16.5 -173t-9.5 -166.5t-3 -144.5h-59q0 63 -3 143t-9.5 166t-16.5 174.5t-22 167.5q-8 47 -12.5 85t-4.5 75zM100 84q0 47 31 78 t72 31t70.5 -32t29.5 -79t-28.5 -79t-75.5 -32h-2q-39 0 -68 32t-29 81z" />
<glyph unicode="&#x22;" horiz-adv-x="544" d="M70 1391q6 6 19 15t29.5 18.5t34 15.5t31.5 6h2q12 0 19.5 -9.5t12.5 -22.5t7 -28.5t2 -25.5q0 -25 -8 -68t-19.5 -89t-23.5 -88t-22 -68l-39 -7q0 43 -4.5 95.5t-10.5 101.5t-14 90t-16 64zM315 1391q6 6 19.5 15t30 18.5t34 15.5t31.5 6h2q12 0 19.5 -9.5t12.5 -22.5 t7 -28.5t2 -25.5q0 -25 -8 -68t-19.5 -89t-24.5 -88t-22 -68l-39 -7q0 43 -5 95.5t-11 101.5t-13 90t-16 64z" />
<glyph unicode="#" horiz-adv-x="874" d="M37 434q10 23 16 52.5t13 52.5q27 0 62.5 -1t96.5 -3l72 280q-61 2 -107.5 1t-83.5 -3q16 41 31 105q29 -2 78 -2.5t109 -0.5q23 86 39 157t30 116l76 6q-10 -29 -30.5 -102.5t-49.5 -176.5h193q23 86 39 153t28 120l78 6q-18 -55 -38.5 -128t-41.5 -151h107t65 3 q-8 -23 -18 -55t-15 -52q-29 0 -67.5 1t-97.5 1l-68 -276q76 2 115 2h75q-8 -20 -17 -51t-13 -54h-83t-104 2q-27 -111 -43 -187.5t-26 -133.5l-82 -9q10 35 31.5 117t52.5 213h-191q-29 -121 -49 -198.5t-31 -122.5l-75 -13q6 18 13 45t17.5 67t24.5 94t33 128 q-43 -2 -81 -1t-83 -1zM293 535h194l68 280h-193z" />
<glyph unicode="$" d="M72 94q10 74 14 151t8 156l51 11q-6 -94 8.5 -155.5t46 -98.5t78 -54.5t105.5 -23.5l25 491q-37 20 -82 39t-70 35q-92 53 -127 117.5t-35 146.5q0 133 101 228q39 35 102 58.5t143 27.5l4 143l70 16l-10 -163q59 -4 107 -26t75 -44l29 78l45 -10q-23 -109 -27 -198 t-4 -142l-51 4q2 70 -10.5 121t-37 84.5t-58 52t-72.5 24.5l-25 -467q55 -27 94 -46t67 -35.5t46 -30t35 -27.5q43 -33 66.5 -79t23.5 -118q0 -68 -22.5 -120t-57.5 -93q-45 -49 -117.5 -82.5t-165.5 -39.5l-4 -162l-71 -19l10 183q-92 4 -172 26.5t-135 40.5zM207 952 q0 -90 60.5 -142t150.5 -87l18 444q-94 -4 -161.5 -56t-67.5 -157v-2zM446 80q45 2 87 15.5t76 40t54.5 67.5t20.5 98v2q0 53 -16.5 88t-45 61.5t-68.5 48t-87 46.5z" />
<glyph unicode="%" horiz-adv-x="1366" d="M78 895q0 88 23.5 156.5t63.5 114.5t91 71t104 25q37 0 66 -7.5t59 -25.5l27 22q35 -41 101.5 -69.5t150.5 -28.5q63 0 108.5 10.5t76 24.5t47 28.5t24.5 22.5q18 20 55 84l103 12q-59 -90 -158.5 -241.5t-220.5 -336t-251 -388t-251 -402.5l-61 51q41 59 102 152.5 t132 202t146.5 224.5t143 221.5t124 191.5t89.5 137q-47 -27 -109.5 -42t-140.5 -15q-41 0 -82 9t-68 17q16 -41 23.5 -90t7.5 -94q0 -176 -73.5 -273.5t-190.5 -97.5q-111 0 -186.5 82t-75.5 252zM205 903q-2 -94 16.5 -158.5t48.5 -93.5q33 -33 86 -33q27 0 56.5 15.5 t54.5 52.5t40 97.5t15 150.5q0 43 -6 90t-23.5 87t-49 65.5t-85.5 25.5h-2q-25 0 -45 -9t-41 -32q-23 -23 -44 -83t-21 -175zM766 358q0 88 24.5 157t64.5 116t89 70.5t100 23.5h3q74 0 120.5 -29.5t75.5 -78t40 -108.5t11 -124q0 -162 -72.5 -261t-191.5 -99 q-113 0 -187.5 82.5t-76.5 250.5zM897 371q-2 -96 16.5 -161t44.5 -93q16 -16 39 -25.5t47 -9.5q33 0 64 18.5t54.5 55.5t37.5 94t14 137q0 43 -6 92t-23.5 92t-50 71t-85.5 28h-2q-23 0 -47.5 -11.5t-41.5 -31.5q-20 -23 -39.5 -85.5t-21.5 -170.5z" />
<glyph unicode="&#x26;" horiz-adv-x="1325" d="M90 297q0 74 26.5 131t67.5 100q33 31 77 68t85 66q-41 59 -79 133.5t-38 167.5q0 63 18.5 120.5t55.5 100.5t91.5 68.5t123.5 25.5q61 0 109.5 -22.5t80 -58.5t49 -82t17.5 -93q0 -72 -26.5 -119t-73.5 -84q-29 -27 -71 -58.5t-109 -78.5q66 -84 142.5 -176t147.5 -170 q39 86 62.5 140t50.5 110q53 123 108.5 186.5t120.5 63.5q43 0 61.5 -22.5t18.5 -47.5q0 -12 -6 -24.5t-14 -22.5q-16 -16 -31 -8q-16 8 -37 8q-41 0 -74.5 -33t-80.5 -127q-29 -49 -60 -115.5t-72 -150.5q53 -59 100.5 -107.5t93.5 -81t95 -49t105 -12.5l-2 -51 q-51 -12 -95.5 -19.5t-87.5 -7.5q-27 0 -54.5 10.5t-61 34t-74.5 62.5t-92 96q-53 -86 -131 -141.5t-203 -55.5q-72 0 -132.5 20.5t-107.5 67.5q-43 43 -68.5 104.5t-25.5 133.5zM231 334q0 -53 16.5 -102.5t48.5 -86t77 -59.5t102 -23q51 0 91 14.5t68 36t47 47t32 48.5 q-57 68 -145.5 173t-186.5 232q-55 -45 -102.5 -110.5t-47.5 -167.5v-2zM348 997q0 -78 34 -145.5t75 -124.5q86 57 142 128t56 161q0 88 -37.5 145.5t-111.5 57.5h-2q-29 0 -56.5 -11.5t-50 -38t-36 -68.5t-13.5 -104z" />
<glyph unicode="'" horiz-adv-x="303" d="M72 1391q6 6 19 15t30.5 18.5t36 15.5t32.5 6h3q12 0 19 -9.5t12 -22.5t7 -28.5t2 -25.5q0 -25 -8 -68t-20 -89t-25.5 -88t-23.5 -68l-39 -7q0 43 -5.5 95.5t-11.5 101.5t-13 90t-15 64z" />
<glyph unicode="(" horiz-adv-x="616" d="M96 539v2q0 236 50.5 407.5t142.5 306.5q45 66 104.5 120.5t118.5 88.5l29 -51q-29 -16 -65 -45t-70.5 -75t-66.5 -111.5t-52 -157.5q-27 -117 -36 -243t-9 -249q0 -131 10 -256.5t37 -236.5q20 -90 51 -155.5t65.5 -110.5t70.5 -74t65 -47l-29 -51q-59 35 -118.5 89 t-104.5 120q-104 147 -148.5 327t-44.5 402z" />
<glyph unicode=")" horiz-adv-x="616" d="M84 -348q29 16 64.5 45t70.5 75t65.5 111.5t51.5 157.5q27 109 37 234.5t10 256.5q0 121 -9 248t-38 244q-20 92 -51 157.5t-66 110.5t-70.5 74t-64.5 47l29 51q59 -35 118.5 -89t104.5 -120q102 -145 147 -321t45 -404v-2q0 -217 -46 -394t-148 -324 q-45 -66 -103.5 -120.5t-117.5 -88.5z" />
<glyph unicode="*" horiz-adv-x="792" d="M68 999q0 8 2 21.5t8 28t16 25.5t27 13q14 2 37.5 0t53.5 -5t63.5 -3t68.5 6l6 -36q-35 -10 -64.5 -26.5t-55 -34t-45 -31t-33.5 -15.5q-16 -4 -29.5 3t-25 17.5t-19.5 20.5t-10 16zM143 1285.5q9 31.5 19 41.5q6 6 18.5 11t26.5 7.5t28.5 0t24.5 -14.5q8 -10 19.5 -32.5 t24.5 -51t29.5 -59.5t39.5 -55l-27 -27q-25 25 -54.5 43t-57 32.5t-50 27t-30.5 22.5q-20 23 -11 54.5zM252 816q-4 15 0 32q2 12 16.5 30.5t32.5 43t35.5 53.5t30.5 63l34 -12q-8 -33 -8 -66.5t2 -64.5t3 -56.5t-1 -37.5q-6 -14 -18 -23.5t-26.5 -14.5t-29 -6t-20.5 1 q-8 2 -18.5 10t-19.5 20.5t-13 27.5zM391 1141q8 31 10 65.5t1 66.5t-2 57.5t3 37.5q6 14 17.5 22.5t25 12.5t26.5 4t20 -2q8 -2 18 -9t18.5 -19.5t12.5 -27t0 -30.5q-10 -23 -50 -74t-63 -117zM424 1036l27 25q23 -25 51 -42.5t56 -31.5t50.5 -25.5t32.5 -21.5 q10 -12 12 -27.5t-1 -30t-8 -25.5t-11 -17q-6 -4 -18.5 -10.5t-27 -8.5t-28.5 1t-24 16q-10 8 -19.5 31.5t-22 52t-28.5 59.5t-41 55zM449 1116q33 10 63.5 26.5t56 34t46 31t34.5 15.5q29 4 51.5 -19.5t26.5 -38.5q2 -8 0 -21.5t-8 -27.5t-17.5 -25.5t-25.5 -13.5t-38 0 t-54.5 5t-64.5 4t-66 -5z" />
<glyph unicode="+" horiz-adv-x="1013" d="M109 434v94h354v355h96v-355h348v-94h-348v-391h-96v391h-354z" />
<glyph unicode="," horiz-adv-x="370" d="M63 -147q63 12 108.5 56t45.5 105q0 12 -12 4q-10 -8 -23.5 -11t-23.5 -3q-33 0 -57.5 24.5t-22.5 71.5q0 41 28.5 73t71.5 32q55 0 86 -43t31 -111q0 -59 -21.5 -104t-54.5 -76t-70.5 -48.5t-70.5 -19.5z" />
<glyph unicode="-" horiz-adv-x="598" d="M70 424l22 111q109 -4 212.5 -4.5t225.5 4.5l-20 -111q-229 6 -440 0z" />
<glyph unicode="." horiz-adv-x="370" d="M82 84q0 47 30.5 79t73.5 32h2q47 0 74 -33t27 -78q0 -51 -31 -82t-74 -31q-41 0 -71.5 31t-30.5 82z" />
<glyph unicode="/" horiz-adv-x="763" d="M88 -166q20 57 48 142t61.5 188.5t70.5 218.5t74 231q37 115 78 241t78 239.5t64.5 200.5t37.5 124l86 -30q-8 -20 -38 -103.5t-68.5 -199t-82.5 -251t-83 -257.5q-27 -86 -56.5 -183.5t-60.5 -197t-62.5 -199.5t-60.5 -193z" />
<glyph unicode="0" d="M53 616q2 180 46 332t149 242q45 41 98 60.5t107 19.5h2q152 0 241 -119q70 -88 99.5 -222t29.5 -286q0 -119 -14 -212t-36.5 -164.5t-54.5 -123t-67 -84.5q-55 -51 -114.5 -69.5t-108.5 -18.5q-66 0 -128 26t-109 79q-76 90 -109 232.5t-31 307.5zM205 629 q0 -147 17.5 -269t53.5 -202q29 -59 71 -93t102 -34q96 0 155 114q35 70 52.5 184.5t17.5 295.5q0 178 -21.5 296.5t-52.5 182.5q-51 109 -160 108h-2q-51 0 -86 -25.5t-63 -78.5q-20 -35 -35.5 -88t-27 -116.5t-16.5 -134.5t-5 -140z" />
<glyph unicode="1" d="M172 45l154 14q33 4 47 13.5t16 36.5q4 31 6 100.5t2 189.5v394v208.5t-4 133.5q0 18 -6 24t-16 6q-14 0 -37 -2t-47.5 -3t-49 -3t-44.5 -2l10 51q43 6 93 14.5t97 17.5t84 18.5t53 15.5l11 -6q0 -29 -1 -70t-3 -98.5t-3.5 -134t-1.5 -177.5v-385q0 -121 1.5 -184 t5.5 -111q2 -23 10 -33t35 -14l159 -12l2 -53q-39 0 -80.5 1t-81.5 2t-74 2t-54 1q-66 0 -137.5 -3t-137.5 -3z" />
<glyph unicode="2" d="M51 12q8 16 18.5 39t20.5 35q82 72 160 152.5t142.5 161.5t110.5 158t64 138q35 102 35 234q0 49 -10 100t-33.5 92t-63.5 68t-100 27q-104 0 -150 -56.5t-46 -148.5q0 -20 5 -42t11 -42q8 -25 -14 -47q-20 -20 -54 -21q-39 0 -59 29t-20 78q0 111 92 202q45 47 113.5 75 t148.5 28q72 0 129 -20.5t94 -53.5q61 -53 87 -133t26 -166q-2 -92 -27.5 -162.5t-79.5 -142.5q-43 -59 -149.5 -176t-290.5 -305q229 4 336.5 8t132.5 8q18 2 29.5 11.5t19.5 33.5q8 20 21.5 56t23.5 77l49 -22q-29 -106 -42 -181t-17 -112q-10 0 -36 2t-82 3t-151.5 2 t-244.5 1h-106.5t-88.5 -4z" />
<glyph unicode="3" d="M63 188q0 39 20.5 63.5t55.5 24.5q39 0 54 -57q20 -102 77.5 -147t137.5 -45q66 0 112.5 24.5t76.5 67.5t44 102.5t14 128.5q0 119 -60 195t-200 76q-29 0 -57.5 -5.5t-48.5 -11.5l-39 39l8 16q31 6 69 16.5t72 24.5q29 12 64 31t64.5 51.5t50 81.5t20.5 121 q0 45 -11.5 86t-35 72t-59 49t-82.5 18q-92 0 -140.5 -44t-48.5 -122q0 -31 10 -65q6 -25 -10 -45q-10 -12 -24.5 -16.5t-26.5 -4.5q-29 0 -50.5 24t-21.5 73q0 39 22.5 84t65.5 84t107.5 65.5t148.5 26.5h2q61 0 117.5 -19.5t97.5 -55.5t66 -86t25 -114q0 -78 -29 -128 t-70 -85q-35 -29 -81 -53t-101 -49v-8q76 -4 154.5 -35t124.5 -84q37 -41 53 -89t16 -114q0 -88 -30.5 -154.5t-79.5 -115.5q-49 -47 -127 -78t-183 -31q-84 0 -146.5 20.5t-103.5 52.5t-62.5 71t-21.5 73z" />
<glyph unicode="4" d="M14 451q70 104 148 216.5t149.5 217t132 193.5t95.5 145q16 6 54 23.5t75 33.5l12 -8q-2 -63 -3 -151.5t-2 -185.5t-2 -193.5t-1 -176.5v-119q86 2 130 11.5t70 19.5l-2 -49q-23 -16 -71.5 -32.5t-126.5 -22.5q0 -90 1 -182.5t3 -190.5q-29 2 -69 -5t-68 -18l-11 7 q4 41 5.5 140t5.5 247q-88 0 -171 2t-152 7t-118 10t-69 11zM123 477q14 -6 51 -11t91 -10t124 -8.5t150 -3.5q2 90 3 186.5t2 188.5t2 174t1 144q-115 -170 -226.5 -336t-197.5 -324z" />
<glyph unicode="5" d="M74 184q0 31 19.5 57.5t58.5 26.5q18 0 31.5 -11t19.5 -44q23 -102 80 -143t131 -41q66 0 110.5 29.5t72.5 78.5t40 111.5t12 128.5q0 78 -18.5 135t-50.5 94q-61 68 -164 68q-100 0 -159.5 -48t-84.5 -104l-45 45q10 33 20.5 90.5t19.5 127t17.5 143t13.5 138t7 114 t0 67.5q16 -4 42.5 -10t61.5 -10t75 -6t81 -2q123 0 196.5 16t110.5 63l27 -32q-20 -39 -50 -72t-69 -55q-35 -23 -93.5 -32t-127.5 -9q-63 0 -112.5 4t-74.5 8q-6 -57 -13 -120.5t-16.5 -125t-18.5 -118t-17 -95.5q47 39 118.5 68t145.5 29q70 0 131.5 -19.5t106.5 -61.5 t71.5 -108.5t26.5 -161.5q0 -66 -16.5 -130t-55.5 -120q-47 -72 -132 -124t-200 -52q-84 0 -145 19.5t-102 50.5t-61.5 68.5t-20.5 74.5z" />
<glyph unicode="6" d="M59 487q0 211 59.5 365t157.5 252q86 84 187.5 126t193.5 42q43 0 68 -6l6 -58q-14 2 -27.5 3t-27.5 1q-106 0 -190.5 -52t-144.5 -138t-93 -198.5t-37 -231.5q23 27 53.5 57.5t69.5 57t85 43t101 16.5q70 0 124 -26.5t93 -74t59.5 -112t20.5 -137.5q0 -100 -25.5 -178 t-68.5 -136q-45 -57 -116.5 -94t-164.5 -37q-156 0 -254 101q-59 61 -94 167.5t-35 247.5zM213 412q0 -39 9 -104.5t32 -121.5q29 -72 77 -114.5t115 -42.5q115 0 172 102q29 53 40.5 116.5t11.5 129.5q0 55 -7.5 95t-23.5 81q-23 55 -66 90t-106 35h-2q-47 0 -86 -15.5 t-69.5 -41t-52 -58.5t-34.5 -67q-8 -23 -9 -41.5t-1 -42.5z" />
<glyph unicode="7" d="M61 922q8 31 17.5 80t15.5 100t9 94t1 61q12 -4 33 -7t60 -5t104.5 -2h169.5h149.5h96.5t57.5 1t34.5 1l6 -12q-6 -35 -24.5 -87t-40.5 -102q-74 -154 -136.5 -290t-107.5 -264t-70.5 -253.5t-27.5 -256.5l-17 -9q-23 0 -44 5.5t-38 13.5q-16 6 -24.5 20.5t-8.5 30.5 q0 18 2.5 32.5t6.5 37.5q23 109 74 234.5t112 257.5t124.5 264t111.5 253q-41 4 -119 5t-170 1q-78 0 -125 -2t-75 -11t-41 -26.5t-25 -46.5q-10 -29 -21.5 -59.5t-21.5 -71.5z" />
<glyph unicode="8" d="M70 287q0 57 18 103t47 79q31 35 82 75t111 83q-104 68 -154.5 142.5t-50.5 168.5q0 72 17.5 118t45.5 87q41 55 107.5 92t165.5 37h4q61 0 115.5 -22.5t94.5 -62.5t62.5 -94.5t22.5 -117.5q0 -57 -18.5 -101.5t-45.5 -74.5q-27 -29 -63.5 -60.5t-85.5 -70.5 q82 -49 133 -94.5t80.5 -88.5t40 -86t10.5 -86q0 -139 -102 -235q-49 -49 -122 -78t-153 -29q-168 0 -265 84t-97 232zM199 311q0 -55 15 -106t48 -89t81 -61.5t114 -23.5h2q104 0 159.5 65.5t55.5 169.5q0 55 -18.5 97.5t-56.5 80t-93 74.5t-129 80q-78 -45 -128 -116.5 t-50 -170.5zM244 993q0 -106 67 -172q39 -37 89.5 -69.5t95.5 -55.5q74 53 110.5 115.5t36.5 155.5q0 49 -13.5 94t-40 79t-65.5 54t-88 20h-2q-35 0 -68.5 -13t-60 -40.5t-44 -69.5t-17.5 -98z" />
<glyph unicode="9" d="M61 844q0 92 22.5 158.5t63.5 123.5t117 100.5t176 43.5q78 0 139.5 -28t106.5 -79q72 -82 100.5 -194.5t28.5 -255.5q0 -205 -60.5 -355.5t-144.5 -236.5q-74 -78 -167 -115t-185 -37q-29 0 -51.5 2t-40.5 9l-2 55q41 -6 74 -4q176 4 291.5 156.5t136.5 445.5 q-53 -59 -129 -104.5t-162 -45.5q-74 0 -131.5 28t-98.5 76t-62.5 113.5t-21.5 143.5zM207 879q0 -135 62.5 -221.5t166.5 -86.5q90 0 140.5 45.5t74.5 96.5q10 23 12.5 46t2.5 56q0 80 -17.5 158t-50.5 129q-31 49 -71 78.5t-99 29.5h-2q-109 0 -168 -102 q-29 -47 -40 -102.5t-11 -126.5z" />
<glyph unicode=":" horiz-adv-x="370" d="M84 84q0 47 30.5 79t71.5 32h2q47 0 74 -33t27 -78q0 -51 -31 -82t-72 -31t-71.5 31t-30.5 82zM86 674q0 49 30.5 80.5t71.5 31.5h2q47 0 74 -32.5t27 -77.5q0 -51 -31 -82t-72 -31t-71.5 31t-30.5 80z" />
<glyph unicode=";" horiz-adv-x="370" d="M66 -147q63 12 108 56t45 105q0 12 -12 4q-10 -8 -23.5 -11t-23.5 -3q-33 0 -56.5 24.5t-23.5 71.5q0 41 29.5 73t70.5 32q55 0 86 -43t31 -111q0 -59 -21.5 -104t-54.5 -76t-71.5 -47.5t-71.5 -18.5zM82 674q0 49 30.5 80.5t71.5 31.5h2q47 0 74 -32.5t27 -77.5 q0 -51 -31 -82t-72 -31t-71.5 31t-30.5 80z" />
<glyph unicode="&#x3c;" horiz-adv-x="958" d="M133 434v103l682 364v-108l-586 -306v-6l586 -301v-112z" />
<glyph unicode="=" horiz-adv-x="1013" d="M104 252v94h803v-94h-803zM104 610v95h803v-95h-803z" />
<glyph unicode="&#x3e;" horiz-adv-x="958" d="M135 68v108l582 305v6l-582 306v108l682 -364v-103z" />
<glyph unicode="?" horiz-adv-x="759" d="M82 1077q0 57 27.5 105.5t72.5 82t99.5 52t107.5 18.5q141 0 222 -86t81 -227q0 -72 -29.5 -121t-66.5 -90q-45 -51 -89 -102.5t-81 -98.5q-39 -49 -45 -95t22 -112l-43 -22q-31 35 -59.5 84t-28.5 100q0 37 15.5 68t36.5 59q16 25 42.5 57.5t54.5 68.5t54.5 68t42.5 52 q23 27 35 57.5t12 67.5q0 113 -53 164t-133 51q-90 0 -128 -46t-38 -99q0 -29 6 -47.5t14 -34.5q12 -25 -10 -47q-31 -31 -61 -31q-35 0 -57.5 28.5t-22.5 75.5zM274 84q0 47 31 78t72 31q43 0 72.5 -31t29.5 -80t-29.5 -80t-76.5 -31h-2q-37 0 -67 31t-30 82z" />
<glyph unicode="@" horiz-adv-x="1480" d="M86 242q0 162 53.5 317.5t155.5 278.5t250.5 197.5t339.5 74.5q131 0 228 -40t160.5 -108.5t95.5 -159.5t32 -194q0 -102 -34 -200.5t-93.5 -175t-143 -124t-182.5 -47.5q-53 0 -77.5 18.5t-29.5 51.5t4 78t25 98q-31 -49 -70.5 -93t-83.5 -78t-89 -54.5t-86 -20.5 q-61 0 -89 45.5t-26 116.5q0 59 18.5 130t53 141.5t84 134t114.5 106.5q47 31 84 45.5t84 14.5t78 -23.5t43 -54.5l19 49h102q-27 -74 -52.5 -155t-47 -155.5t-37 -138t-21.5 -100.5q-10 -47 -2 -69.5t41 -22.5q80 0 142.5 42t106.5 109.5t66.5 152.5t22.5 169 q0 100 -29.5 182t-88 140.5t-145.5 90t-200 31.5q-141 0 -258 -58t-194 -163q-106 -139 -147.5 -282.5t-41.5 -294.5q0 -117 27.5 -205t75.5 -139q53 -61 135 -99.5t180 -38.5q129 0 228.5 46.5t179.5 136.5l24 -49q-57 -63 -116.5 -103.5t-120 -63t-123 -30.5t-125.5 -8 q-113 0 -205 38t-157.5 108.5t-101.5 173t-36 231.5zM547 225q0 -33 11 -57.5t40 -24.5q51 0 102.5 39t95.5 96.5t77.5 123t50.5 118.5q6 20 11 33.5t8 25t6 22.5t7 28q2 51 -22.5 81.5t-73.5 30.5q-41 0 -87 -30.5t-87 -89.5q-72 -100 -105.5 -206t-33.5 -188v-2z" />
<glyph unicode="A" horiz-adv-x="1159" d="M-18 -6v55q39 2 67.5 7t49 19.5t36 39t31.5 67.5t43 120t59.5 171t67.5 196.5t66.5 198t57 175t40.5 124.5q16 41 22 67t10 46q29 4 59 10t56 17q25 -90 55.5 -198t64.5 -222.5t68.5 -229t66.5 -217t60.5 -187.5t49.5 -140q12 -33 30.5 -43.5t53.5 -14.5l75 -6v-55 q-29 2 -87 4t-117 2q-63 0 -122 -2l-118 -4l-2 55q88 6 110.5 15.5t16.5 35.5q-6 25 -19.5 70t-29 100.5t-32.5 113.5t-34 110q-18 2 -75.5 2h-122.5h-117.5t-71.5 -2q-23 -72 -39 -124.5t-27.5 -90t-19.5 -65.5t-12 -48q-8 -33 -7 -54.5t16 -33.5t49 -19.5t91 -9.5l-2 -55 q-45 0 -89 3t-103 3q-41 0 -103.5 -3t-121.5 -3zM373 559q18 -2 70.5 -3t109.5 -1q59 0 107.5 1t58.5 3q-18 68 -40 142.5t-43.5 149.5t-42 146.5t-38.5 137.5q-39 -121 -84 -263.5t-98 -312.5z" />
<glyph unicode="B" horiz-adv-x="1071" d="M51 -8v55q94 4 124 12.5t32 34.5q4 49 6 115.5t2 152.5v572q0 84 -1 143.5t-5 112.5q-2 20 -32 28.5t-124 12.5v55q41 0 97.5 -3t115.5 -3q61 0 126 3t143 3q121 0 188.5 -20.5t110.5 -63.5q35 -35 53 -87t18 -111t-14 -103.5t-37 -76t-50.5 -53t-53.5 -34.5 q-29 -16 -54.5 -23t-52.5 -16v-6q70 -10 130.5 -28.5t105.5 -51.5q47 -35 77.5 -91t30.5 -154q0 -100 -40 -171t-118 -122q-70 -47 -159.5 -63.5t-180.5 -16.5q-59 0 -120.5 2t-120.5 4q-35 0 -92.5 -2t-104.5 -6zM354 360q0 -94 1 -153.5t5 -118.5q2 -16 24 -26.5t81 -10.5 q127 0 197.5 32t105.5 85q23 37 35 89t12 112q0 72 -14.5 117.5t-48.5 82.5q-35 37 -103.5 63.5t-189.5 26.5q-72 0 -105 -6v-293zM354 715q18 -2 46 -2h59q135 0 212 59t77 215q0 53 -11.5 94t-29.5 68q-25 37 -73 59.5t-147 22.5q-78 0 -101.5 -9.5t-23.5 -29.5 q-2 -47 -5 -103.5t-3 -138.5v-235z" />
<glyph unicode="C" horiz-adv-x="1124" d="M88 618q0 180 52.5 311.5t129.5 215.5q72 80 167 123t222 43q104 0 178 -30t115 -75l35 97l45 -17q-6 -37 -10 -86t-6 -103.5t-2 -107.5t2 -100l-51 -8q-6 74 -24.5 140t-55.5 118.5t-93.5 83t-134.5 30.5q-92 0 -160.5 -36.5t-121.5 -110.5q-55 -74 -89 -196t-34 -271 q0 -121 26.5 -229.5t73.5 -182.5q55 -90 133 -132t166 -42q125 0 215 62.5t146 224.5l51 -31q-47 -154 -153.5 -247t-295.5 -93q-137 0 -239.5 49.5t-169.5 155.5q-53 78 -85 191.5t-32 252.5z" />
<glyph unicode="D" horiz-adv-x="1253" d="M37 -6v55l94 6q41 4 56.5 16.5t17.5 41.5q4 31 7 116.5t3 216.5v437v187.5t-2 105.5q0 23 -10 32t-39 13l-115 12l4 53q16 0 43 -1t56.5 -2t59.5 -2t54 -1q59 0 131 3t150 5q154 0 243 -23.5t146 -62.5q106 -72 167.5 -200t61.5 -316q0 -102 -16 -195.5t-54 -174 t-99.5 -146.5t-149.5 -111q-66 -35 -152 -50t-176 -15q-61 0 -124.5 3t-125.5 3q-27 0 -60.5 -1t-67.5 -2t-61.5 -2t-41.5 -1zM356 298q0 -56 1 -95t2 -61.5t3 -41.5q2 -23 25 -35t107 -12q160 0 253 46t146 120q49 72 78.5 183.5t29.5 277.5q0 141 -31.5 241.5t-78.5 157.5 q-59 72 -147.5 110t-221.5 38q-55 0 -87 -3t-47 -8.5t-19 -12.5t-4 -15q-2 -12 -3.5 -33.5t-2.5 -57.5t-2 -89.5t-1 -130.5v-437v-142z" />
<glyph unicode="E" horiz-adv-x="1032" d="M33 -6l2 53l123 12q27 2 37 18.5t12 59.5q6 123 6 262v467q0 104 -1 183t-3 122q0 29 -13.5 39.5t-48.5 14.5l-98 8v53q41 0 112.5 -3t143.5 -3h309q92 0 163 3t97 9q-2 -18 -3 -55t-2 -82q0 -22 -0.5 -45.5t0.5 -46.5q1 -47 3 -84l-51 -4q-4 35 -12 75t-21 80 q-8 25 -19 41.5t-34.5 26.5t-65.5 14.5t-112 4.5h-168q-16 0 -21.5 -6.5t-7.5 -26.5q-2 -43 -4 -103.5t-2 -140.5v-244q16 0 57.5 -1t63.5 -1q68 0 109 5.5t63.5 22.5t32.5 48t14 80h51q-8 -98 -8 -200.5t6 -200.5l-51 2q-6 57 -14 92t-30.5 54t-63.5 26.5t-111 7.5 q-31 0 -66.5 -1t-52.5 -3v-226q0 -76 2 -157.5t6 -132.5q0 -16 6.5 -26.5t27 -17t61.5 -8.5t114 -2q72 0 119 3t78 10.5t49.5 21.5t32.5 37q25 35 45 94.5t35 114.5l47 -4q0 -16 -6 -65.5t-14.5 -104.5t-15.5 -104.5t-11 -67.5q-41 4 -128 6t-255 2h-246q-31 0 -67.5 -1 t-73.5 -2t-71 -2t-56 -1z" />
<glyph unicode="F" horiz-adv-x="985" d="M41 49l113 10q29 2 39 14.5t14 39.5q2 29 5 97.5t3 180.5v518q0 123 -1 183.5t-3 83.5q0 41 -43 45l-119 10l-2 55q51 0 120 -3t155 -3h274q80 0 133 1t89 3t58.5 4t41.5 4q-10 -106 -10 -195q0 -18 -1 -34q0 -63 2 -94l-51 -4q-4 33 -10 72.5t-17 80.5q-8 27 -19 46.5 t-36.5 31.5t-69.5 17.5t-118 5.5h-189q-14 0 -24 -5.5t-13 -21.5q-2 -16 -4 -82t-2 -188v-246q8 0 26.5 -1t42.5 -1h48.5h42.5q66 0 103.5 6t59 24.5t31 51t17.5 86.5l47 -4q-6 -49 -7 -110.5t-1 -121t2 -111t6 -77.5h-51q-8 57 -15.5 94t-28 58.5t-59 30.5t-108.5 9h-43 h-47.5t-41 -1t-24.5 -1v-229q0 -117 3 -174.5t3 -85.5q2 -49 48 -56q25 -4 67.5 -8t77.5 -6l-4 -55q-53 0 -121 3t-137 3q-59 0 -129 -3t-121 -3z" />
<glyph unicode="G" horiz-adv-x="1239" d="M86 625q0 215 78 367.5t215 238.5q72 45 145.5 62.5t159.5 17.5q125 0 198.5 -35t106.5 -68l37 95l47 -17q-6 -25 -12 -74t-10 -107t-7 -117q-1 -34 -1 -63q0 -24 1 -46h-55q-2 82 -21.5 151.5t-58.5 118.5t-97 76.5t-138 27.5q-92 0 -167 -35.5t-138 -123.5 q-59 -86 -87 -205t-28 -254q0 -123 27.5 -237.5t80.5 -192.5q66 -98 151 -136t183 -38t156.5 31.5t65.5 84.5q2 23 3 56t2 68.5t1 73.5v71q0 43 -3 67.5t-15.5 39t-36 19.5t-62.5 7l-98 8l2 55q23 0 55.5 -1t69 -2t74.5 -2t71 -1q53 0 115.5 1t91.5 5v-55q-39 -6 -61.5 -11 t-36 -11.5t-17.5 -16.5t-6 -29q-5 -49 -5 -95q0 -15 1 -30q2 -59 2 -106q2 -143 14 -197q-16 -4 -40.5 -11t-50 -15t-50.5 -15.5t-43 -13.5q-45 -14 -104.5 -25.5t-126.5 -11.5q-158 0 -266.5 47t-186.5 152q-61 84 -93 202.5t-32 254.5z" />
<glyph unicode="H" horiz-adv-x="1292" d="M49 -6v55q94 2 125 15.5t33 52.5q2 18 3 39.5t2 52.5t2 74t1 102v553q0 78 -1 125t-3 94q-2 45 -34 58.5t-126 15.5l2 55q35 0 96.5 -3t133.5 -3q51 0 114.5 3t118.5 3l-2 -55q-90 0 -118.5 -15.5t-33.5 -56.5q-6 -74 -6 -211v-246q41 -2 118 -2h163h164t139 2v238v138 t-4 93q-2 33 -34 45.5t-122 14.5v55q141 -6 230 -6q29 0 62.5 1t66 2t60.5 2t44 1v-55q-90 -2 -123 -16.5t-35 -57.5q-2 -45 -3 -94t-1 -123v-551q0 -98 1 -157.5t5 -110.5q2 -41 32 -54.5t120 -17.5v-55q-53 2 -119.5 4t-118.5 2q-47 0 -112.5 -1t-112.5 -5v55q49 0 79 4 t47.5 12.5t24.5 21.5t9 32q0 16 1 37.5t1 51.5t1 72t1 101v254q-55 2 -135 3t-168 1t-164 -1t-117 -3v-250q0 -94 2 -154.5t4 -109.5q0 -23 8.5 -36t27 -21.5t48 -10.5t76.5 -4v-55q-45 2 -112.5 4t-141.5 2q-59 0 -119.5 -2t-99.5 -4z" />
<glyph unicode="I" horiz-adv-x="569" d="M47 1231l2 55q39 -2 104.5 -4t125.5 -2q59 0 125.5 3t113.5 3v-55q-47 -2 -76.5 -5t-47 -11.5t-23.5 -19.5t-9 -30q-2 -29 -4 -77t-2 -140v-565q0 -96 1 -153.5t5 -108.5q2 -41 33 -54.5t123 -17.5v-55q-53 2 -120.5 4t-121.5 2q-49 0 -113.5 -1t-111.5 -5v55q47 2 78 6 t47.5 11.5t23.5 20.5t9 32q4 35 5 89t1 171v555v129t-2 86q0 25 -7 40t-24.5 22.5t-50.5 11.5t-84 8z" />
<glyph unicode="J" horiz-adv-x="552" d="M-145 -272q0 29 24.5 53t46.5 24q14 0 21.5 -4t17.5 -14q25 -31 51.5 -43t51.5 -12t46 11t38.5 37.5t30 72t18.5 112.5q6 96 10 218t4 274v434q0 102 -1 170.5t-1 109.5q0 47 -45 50q-29 4 -60.5 7t-60.5 5l8 55q27 0 91.5 -4t134.5 -4q23 0 54.5 1t63 3t61 3t48.5 1 l-2 -55l-78 -8q-41 -4 -51 -15.5t-12 -40.5t-4.5 -234.5t-2.5 -600.5q0 -57 -2 -114.5t-6 -110.5q-6 -92 -35.5 -179.5t-76.5 -146.5q-61 -78 -131 -109.5t-127 -31.5q-53 0 -89 25.5t-36 60.5z" />
<glyph unicode="K" horiz-adv-x="1165" d="M39 -6l2 55q51 4 83 7t48 9.5t22.5 17.5t8.5 30q4 29 6 104.5t2 194.5v465v106v79v59.5t-2 47.5q0 18 -6 29.5t-22.5 18t-45.5 9.5t-76 7l2 55q41 -2 104.5 -4t117.5 -2q49 0 112.5 3t104.5 3l4 -55q-45 -4 -73 -6t-43 -8.5t-21.5 -16.5t-8.5 -26q-2 -37 -5 -107t-3 -186 v-207q29 12 72 46t91 81t99.5 102.5t95.5 107.5t78.5 96t51.5 71q14 23 9 28.5t-26 8.5l-106 14l10 55q41 0 95 -2t114 -2q61 0 114.5 2t88.5 4l2 -55q-43 -4 -75 -8t-55.5 -12.5t-42 -20.5t-38.5 -33q-31 -33 -78 -81t-102.5 -106.5t-117 -124t-122.5 -130.5 q55 -78 129 -173t145.5 -183.5t130 -158t84.5 -96.5q14 -14 28.5 -24t37 -16.5t55.5 -10.5t82 -6l-10 -55q-39 0 -76 1h-15q-28 0 -52 -3q-45 -2 -80 -5t-70 -10q-10 16 -41 58.5t-73 98.5t-92 119.5t-98 125t-88 113t-63 81.5q-33 43 -49 52.5t-43 -4.5v-203 q0 -129 3 -198.5t5 -108.5q0 -16 6.5 -26.5t24 -17t48 -10.5t83.5 -8l-4 -55q-59 0 -126.5 3t-123.5 3q-66 0 -124 -3t-103 -3z" />
<glyph unicode="L" horiz-adv-x="997" d="M35 -6v53l112 12q55 6 58 47q4 49 7 141.5t3 215.5v452v174.5t-2 90.5q-2 25 -13.5 33t-43.5 12l-97 6l2 55q18 0 46 -1t59 -2t61.5 -2t53.5 -1q41 0 101 2t140 4l6 -55l-112 -8q-29 -4 -39 -14.5t-12 -37.5q-4 -55 -6.5 -134t-2.5 -193v-379v-119.5t1 -109t2 -89 t3 -57.5q0 -8 5.5 -14t22 -10.5t48 -6.5t86.5 -2q82 0 135.5 3t87 12.5t53 26t34.5 42.5q23 41 40 97.5t31 115.5l53 -2q-10 -66 -22 -162t-23 -198q-27 4 -86 5t-143 1q-82 0 -179 1t-196 1q-31 0 -71.5 -1t-79.5 -2t-72 -2t-51 -1z" />
<glyph unicode="M" horiz-adv-x="1599" d="M35 47q25 2 47 4t47 6q35 6 53.5 30t22.5 103q2 57 5 156.5t6 229t4 281t1 317.5l-6 22q-6 23 -63 27l-97 8l4 55q53 -4 108.5 -5t96.5 -1q39 0 72 2t49 4q10 -33 38 -101.5t63.5 -159.5t78.5 -195.5t87 -209t84 -203t71 -175.5q74 180 143.5 353t126 314.5t96 240.5 t52.5 136q27 -4 55.5 -5t71.5 -1q45 0 96 2t92 4l6 -55q-29 -2 -67.5 -6t-59.5 -6q-35 -2 -35 -41q-1 -19 -1 -56v-40q1 -68 1 -173q-1 -154 -1 -280.5t1 -226.5q2 -200 9 -275q4 -43 16 -53.5t41 -14.5l111 -12l-2 -53q-33 4 -99.5 5t-132.5 1q-47 0 -107.5 -2t-134.5 -4 l2 53q92 6 120 19.5t30 42.5q0 23 2 85t4 151t3 196.5t3 220t3 225.5t3 209h-2q-80 -207 -152.5 -392.5t-132 -340t-104.5 -272t-71 -187.5l-60 -16q-20 63 -52 152t-72 192.5t-84 217.5t-87 226.5t-83 218t-70 191.5h-2q0 -147 1 -291.5t3 -273.5t4 -239t6 -192 q0 -37 3 -60.5t12.5 -38.5t28.5 -23.5t52 -10.5l94 -10v-53q-49 0 -111.5 3t-125.5 3q-68 0 -123 -3t-90 -3z" />
<glyph unicode="N" horiz-adv-x="1253" d="M31 -6l2 55q23 0 52.5 3t51.5 7q35 6 46.5 29t17.5 62q4 31 8 124t8 227t7 301t3 347q-4 14 -7 25.5t-13 21.5q-8 10 -25.5 16.5t-48.5 10.5l-90 8v55q29 0 78 -3t88 -3t67.5 1t57.5 5q14 -25 37.5 -61.5t66.5 -106.5q20 -35 72.5 -116.5t127.5 -198.5t168 -263.5 t198 -308.5q1 160 1 285v117q-1 162 -3.5 266.5t-5.5 157.5t-5 73q-4 55 -22.5 72t-75.5 23l-96 6l10 55q59 0 118.5 -3t112.5 -3q57 0 112.5 3t88.5 3v-55q-35 -4 -57.5 -7t-44.5 -10q-23 -4 -33 -20t-14 -53q-4 -29 -7.5 -87.5t-6.5 -141.5t-5 -185t-2 -219v-514 q-37 -6 -82 -21q-63 106 -149 246.5t-180.5 292.5t-190.5 304.5t-180 283.5q0 -201 1 -366t2 -288.5t3 -202.5t6 -106q8 -37 23.5 -52t39.5 -19q23 -4 60 -8.5t67 -8.5l-2 -55q-41 0 -107.5 3t-141.5 3q-66 0 -117 -3t-90 -3z" />
<glyph unicode="O" horiz-adv-x="1228" d="M88 627q0 143 35 268t104.5 217t170 145.5t233.5 53.5h2q133 0 229 -56.5t157.5 -147.5t91.5 -207t30 -236q0 -184 -40 -315.5t-110.5 -215.5t-167 -124t-209.5 -40q-115 0 -211 41t-165.5 123t-109.5 205t-40 289zM254 645q0 -141 29.5 -260t70.5 -190q53 -92 122 -129 t153 -37q78 0 142.5 33.5t115.5 123.5q41 70 64.5 192t23.5 267q0 135 -23.5 249t-66.5 196q-45 80 -110.5 122.5t-158.5 42.5h-2q-172 0 -268 -165q-41 -72 -66.5 -187t-25.5 -258z" />
<glyph unicode="P" horiz-adv-x="1005" d="M35 -6l4 53l84 8q47 4 63.5 16.5t18.5 59.5q4 63 7 159.5t3 198.5v410q0 121 -1 178.5t-1 89.5q0 27 -9 38.5t-34 15.5l-123 12l12 53q29 0 83.5 -3t111.5 -3q45 0 108.5 3t153.5 3q68 0 118 -7t88 -20.5t64.5 -32t49.5 -38.5q49 -47 74.5 -120t25.5 -150 q0 -182 -98 -289q-51 -57 -123 -86t-154 -29q-39 0 -73.5 5t-57.5 13l6 56q39 -12 105 -13q47 0 93 20.5t79 70.5q29 39 46 101t17 140q0 145 -61 223q-39 53 -96.5 74t-137.5 21q-39 0 -61.5 -2t-34.5 -6.5t-16 -10.5t-4 -14q-4 -47 -6.5 -127t-2.5 -203v-258v-248 q0 -88 2 -145t4 -92q4 -33 15.5 -43t50.5 -15l123 -14l-2 -53q-61 0 -137 3t-140 3q-59 0 -120.5 -3t-116.5 -3z" />
<glyph unicode="Q" horiz-adv-x="1228" d="M88 618q0 145 36 272.5t104.5 220.5t170 146.5t234.5 53.5q123 0 217 -48.5t158.5 -134.5t98.5 -204.5t34 -259.5q0 -182 -39 -307.5t-100.5 -205t-136 -120.5t-146.5 -54v-6q41 -20 100.5 -48.5t112.5 -51.5q59 -25 113.5 -41t105.5 -18q23 -4 51.5 -1t46.5 7v-47 q-35 -25 -91 -44.5t-120 -19.5q-82 0 -170 51.5t-190 130.5q-53 41 -94 61.5t-86 31.5q-68 12 -140.5 52t-133 114.5t-98.5 190.5t-38 279zM254 637q0 -135 27.5 -252t70.5 -188q96 -170 279 -170q74 0 138.5 33.5t111.5 113.5q43 70 68.5 189.5t25.5 285.5q0 135 -23.5 248 t-62.5 184q-92 174 -275 174h-2q-80 0 -151.5 -43t-120.5 -137q-35 -68 -60.5 -177.5t-25.5 -260.5z" />
<glyph unicode="R" horiz-adv-x="1081" d="M45 1233l10 53q33 0 92.5 -3t118.5 -3q66 0 123 3t129 3q129 0 198.5 -21.5t110.5 -60.5q45 -41 62.5 -99t17.5 -116q0 -80 -25.5 -136t-68.5 -95t-98.5 -63.5t-116.5 -37.5v-6q57 -8 109.5 -27.5t93.5 -55.5t68.5 -87t35.5 -123q4 -43 9.5 -88t9.5 -84 q8 -78 33.5 -111.5t76.5 -33.5q10 0 29.5 3t26.5 7l-7 -55q-16 -6 -50 -11t-62 -5q-98 0 -149.5 49t-61.5 176q-2 37 -5 75.5t-7 86.5q-8 76 -32 125t-65 77.5t-99 40t-138 11.5h-62v-211v-102.5t1 -76t2 -59.5t3 -51q2 -20 8.5 -32.5t23 -20t49 -11.5t85.5 -8l-6 -55 q-51 0 -118.5 3t-116.5 3q-59 0 -115.5 -3t-116.5 -3v55q45 2 75 6t47 10.5t24.5 16.5t9.5 27q2 18 3 44.5t2 64.5t1 92.5v131.5v432q0 133 -1 200t-3 102q-2 23 -10.5 33t-36.5 12zM352 678h62q166 0 251 67.5t85 227.5q0 45 -11.5 90t-29.5 74q-23 37 -71 63.5t-146 26.5 q-31 0 -60 -3t-45 -7q-20 -6 -27 -33q-2 -18 -5 -77.5t-3 -184.5v-244z" />
<glyph unicode="S" horiz-adv-x="888" d="M80 51q4 41 7 86t4 89t2 86t1 75l51 12q-1 -23 -1 -44q0 -163 67 -239q76 -86 215 -85q49 0 95 14t80 46t54.5 80t20.5 116q0 139 -113 211q-23 14 -57.5 34.5t-72.5 43t-78 45t-70 41.5q-98 59 -138.5 137t-40.5 174q0 74 26 136t72 107.5t111.5 70t145.5 24.5 t141.5 -22.5t91.5 -53.5l31 84l49 -12q-10 -53 -16 -108.5t-10.5 -106t-5.5 -90t-1 -62.5l-53 -4v17q0 75 -16 129q-18 60 -51 98.5t-77 55.5t-95 17q-96 0 -154.5 -63.5t-58.5 -179.5q0 -66 30.5 -123.5t108.5 -108.5q106 -63 180 -104t125 -80q66 -41 100.5 -102.5 t34.5 -153.5q0 -90 -31.5 -158.5t-88 -115t-133.5 -71t-165 -24.5q-92 0 -177 27t-140 55z" />
<glyph unicode="T" horiz-adv-x="1101" d="M35 946q6 33 12 79t12.5 95t10.5 96.5t6 81.5q37 -10 128 -14t271 -4h137q113 0 184.5 1t118 2t74 5t49.5 10q-2 -12 -5 -50t-6 -88t-5 -104q-1 -27 -1 -51.5t1 -46.5l-53 -18q-6 76 -12.5 130t-14.5 83q-6 20 -17.5 34.5t-44 23t-94.5 11.5q-38 2 -92 2q-36 0 -78 -1 q0 -41 -1 -121t-1 -164v-432q0 -162 2 -255t7 -130q4 -29 13 -42t38 -18q47 -4 76.5 -7t74.5 -5l-4 -55q-47 0 -129 3t-168 3q-57 0 -123.5 -3t-136.5 -3l-6 55q31 0 65.5 3t82.5 9q29 4 43 15.5t16 40.5q2 27 4 59.5t3 78.5t1 108.5v146.5v410q0 104 1 182v30q0 57 -3 91 q-106 0 -166.5 -3t-94.5 -13.5t-47 -29t-24 -49.5q-16 -47 -28.5 -94t-26.5 -104z" />
<glyph unicode="U" horiz-adv-x="1247" d="M41 1231v57q57 -2 115.5 -5t107.5 -3q41 0 105.5 3t124.5 5l2 -55l-111 -12q-39 -4 -41 -52q-4 -53 -7 -153.5t-3 -216t2 -231t6 -201.5q4 -90 23.5 -136.5t50.5 -80.5q39 -47 106.5 -73t139.5 -26h2q68 0 125 14.5t100 54.5t68.5 110.5t31.5 181.5q6 100 7 208.5t1 208 t-3 180.5t-5 128q-4 59 -25.5 70.5t-58.5 15.5l-94 8l-6 57q49 -2 104.5 -5t98.5 -3q49 0 103 3t108 5l10 -57l-72 -6q-41 -4 -56.5 -19.5t-17.5 -50.5q-4 -121 -7 -239.5t-5 -227t-6 -200t-10 -154.5q-12 -104 -46 -168t-96 -113q-53 -41 -125.5 -62.5t-171.5 -21.5 q-104 0 -194 30t-146 97q-23 27 -38 55.5t-24 67.5t-14 92.5t-5 126.5v97.5v135v151.5t-1 147.5t-2.5 119t-1.5 70.5q-2 35 -9 47.5t-31 16.5z" />
<glyph unicode="V" horiz-adv-x="1167" d="M-23 1286q33 0 94.5 -3t121.5 -3q49 0 111.5 2t117.5 4l10 -55l-106 -10q-25 -4 -31 -13.5t0 -31.5q8 -35 42 -141.5t81 -251t100 -307.5t103 -308q55 156 109 309.5t100.5 286.5t79 238.5t46.5 166.5q1 8 1 14q0 30 -29 36q-29 4 -56.5 6t-56.5 6l-10 55q29 -2 79 -4 t115 -2q47 0 102.5 2t108.5 4l13 -55q-45 -2 -75 -6t-49.5 -16.5t-34.5 -34t-30 -58.5q-33 -80 -82 -211t-104 -287.5t-112.5 -324.5t-108.5 -320q-23 4 -50.5 4t-44.5 -4q-35 117 -73.5 242t-77.5 246t-77 233.5t-69.5 204.5t-56 158.5t-37.5 95.5q-10 25 -22.5 40 t-29.5 23.5t-43 11.5t-64 3z" />
<glyph unicode="W" horiz-adv-x="1730" d="M-10 1231v55q29 -2 80 -4t131 -2q53 0 109.5 3t109.5 3l12 -55l-102 -10q-39 -6 -27 -45q31 -123 67 -261.5t71.5 -272.5t68.5 -255t55 -207q51 186 99.5 367.5t87.5 332t65.5 257t32.5 143.5q23 -2 54.5 -2t49.5 4q6 -31 32 -131t66 -248.5t91 -337t108 -395.5 q53 176 98.5 335t81 287t59 219t32.5 134q8 43 1 56t-44 18l-111 12v55q41 0 91 -3t114 -3q74 2 113.5 4t85.5 2v-55q-43 -4 -71 -9t-44.5 -17.5t-28.5 -35t-24 -59.5q-39 -117 -82 -255t-88 -286.5t-89.5 -300t-84.5 -295.5q-20 2 -48 2t-51 -2q-20 86 -53 207t-72 263.5 t-83 301t-87 320.5q-57 -217 -100 -376t-77 -283.5t-60.5 -227t-53.5 -205.5q-23 4 -48 3t-48 -3q-18 76 -44.5 175.5t-55.5 209t-60.5 221t-60.5 213t-53.5 185.5t-40.5 137q-12 37 -24.5 59.5t-31 35t-46 17.5t-72.5 5z" />
<glyph unicode="X" horiz-adv-x="1112" d="M-25 49q37 2 65 7t49.5 15.5t41 27t37.5 42.5q18 25 54 81.5t81 128t95.5 151.5t95.5 155q-68 123 -115 212t-81 149.5t-54.5 95.5t-32.5 53q-25 35 -59.5 47.5t-116.5 16.5l-4 55q18 0 44.5 -1t57.5 -2t61.5 -2t57.5 -1q47 0 105.5 3t121.5 3l8 -55l-96 -12 q-20 -4 -25.5 -11.5t3.5 -25.5q12 -25 28.5 -55.5t41 -76.5t59 -113t88.5 -161q92 147 146 238.5t83 148.5q16 33 9 43.5t-40 14.5l-90 10l11 55q55 0 107 -3t85 -3q61 0 112.5 2t98.5 4l8 -55q-53 -4 -87 -9t-58.5 -16.5t-44 -32t-43.5 -53.5q-16 -23 -39 -54.5 t-53.5 -79.5t-72.5 -113.5t-97 -153.5q137 -260 217 -398.5t112 -189.5q23 -35 49.5 -53.5t73.5 -22.5l74 -6l2 -55q-31 2 -89.5 4t-129.5 2q-66 0 -127.5 -2t-116.5 -4l-4 55q84 8 102.5 18.5t6.5 34.5q-12 25 -29 55.5t-44.5 83t-72.5 137.5t-117 220 q-80 -137 -148.5 -256t-98.5 -186q-18 -36 -18 -57q0 -8 2 -14q9 -22 59 -28l86 -8l10 -55q-35 0 -89.5 3t-125.5 3q-72 0 -117 -2t-104 -4z" />
<glyph unicode="Y" horiz-adv-x="1026" d="M-33 1233l2 53q25 0 81 -3t114 -3q66 0 125 3t106 3l6 -53l-84 -10q-23 -2 -25.5 -10.5t5.5 -24.5q18 -41 51 -106.5t72 -139.5t77 -148.5t68 -134.5q100 190 161.5 312.5t90.5 193.5q12 29 10 40.5t-24 15.5q-25 4 -48.5 6t-56.5 4l7 55q35 0 91 -3t99 -3q37 0 85 3 t97 3l4 -55q-41 -2 -68.5 -6t-47 -15.5t-37 -30t-35.5 -49.5q-27 -43 -62.5 -104t-72.5 -130t-73 -136.5t-62 -118.5q-25 -55 -25 -102v-105.5v-122t2 -118t4 -89.5q2 -20 11.5 -28t37.5 -13q20 -4 54 -7t81 -7l9 -55q-86 2 -156 4t-141 2q-63 0 -125 -3t-127 -3l-6 55 q33 4 68.5 7t66.5 7q35 4 50 17.5t17 48.5q2 27 4.5 76t3.5 105.5t2 112.5t1 99q0 35 -7.5 56.5t-17.5 48.5q-12 27 -45 90t-73 138t-81 149.5t-71 125.5q-20 33 -37 52.5t-37 31t-48 14.5t-71 5z" />
<glyph unicode="Z" horiz-adv-x="1095" d="M63 25q45 68 105.5 162t130.5 201.5t142.5 221t141 224t128 210t102.5 175.5h-266q-104 0 -168 -6.5t-99.5 -19.5t-51 -33.5t-25.5 -51.5q-14 -45 -24.5 -92t-24.5 -109l-50 17q8 43 14.5 93t9.5 100t3 95t-4 80q27 -6 55.5 -8t71.5 -4h276h27h264q53 0 95 1t83 3 q-14 -47 -22 -65.5t-19 -34.5q-41 -72 -115.5 -194t-199.5 -316q-72 -113 -128 -203t-102 -162.5t-83 -133t-68 -116.5q101 -1 182 -1h76q106 1 175 5.5t110 11.5t64.5 18t33.5 28.5t21 42.5q23 49 36 103.5t25 111.5l49 -14q-4 -55 -16 -153.5t-17 -223.5q-33 4 -77.5 6 t-98.5 4q-53 2 -110.5 2h-120.5h-350h-49.5t-39 -1l-37 -2t-42.5 -3z" />
<glyph unicode="[" horiz-adv-x="620" d="M190 -352q0 51 1.5 117.5t2.5 169t1 249v355.5v560t-5 320q16 -4 58.5 -5t92.5 -1t102.5 2t91.5 4l-9 -59q-53 -2 -103 -6t-69 -8q-27 -6 -32 -39q-4 -29 -8.5 -79t-6.5 -139.5t-3 -223.5t-1 -326q0 -186 1 -323.5t3 -232t4 -149.5t6 -80q2 -33 58 -33l160 -4l-13 -61 q-104 4 -194 3t-138 -11z" />
<glyph unicode="\" horiz-adv-x="708" d="M84 1382l82 41q8 -35 32.5 -125t58.5 -206.5t73 -248.5t76 -253q27 -96 56.5 -202.5t58 -208t55 -191.5t47.5 -152l-86 -37q-18 68 -43 162t-53.5 200.5t-60.5 219.5t-63 219q-35 119 -71.5 247t-70.5 239.5t-58.5 192.5t-32.5 103z" />
<glyph unicode="]" horiz-adv-x="620" d="M88 -348l8 61q53 2 103.5 6.5t68.5 8.5q29 2 35 39q4 27 7 77t4 139t2 222t1 327q0 186 -1 323.5t-2 232t-4 150.5t-5 81q-2 29 -57 31l-160 4l12 61q104 -4 194.5 -3t137.5 11q0 -51 -1 -117.5t-2 -169t-2 -249t-1 -355.5q0 -332 1 -559t5 -321q-16 4 -58 5t-92.5 1 t-102.5 -2t-91 -4z" />
<glyph unicode="^" horiz-adv-x="948" d="M104 625l318 675h102l318 -675h-109l-262 557l-254 -557h-113z" />
<glyph unicode="_" horiz-adv-x="1024" d="M0 -227h1024v-119h-1024v119z" />
<glyph unicode="`" horiz-adv-x="933" d="M250 1331q2 35 20.5 52.5t38.5 17.5q23 0 48.5 -17.5t39.5 -50.5q10 -23 31 -64.5t43.5 -87.5t43 -88t30.5 -63l-41 -29q-35 39 -69 77t-63.5 71t-51 55.5t-29.5 32.5q-18 18 -29.5 46t-11.5 48z" />
<glyph unicode="a" horiz-adv-x="880" d="M80 215q0 55 22.5 104.5t81.5 77.5q49 23 106.5 46.5t113 47t101.5 46t73 45.5v96q0 33 -8.5 62.5t-28 53t-50 38t-73.5 14.5q-92 0 -133 -41t-41 -100q0 -16 2 -33t6 -27t-1 -20.5t-11 -14.5q-10 -8 -22.5 -13t-29.5 -5q-29 0 -49 19.5t-20 64.5q0 37 23.5 77t65.5 73.5 t102.5 55t133.5 21.5q51 0 91 -10t68 -25.5t45.5 -34t27.5 -32.5q12 -20 20.5 -50t8.5 -59v-538q0 -61 15 -79t36 -18q51 0 78 117l47 -18q-18 -102 -65.5 -143.5t-106.5 -41.5q-70 0 -97.5 41t-33.5 105q-61 -70 -132 -108t-139 -38q-109 0 -168 70t-59 174zM227 236 q0 -72 37 -123.5t105 -51.5q74 0 121 38t77 106q6 16 8.5 38.5t2.5 39.5v237q-43 -27 -115 -60.5t-133 -68.5q-45 -25 -74 -55.5t-29 -97.5v-2z" />
<glyph unicode="b" horiz-adv-x="966" d="M12 1307l4 53q37 0 77 2t77 5t67.5 7t47.5 8q0 -61 -4.5 -162.5t-4.5 -261.5v-206q78 72 149 111.5t148 39.5q90 0 149.5 -37t98.5 -96q35 -53 52.5 -128t17.5 -161q0 -113 -25.5 -206t-78 -160.5t-130 -104.5t-184.5 -37q-68 0 -128 17.5t-93 42.5q-14 -10 -41 -26.5 t-49 -31.5l-17 9q0 23 1 74t1 119.5t1.5 153.5t1.5 175v491q0 68 -1.5 115t-2.5 79t-2 51.5t-1 35.5q-2 18 -25.5 23.5t-105.5 5.5zM274 412q0 -88 2.5 -138.5t6.5 -77t9 -38t11 -23.5q27 -53 75 -78.5t103 -25.5h2q76 0 126 39t80 100t42 139t12 158t-15 147.5t-48 114.5 q-29 43 -68 65.5t-94 22.5q-74 0 -132 -42t-89 -89q-6 -10 -10 -21.5t-7.5 -39t-4.5 -77.5t-1 -136z" />
<glyph unicode="c" horiz-adv-x="833" d="M76 424q0 94 27.5 180t82 152.5t132 106.5t176.5 40q123 0 198.5 -57.5t75.5 -149.5q0 -45 -21.5 -70.5t-60.5 -25.5q-25 0 -39 14q-6 6 -11 16.5t-1 20.5q2 12 5 28.5t3 29.5q0 63 -36 101t-124 38q-63 0 -111 -33t-81 -88t-49.5 -129t-16.5 -156q0 -86 16.5 -154.5 t45.5 -117.5q74 -115 202 -115q96 0 151.5 48.5t92.5 150.5l47 -25q-33 -115 -114.5 -186.5t-216.5 -71.5q-96 0 -164 32t-117 95q-41 53 -66.5 134t-25.5 192z" />
<glyph unicode="d" horiz-adv-x="985" d="M76 408q0 98 26.5 187t80 157.5t133 109.5t184.5 41q68 0 116 -16.5t74 -38.5v164.5t-1 118t-2 82t-3 57.5q0 14 -5 22t-20.5 11.5t-44 3.5t-77.5 -2l8 51q27 2 65.5 5t78.5 6t77 7t61 8q-4 -55 -7 -167.5t-3 -266.5v-526v-132t1 -91t3 -61.5t4 -43.5q4 -25 14.5 -33 t32.5 -8l95 2l-13 -55q-23 0 -59.5 -2t-76.5 -6t-75.5 -10.5t-56.5 -12.5q0 29 2 71q1 21 1 38.5t-1 32.5h-4q-68 -68 -133.5 -104t-140.5 -36q-88 0 -151.5 37t-102.5 94q-41 59 -60.5 138t-19.5 168zM221 438q0 -78 16.5 -154.5t51.5 -125.5t81 -73t95 -24q59 0 111.5 27 t91.5 96q6 12 10 27.5t7 51.5t4 101.5t1 176.5q0 59 -1 94t-2 54.5t-4 28.5t-7 17q-20 39 -61.5 74t-125.5 35q-68 0 -119 -33t-83.5 -88t-49 -128t-16.5 -155v-2z" />
<glyph unicode="e" horiz-adv-x="827" d="M76 416q0 92 23.5 180t70.5 155.5t118.5 109.5t168.5 42q94 0 153.5 -37t93 -90t46 -113.5t12.5 -105.5q0 -29 -9.5 -52.5t-35.5 -33.5q-29 -10 -102.5 -15t-163.5 -7h-232q-1 -15 -1 -30q0 -80 18 -146q22 -78 51 -121q70 -96 188 -97q90 0 143.5 43t92.5 142l49 -27 q-41 -121 -122 -181.5t-198 -60.5q-106 0 -172.5 36t-111.5 102q-39 53 -59.5 136t-20.5 171zM223 510h174q72 0 116 4t69 8q43 6 43 70q0 41 -8.5 86t-30 82t-57 61.5t-89.5 24.5h-2q-55 0 -95 -33t-65.5 -83t-39 -109.5t-15.5 -110.5z" />
<glyph unicode="f" horiz-adv-x="522" d="M51 -6l2 55q41 2 65.5 5t38 9.5t18.5 14.5t7 20q4 35 6 119t2 207v377l-133 12l2 59h131l3 72q4 117 25.5 204t78.5 148q39 41 88 65.5t111 24.5q94 0 138 -46t44 -97q0 -37 -22.5 -57.5t-53.5 -20.5q-39 0 -39 41v8q0 40 -19 75q-22 38 -81 38q-55 0 -86 -49t-43 -127 q-15 -85 -15 -257v-22h203l-10 -59l-193 -12q-2 -59 -2 -155.5v-248.5q0 -111 1 -185.5t4 -102.5q0 -25 11 -34t34 -14q23 -4 54.5 -7t59.5 -5l-4 -55q-41 0 -101.5 3t-119.5 3q-55 0 -109.5 -3t-95.5 -3z" />
<glyph unicode="g" horiz-adv-x="864" d="M45 -264q0 82 68 137q23 18 58.5 41t76.5 39l24 -37q-47 -18 -78.5 -53t-31.5 -99q0 -47 22.5 -81.5t59.5 -59t84 -37t98 -12.5q80 0 139.5 20.5t99.5 55.5t60 82t20 102q0 66 -38.5 103.5t-102.5 39.5h-88h-86t-74.5 1.5t-54.5 1.5q-51 2 -97 14t-77 43q-23 23 -37 52.5 t-14 68.5q0 66 39 109.5t86 72.5q-47 47 -64.5 107.5t-17.5 119.5q0 78 24.5 140.5t68.5 105.5t103.5 66.5t126.5 23.5q76 0 120 -20.5t61 -32.5q53 41 92 61.5t80 20.5q37 0 57 -18.5t20 -34.5q-2 -27 -21.5 -46.5t-39.5 -29.5q-14 12 -32.5 21.5t-49.5 9.5q-39 0 -70 -17 q41 -47 59.5 -109.5t18.5 -121.5q0 -76 -24.5 -136.5t-67.5 -103.5t-101.5 -65.5t-125.5 -22.5q-63 0 -107.5 14.5t-68.5 30.5q-35 -14 -58.5 -40.5t-23.5 -67.5q0 -43 36.5 -64.5t82.5 -21.5q74 0 158.5 1t189.5 1q88 0 149 -50q39 -33 58.5 -81t19.5 -99q0 -92 -41 -162.5 t-107.5 -119t-151.5 -73t-173 -24.5q-152 0 -244 62.5t-92 171.5zM256 578q0 -43 8 -90.5t28.5 -85t52.5 -63.5t81 -26t81 23.5t52.5 60.5t28.5 84t8 97q0 47 -7 95t-25.5 86t-51.5 62.5t-86 24.5h-2q-45 0 -77 -22.5t-52.5 -60.5t-29.5 -86t-9 -99z" />
<glyph unicode="h" horiz-adv-x="997" d="M41 -6v55q72 4 94.5 13.5t24.5 37.5q2 27 4 52.5t3 57.5t1 77v112v596v108.5t-1 79.5t-2 57.5t-3 43.5q-2 18 -23.5 24.5t-97.5 6.5v49q33 0 72 2t75.5 5t67.5 6t47 5q-4 -59 -6 -156.5t-2 -232.5v-248q27 29 60.5 57.5t72.5 51.5t83 36t93 13q47 0 81 -11t56.5 -26.5 t37 -33t22.5 -29.5q16 -31 23 -71t7 -93v-139.5v-145t1.5 -137t1.5 -117.5q0 -16 3 -25t15 -14.5t37.5 -7.5t71.5 -4l-7 -55q-37 0 -86 3t-106 3q-59 0 -105.5 -3t-81.5 -3v55q37 2 60.5 5t36 8.5t17.5 14.5t7 23q2 29 5.5 109t3.5 207q0 94 -1.5 150.5t-3.5 88t-6 46 t-8 26.5q-14 37 -48 62.5t-93 25.5q-70 0 -128.5 -30.5t-99.5 -102.5q-16 -25 -19 -47.5t-3 -52.5v-252q0 -76 1 -132.5t3 -91.5q0 -35 22.5 -45t94.5 -12v-55q-37 2 -95.5 4t-105.5 2t-92 -2t-82 -4z" />
<glyph unicode="i" horiz-adv-x="483" d="M43 -6l2 55q45 2 71.5 5t40 9.5t18.5 15.5t5 23q2 29 5 92.5t3 161.5v230q0 86 -2 134t-4 73q-2 18 -26 22q-16 3 -59 3q-22 0 -50 -1l4 51q59 4 136 10.5t135 22.5q0 -35 -3.5 -117t-3.5 -186v-244q0 -98 2 -158.5t5 -95.5q2 -31 25.5 -39t98.5 -12l-4 -55q-41 0 -92 3 t-110 3q-63 0 -109.5 -3t-87.5 -3zM150 1186q0 41 25.5 67.5t64.5 26.5h2q41 0 61.5 -25.5t20.5 -66.5t-28 -64.5t-67 -23.5q-31 0 -55 22.5t-24 63.5z" />
<glyph unicode="j" horiz-adv-x="464" d="M-76 -432l8 18q12 -2 24.5 -3t29.5 -1q35 0 66.5 11.5t57 41t42 78.5t22.5 125q2 39 5 88t5 118t3 164t1 228q0 78 -1 135.5t-2 99.5t-3 70.5t-2 49.5q-2 16 -9 23t-30 7h-108l4 51q68 4 146.5 11.5t129.5 17.5l4 -6v-109.5t-1 -131t-1 -176v-242.5q0 -115 -2 -188 t-6 -132q-8 -90 -36.5 -165t-73.5 -124q-53 -59 -112.5 -86.5t-88.5 -27.5q-27 0 -43 16q-8 10 -16.5 19.5t-12.5 19.5zM145 1186q0 41 26 67.5t65 26.5h2q41 0 60 -24.5t19 -65.5q0 -43 -27.5 -66.5t-62.5 -23.5q-31 0 -56.5 22.5t-25.5 63.5z" />
<glyph unicode="k" horiz-adv-x="915" d="M27 -6l2 55q82 4 104.5 14.5t24.5 36.5q4 27 7 117t3 203v559q0 127 -1 193.5t-3 105.5q-2 12 -9.5 19.5t-35.5 7.5l-78 2l-2 53q86 0 154.5 7t109.5 13q0 -31 -2 -75.5t-3 -99t-2 -114t-1 -118.5v-479q35 6 79 39.5t87 78.5t78.5 92.5t58.5 77.5q23 29 -10 33l-84 8v51 q31 -1 64 -1q57 1 118 3q96 4 191 7v-52q-39 -4 -67 -9t-50.5 -12t-41 -18.5t-36.5 -29.5t-47 -46t-61.5 -60.5t-65.5 -66.5t-62 -65q37 -57 87.5 -124.5t99.5 -130t90 -110.5t61 -69q23 -23 44.5 -32t56.5 -9h65l-2 -53q-59 0 -132 -5t-126 -16q-31 47 -80 116t-99 136.5 t-92 121.5t-57 75q-16 23 -30.5 25t-36.5 -5v-182t4 -166q2 -29 25.5 -36t101.5 -11l-6 -55q-51 0 -101.5 3t-109.5 3q-72 0 -112 -3t-70 -3z" />
<glyph unicode="l" horiz-adv-x="462" d="M27 -6v55q43 0 67.5 4t38.5 10.5t19.5 15.5t5.5 23q2 29 6 130.5t4 232.5v514v114t-1 78.5t-2 56t-1 48.5q0 8 -5 14t-19.5 10.5t-41 5.5t-71.5 1l2 53q98 0 165.5 7t108.5 15q-2 -55 -5 -160.5t-3 -242.5v-518v-146.5t1 -101.5t2 -67.5t1 -45.5q4 -31 30.5 -39 t104.5 -12l-6 -55q-51 0 -108.5 3t-112.5 3q-63 0 -105.5 -3t-74.5 -3z" />
<glyph unicode="m" horiz-adv-x="1540" d="M57 811l4 51q59 2 125 9.5t123 21.5q2 -12 3 -34.5t3 -46.5t3 -45.5t1 -29.5q27 29 60 58.5t70.5 53t80.5 39t91 15.5q78 0 119.5 -26.5t60.5 -55.5q14 -18 22 -39.5t13 -40.5q25 25 54.5 53.5t67 52t83.5 40t100 16.5q88 0 135 -37t67 -73q14 -29 20.5 -63t6.5 -66v-562 q0 -16 3 -25t17.5 -14.5t41 -8.5t73.5 -5l-6 -55q-43 0 -94 3t-111 3q-53 0 -98 -3t-82 -3l2 55q72 4 93.5 14.5t25.5 36.5q4 37 6 110t2 189q0 98 -1 156.5t-2 90.5t-4 47.5t-7 27.5q-16 41 -52 66.5t-94 25.5q-74 0 -132 -40t-87 -95q-12 -23 -16 -44.5t-4 -45.5v-287 q0 -57 1 -110.5t5 -86.5q0 -16 5 -26t19.5 -16.5t39 -8.5t65.5 -4l-10 -55q-39 2 -93.5 4t-105.5 2q-47 0 -92 -3t-86 -3v55q37 2 59.5 5t34.5 9.5t17.5 17.5t7.5 30q2 45 4 97t2 150v160q0 57 -1 91t-2 55.5t-4 35t-8 25.5q-16 45 -48.5 66.5t-90.5 21.5q-72 0 -131 -41 t-94 -110q-10 -23 -15.5 -42.5t-5.5 -48.5v-280q0 -123 7 -187q0 -16 5 -26t18 -16.5t37 -9.5t65 -5l-9 -53q-39 0 -97 3t-101 3q-39 0 -87.5 -3t-91.5 -3v55q74 2 96.5 12.5t24.5 49.5q6 70 6 241v168q0 174 -6 258q0 23 -22 29q-17 5 -68 5q-17 0 -37 -1z" />
<glyph unicode="n" horiz-adv-x="1019" d="M61 -6v55q37 2 60.5 4t37 8.5t18.5 18.5t7 31q4 47 5 103t1 116v190q0 86 -1 151.5t-3 106.5q-2 23 -22 29q-15 5 -66 5q-17 0 -37 -1l5 51q57 2 122.5 9.5t118.5 21.5q2 -14 4 -34.5t4 -42t3 -40t1 -28.5q27 27 57 54t66.5 49.5t78.5 37t93 14.5q92 0 142.5 -37 t72.5 -84q23 -51 23 -123v-557q0 -16 4 -26t17.5 -15.5t40 -7.5t71.5 -4l-6 -55q-41 0 -91 3t-112 3q-55 0 -100 -3t-82 -3l4 55q72 4 93.5 13.5t23.5 37.5q4 33 7 109t3 192q0 100 -1 157.5t-3 90.5t-5 47.5t-9 28.5q-18 41 -52 64.5t-92 23.5q-78 0 -134 -37t-91 -100 q-12 -23 -16.5 -47.5t-4.5 -57.5v-256v-119.5t5 -89.5q2 -35 24.5 -45t99.5 -12l-4 -55q-37 0 -97 3t-105 3q-47 0 -92.5 -3t-86.5 -3z" />
<glyph unicode="o" horiz-adv-x="942" d="M76 432q0 92 25.5 177t76.5 150.5t127 104.5t176 39h2q98 0 170 -37t119 -100.5t70.5 -145t23.5 -174.5q0 -104 -25.5 -191t-75.5 -150.5t-125 -98.5t-171 -35q-102 0 -177 37t-123 99.5t-70.5 146.5t-22.5 178zM227 457q0 -88 16.5 -168t43.5 -131q72 -129 196 -129 q59 0 104.5 27.5t76.5 88.5q23 45 37 118t14 165t-15.5 169t-42.5 126q-29 53 -74.5 88t-113.5 35h-2q-61 0 -104.5 -27.5t-73.5 -77.5q-29 -49 -45.5 -121.5t-16.5 -162.5z" />
<glyph unicode="p" horiz-adv-x="980" d="M0 -469l12 53q45 2 73 6t43 10.5t21.5 15.5t6.5 24q2 47 7 138t5 261v475q0 117 -2 179.5t-4 94.5q0 10 -5 17.5t-19.5 10.5t-41 2t-69.5 -5l12 51q59 6 123.5 14.5t124.5 20.5q2 -35 3 -81t5 -79q78 78 149.5 121t151.5 43q76 0 131 -30.5t94 -81.5q37 -53 60.5 -130 t23.5 -182q0 -109 -25.5 -201t-76.5 -160.5t-128 -107.5t-179 -39q-57 0 -112.5 17.5t-90.5 48.5q0 -129 -1 -219v-25q0 -76 5 -143q2 -18 7 -28.5t22.5 -16.5t48.5 -9.5t82 -5.5l-11 -53q-43 0 -97 2t-126 2q-70 0 -123 -3t-100 -7zM293 272q0 -39 2 -79q2 -16 7 -31 t13 -29q31 -49 80 -74.5t103 -25.5h2q74 0 124 35.5t80.5 95t44 135.5t13.5 158q0 72 -15.5 145.5t-46.5 120.5q-29 41 -65.5 65.5t-93.5 24.5q-74 0 -132.5 -42t-93.5 -101q-10 -16 -15 -34t-5 -46q0 -76 -1 -131.5t-1 -101.5v-85z" />
<glyph unicode="q" horiz-adv-x="966" d="M76 408q0 100 27.5 190t81 157.5t134 107.5t187.5 40q70 0 121 -16.5t86 -38.5l88 43h24q-4 -86 -6 -196.5t-2 -258.5v-440q0 -141 4 -234.5t8 -132.5q0 -8 5.5 -14t20.5 -9t43 -5t73 -4l-8 -56q-117 0 -235 -4t-228 -10l6 53q57 4 91 9t52.5 11.5t24.5 15.5t6 22 q4 35 6 96t2 184v178q-70 -68 -138.5 -96.5t-133.5 -28.5q-72 0 -132.5 27t-101.5 72q-47 53 -76.5 140t-29.5 198zM221 442q0 -86 18.5 -161.5t53.5 -122.5q35 -53 84 -76t102 -23q78 0 121 32t72 73q4 6 8 16t6 29.5t3 55.5t1 95v135.5t-1 93.5t-2 62.5t-3 40.5 q-2 35 -20 68q-27 41 -72 63.5t-96 22.5h-2q-74 0 -126.5 -37t-84 -95.5t-47 -130t-15.5 -141.5z" />
<glyph unicode="r" horiz-adv-x="675" d="M51 -6l6 55q39 2 62.5 5t36 8.5t17.5 14.5t7 23q4 31 7 95.5t3 156.5v178q0 98 -5 163t-9 89q-6 29 -39 31h-84l4 51q53 4 119 11.5t113 23.5l6 -6q2 -23 5 -49.5t5 -53t3 -48t1 -33.5h4q16 35 39 69.5t50.5 62t63.5 45t79 17.5q57 0 83.5 -34.5t26.5 -69.5 q0 -51 -26.5 -71.5t-46.5 -20.5q-39 0 -47 24q-10 31 -22.5 48.5t-49.5 17.5q-23 0 -42.5 -16.5t-35.5 -42t-30.5 -59.5t-22.5 -67q-14 -51 -15 -108v-164v-113t1 -73.5t4 -47.5q0 -16 5 -26t21.5 -16.5t48 -9.5t86.5 -5l-8 -55q-43 0 -104.5 3t-120.5 3q-55 0 -103.5 -3 t-95.5 -3z" />
<glyph unicode="s" horiz-adv-x="745" d="M92 31q0 16 1 49t1 73v81.5t-2 76.5l49 13q4 -31 10.5 -77t20.5 -81q25 -72 77 -102.5t122 -30.5q84 0 130 42t46 120q0 37 -15.5 67.5t-54.5 52.5q-25 14 -55.5 29.5t-62 32t-61.5 32t-54 27.5q-61 31 -99.5 81t-38.5 130q0 117 78 186.5t199 69.5q55 0 102 -17.5 t70 -33.5l20 68l52 -15q-9 -71 -11 -151q0 -14 -1 -28q0 -64 6 -122l-52 -12q-8 117 -61 185.5t-139 68.5q-68 0 -109 -41t-41 -115q0 -47 20.5 -76.5t55.5 -50.5q45 -25 114.5 -56.5t125.5 -60.5q74 -35 105.5 -87t31.5 -117q0 -68 -28 -118t-74 -84t-104 -50.5t-120 -16.5 q-78 0 -147.5 20.5t-106.5 37.5z" />
<glyph unicode="t" horiz-adv-x="632" d="M35 813l8 59h135v215q37 23 71 48.5t52 42.5l16 -7q-4 -39 -7 -124.5t-3 -174.5h279l-11 -59l-272 -12q0 -53 -2 -124t-2 -194q0 -156 2 -236.5t10 -121.5q6 -35 31 -57.5t66 -22.5q66 0 105.5 43t59.5 125h25l18 -68q-80 -174 -256 -174q-63 0 -102 18.5t-59 47.5 q-16 23 -23.5 51.5t-7.5 73.5q0 68 1 153.5t2 174t2 170t1 141.5z" />
<glyph unicode="u" horiz-adv-x="997" d="M35 827l8 52q41 0 84 1t80 5q72 6 102 12q-6 -41 -9 -137t-5 -268q-1 -74 -1 -133t1 -103q2 -90 10 -125t34 -55.5t75 -20.5q84 0 155.5 53.5t110.5 145.5q14 35 18 61.5t4 59.5v205q0 152 -6 213q-2 10 -7 17t-19.5 10t-40 4t-68.5 1l-2 54q45 0 92 1t82 3t61.5 4 t43.5 4q-4 -49 -6.5 -128t-2.5 -175v-256q0 -109 2.5 -166t6.5 -86q0 -12 5 -18.5t18 -10.5t41 -4h75l-4 -47q-31 -2 -69 -5t-73 -7t-67.5 -7.5t-58.5 -9.5q-1 37 -3 91q-1 23 -1 47q0 30 1 59q-23 -33 -57.5 -67.5t-78.5 -62.5t-97 -46.5t-111 -18.5q-74 0 -114.5 26 t-57.5 54q-14 23 -19 52.5t-5 64.5t1 88t2 112.5t2 122t1 117.5q0 76 -1 121t-3 66q-2 20 -24.5 25t-104.5 5z" />
<glyph unicode="v" horiz-adv-x="839" d="M-6 825v56q29 -2 76 -4.5t90 -2.5q47 0 101 3.5t97 3.5l7 -56l-74 -6q-29 -4 -34 -15t5 -40q23 -78 50.5 -162t55 -166t52 -153.5t41.5 -122.5q23 66 49.5 141.5t52 155.5t51 158.5t43.5 150.5q6 27 2 38t-26 11l-88 10l2 56q47 0 91 -3.5t85 -3.5q49 0 89 3.5t69 3.5 l-7 -56q-33 -4 -55 -8t-37.5 -15t-28 -31.5t-26.5 -53.5q-35 -86 -69.5 -180.5t-67.5 -189.5t-64.5 -187t-58.5 -176q-37 0 -78 -11q-31 94 -69.5 210t-76.5 226.5t-70 199.5t-48 132q-10 25 -19.5 40.5t-22.5 24.5t-34.5 13t-54.5 6z" />
<glyph unicode="w" horiz-adv-x="1327" d="M-2 825l2 56q27 -2 71 -4.5t103 -2.5q47 0 98.5 2.5t104.5 4.5l6 -56l-84 -8q-27 -2 -32 -13t1 -36q14 -55 36 -126t45.5 -148.5t49 -160.5t47.5 -163q20 63 50 158.5t61 197t58.5 195.5t48.5 156q23 -4 37 -3.5t36 5.5q14 -51 44 -143.5t65 -197t67.5 -205t55.5 -167.5 q31 100 58.5 192.5t49 169t36.5 136t24 96.5q6 29 -0.5 41t-32.5 16l-96 8l6 56q47 0 98 -3.5t98 -3.5q55 0 92 3.5t62 3.5l2 -54q-37 -4 -61.5 -9t-40 -16t-27.5 -31.5t-25 -53.5q-23 -53 -52.5 -141.5t-62 -190.5t-66.5 -207.5t-60 -195.5q-20 0 -39 -2.5t-37 -6.5 q-16 57 -43 137t-57.5 172.5t-64.5 190.5t-64 193q-61 -199 -121 -375t-103 -318q-16 4 -35.5 6.5t-37.5 2.5q-23 80 -55.5 193.5t-67.5 226t-67 209t-48 141.5q-8 23 -17.5 36t-23.5 21t-36.5 11t-55.5 5z" />
<glyph unicode="x" horiz-adv-x="872" d="M-12 -6l2 55q33 2 56.5 6t43 14.5t36.5 27t36 40.5q41 53 96 135t115 168q-57 100 -101.5 178t-81.5 132q-16 23 -29.5 37t-29.5 22t-39.5 11t-60.5 5l-4 56q29 -2 73.5 -4.5t98.5 -2.5q45 0 92 3.5t100 3.5v-56l-51 -4q-35 -6 -16 -33q27 -53 62.5 -116.5t70.5 -126.5 q53 86 91 145.5t54 93.5q10 20 4 26.5t-26 8.5l-60 6l4 56q41 0 82 -3.5t82 -3.5t86 3.5t74 3.5l-4 -56q-63 -4 -96 -15t-64 -44q-33 -41 -78 -104.5t-117 -172.5q76 -133 139.5 -238.5t92.5 -144.5q23 -33 53.5 -44t110.5 -13v-55q-25 0 -79 3t-116 3q-47 0 -99 -2t-93 -4 l-4 55l53 6q25 4 28 15.5t-6 25.5q-29 51 -71.5 129t-89.5 158q-41 -59 -68 -101t-45.5 -74t-30.5 -56.5t-22 -47.5q-8 -15 -8 -25q0 -19 28 -22l74 -8l-4 -55q-49 0 -100.5 3t-92.5 3q-49 0 -87 -3t-64 -3z" />
<glyph unicode="y" horiz-adv-x="833" d="M-10 825l6 56q35 -2 80 -4.5t98 -2.5q45 0 96.5 2.5t91.5 4.5l9 -56l-72 -8q-23 -4 -29 -13t2 -32q23 -74 52.5 -163t59.5 -174t54.5 -157.5t36.5 -113.5q20 63 47 146t50.5 166t43 157t29.5 121q8 39 -3 51t-48 16l-66 4l11 56q33 0 75.5 -3.5t81.5 -3.5t82 3.5t90 3.5 l-4 -56q-33 -2 -53 -7t-35.5 -16t-27 -30.5t-23.5 -50.5q-27 -72 -61.5 -176.5t-73.5 -223t-79 -244.5t-77 -239q-31 -98 -59.5 -162.5t-58 -101.5t-62.5 -52.5t-70 -15.5q-59 0 -90 34t-31 75q0 39 21.5 62.5t50.5 23.5q43 0 53 -39q16 -59 52 -59q27 0 52 45t47.5 105.5 t40 122t28.5 95.5q-10 16 -19.5 38t-15.5 44q-29 86 -65 190.5t-69.5 203t-62.5 178.5t-43 116q-20 47 -37.5 61.5t-58.5 18.5z" />
<glyph unicode="z" horiz-adv-x="835" d="M68 33q84 111 165.5 230.5t151.5 228t120 195.5t70 130q-66 0 -130 -1t-117 -5q-68 -4 -96.5 -19.5t-45.5 -64.5q-12 -35 -19 -68.5t-17 -68.5l-52 -10q6 53 14 137q7 68 7 141v35q27 -10 74 -14.5t124 -4.5h156q115 0 172 2.5t100 2.5q-4 -31 -17 -61t-32 -58 q-8 -12 -35.5 -56.5t-68.5 -108t-89 -138t-95.5 -148t-89.5 -141.5t-68 -113q131 0 212 4t122 9q27 4 48 14t39.5 35.5t33 70.5t28.5 117l51 -6q-6 -27 -11 -65.5t-9 -81.5l-8 -86t-6 -76q-31 2 -86.5 4t-122 4t-138 2h-133.5q-72 0 -112.5 -1t-69.5 -3z" />
<glyph unicode="{" horiz-adv-x="624" d="M59 555q86 2 135.5 39t47.5 131q0 39 -3 88t-6.5 99.5t-5.5 96.5t-2 78q0 104 33 175t81 112t100.5 56.5t92.5 13.5l-6 -60q-109 -12 -150.5 -62t-31.5 -177q8 -94 20.5 -172t10.5 -156q0 -59 -12.5 -104t-37 -79t-61.5 -59.5t-86 -46.5q49 -20 86 -45.5t61.5 -60.5 t37 -84t12.5 -117q0 -59 -6.5 -128.5t-12.5 -147.5q-6 -74 -3 -123t20.5 -81t54.5 -48.5t100 -20.5v-59q-41 -4 -93 9t-98 50t-79 100.5t-33 155.5q0 39 2 92.5t5.5 108.5t6.5 108.5t3 92.5q2 94 -43 131t-129 37z" />
<glyph unicode="|" horiz-adv-x="485" d="M186 -512v2048h115v-2048h-115z" />
<glyph unicode="}" horiz-adv-x="624" d="M92 -389l6 59q113 12 154 63.5t31 178.5q-8 94 -20.5 171t-10.5 155q2 121 48 185t149 105q-100 41 -148.5 106.5t-48.5 199.5q0 59 6 128.5t12 145.5q6 74 4 124t-20 82t-56 48t-102 20l2 60q39 4 92.5 -9.5t99.5 -50t78.5 -99t32.5 -157.5q0 -39 -3 -92t-6 -108.5 t-6 -108.5t-3 -90q0 -92 45 -130t127 -38l12 -59q-86 -2 -135 -39t-49 -131q0 -39 3 -88t6 -99.5t6 -97.5t3 -80q0 -106 -33.5 -176t-80.5 -110.5t-101.5 -56t-93.5 -11.5z" />
<glyph unicode="~" horiz-adv-x="1015" d="M104 317q4 117 28 186.5t56.5 105.5t70.5 46.5t71 10.5q61 0 111.5 -37t97.5 -105q43 -59 80.5 -98t78.5 -39q23 0 42.5 8t35 36t27.5 80t18 138l86 -14q-2 -102 -20.5 -169t-47 -107t-67.5 -55t-84 -15q-66 0 -119 48t-102 116q-39 51 -73 83.5t-75 32.5 q-53 0 -84.5 -59t-41.5 -203z" />
<glyph unicode="&#xa1;" horiz-adv-x="395" d="M92 791q0 49 30 79.5t73 30.5h2q47 0 73.5 -31.5t26.5 -81.5q0 -47 -30.5 -77.5t-73.5 -30.5q-41 0 -71 31.5t-30 79.5zM100 -326q0 35 6.5 76t12.5 84q12 80 22.5 167t16.5 173t9 165t3 144h59q0 -66 3.5 -144.5t9.5 -164.5t16 -173t23 -167q8 -47 12 -85t4 -75 q0 -25 -9 -48t-23.5 -41.5t-32 -31t-35.5 -12.5h-2q-12 0 -28.5 10.5t-31 29t-25 43t-10.5 50.5z" />
<glyph unicode="&#xa2;" d="M76 641q0 88 27.5 168t80 141.5t124 98t161.5 43.5l4 145l76 18l-12 -163q115 -4 186.5 -54.5t71.5 -138.5q0 -45 -25 -67.5t-55 -22.5q-25 0 -39 13.5t-10 29.5t6 29.5t2 33.5q0 47 -34 80t-108 43q-10 -176 -18 -369.5t-14 -371.5q98 4 163.5 53t100.5 158h27l8 -70 q-31 -80 -111 -141t-192 -72l-4 -157l-76 -21l12 176q-92 4 -157.5 39t-106.5 84q-37 43 -62.5 119t-25.5 176zM227 664q0 -74 13.5 -146t44.5 -117q23 -35 58.5 -63.5t88.5 -36.5q10 164 18.5 357.5t16.5 379.5q-66 -6 -111 -38.5t-73.5 -84t-42 -116t-13.5 -133.5v-2z" />
<glyph unicode="&#xa3;" d="M8 604l25 72q27 -2 60.5 -2h86.5q-10 109 -11 179.5t11 129.5q29 145 139 227q37 29 87.5 45.5t115.5 16.5q70 0 120 -19.5t83 -49t48 -66.5t15 -70q0 -47 -20 -75.5t-57 -28.5q-27 0 -41 12q-16 16 -13 33q4 16 7.5 32.5t3.5 32.5q0 68 -42 104.5t-122 36.5 q-84 0 -136.5 -62t-52.5 -208q0 -53 5.5 -118.5t13.5 -151.5q82 0 135 1t88 1t59.5 1t53.5 1l-27 -74q-16 0 -39.5 1t-59.5 2t-85 1h-119q0 -74 -8 -153.5t-35 -147.5q-23 -53 -57.5 -102t-81.5 -99q158 2 263 4.5t169.5 4.5t95.5 5t37 7q10 6 15 13t12 26q10 37 20 73.5 t18 65.5l56 10q-18 -90 -26.5 -178t-10.5 -137l-12 -12q-53 4 -126 6t-150 4t-150.5 2h-128.5q-86 0 -134.5 -3t-85.5 -5l-10 18l33 68q23 18 47.5 41.5t45 56.5t33.5 76t17 98q6 63 4 131t-6 127q-33 0 -80 -1t-96 -3z" />
<glyph unicode="&#xa4;" horiz-adv-x="884" d="M59 246l119 121q-41 47 -62.5 115.5t-21.5 133.5q0 63 23.5 129t68.5 115l-123 117l68 74l113 -140q39 35 95 49.5t103 14.5h2q45 0 102.5 -14.5t92.5 -47.5l106 136l74 -72l-127 -117q39 -45 59.5 -109.5t20.5 -129.5q0 -76 -23.5 -141.5t-64.5 -106.5l133 -127l-74 -76 l-114 152q-41 -33 -95.5 -49.5t-105.5 -16.5q-47 0 -102.5 15.5t-94.5 43.5l-104 -141zM207 618q0 -137 65.5 -211.5t165.5 -74.5q113 0 168.5 82t55.5 204q0 49 -10.5 100.5t-36 91.5t-68.5 65.5t-109 25.5h-2q-55 0 -98 -21.5t-72.5 -59.5t-44 -90t-14.5 -112z" />
<glyph unicode="&#xa5;" d="M-18 1255q31 0 75.5 -2t108.5 -2q59 0 101 2t100 2l8 -51q-23 -2 -45.5 -4t-46.5 -4q-23 -2 -11 -35q14 -35 39 -86t53.5 -108.5t58.5 -118t56 -111.5q33 63 62.5 128t55.5 120t44 98t29 64q6 14 7 24.5t-10.5 16.5t-37 10t-72.5 6l4 51q29 0 81 -2t99 -2q35 0 72 2t80 2 l2 -51q-29 -2 -50.5 -6t-40 -13t-33.5 -26.5t-34 -44.5q-20 -29 -46.5 -78t-56.5 -109.5t-60.5 -125t-59.5 -121.5h71.5t58.5 1t56.5 2t65.5 3l-16 -74q-27 0 -96.5 2t-147.5 2v-151q82 0 143.5 1t102.5 3l-21 -74q-29 2 -87 4t-140 2v-82t1 -85.5t2 -74.5t3 -53 q4 -25 12 -35t37 -12q25 -4 55.5 -7t71.5 -5l6 -53q-139 6 -280 6q-43 0 -92.5 -2t-133.5 -4l-4 53q35 4 67 7t60 7q35 4 47.5 21.5t14.5 50.5q0 18 1 51t2 70t2 76t1 71h-124t-108 -4l7 76q47 -2 107 -4t120 -2v149h-134.5t-117.5 -2l18 74q23 0 83.5 -3t140.5 -3 q-23 43 -53.5 103.5t-62.5 122t-62.5 116.5t-53.5 90q-18 31 -32.5 48.5t-31 26.5t-38 12t-51.5 3z" />
<glyph unicode="&#xa6;" horiz-adv-x="485" d="M186 358h113v-716h-113v716zM186 666v716h113v-716h-113z" />
<glyph unicode="&#xa7;" horiz-adv-x="942" d="M84 698q0 74 16.5 138.5t42 118t57 97.5t62.5 78q47 51 109.5 89t146.5 38h2q45 0 86 -10t74 -31.5t52.5 -55.5t19.5 -83q0 -45 -25 -68.5t-55 -23.5q-25 0 -49 19q-18 16 -11 36q8 14 13.5 30.5t5.5 37.5q0 35 -31 64.5t-102 29.5q-80 0 -120 -46t-40 -109q0 -39 12 -70 t35 -64q23 -29 71 -72.5t104 -96t113.5 -107.5t96.5 -107q80 -104 80 -243q0 -119 -35 -211t-86 -158q-90 -121 -174 -164t-160 -43q-37 0 -80 10.5t-80.5 35t-62.5 62.5t-25 93q0 41 23 67.5t57 26.5q25 0 41.5 -11t26.5 -30q10 -14 8 -25.5t-8 -19.5q-18 -25 -19 -57 q0 -39 37 -66.5t107 -27.5q80 0 126 44t44 111q0 51 -26.5 93t-67.5 89q-29 31 -73 75t-90 89t-88 87t-67 73q-39 49 -66.5 120t-27.5 148zM172 793q0 -82 26.5 -158t110.5 -160q84 -86 150.5 -148.5t115.5 -115.5q55 -59 80 -127t21 -147q47 55 66.5 118.5t19.5 141.5v2 q0 66 -19.5 126t-66.5 119q-33 41 -84 92.5t-102.5 100.5t-95.5 92t-64 68q-37 47 -61.5 107.5t-10.5 142.5q-39 -49 -62.5 -114t-23.5 -140z" />
<glyph unicode="&#xa8;" horiz-adv-x="933" d="M229 1190q0 39 25 64.5t63 25.5h2q37 0 56.5 -24.5t19.5 -63.5q0 -41 -25.5 -64.5t-60.5 -23.5q-31 0 -55.5 21.5t-24.5 64.5zM545 1190q0 39 24.5 64.5t63.5 25.5h2q37 0 56.5 -24.5t19.5 -61.5q0 -43 -26 -66.5t-60 -23.5q-31 0 -55.5 21.5t-24.5 64.5z" />
<glyph unicode="&#xa9;" horiz-adv-x="1398" d="M96 653q0 135 46 254t127 207t191.5 138.5t239.5 50.5h2q131 0 242 -51.5t190.5 -138.5t125 -206t45.5 -254q0 -139 -46.5 -258t-128 -205t-191.5 -135t-239 -49q-131 0 -241.5 48t-191.5 134t-126 205t-45 260zM178 653q0 -127 40 -233.5t110.5 -184t167 -121.5 t209.5 -44q111 0 206 44t164.5 120.5t109.5 183t40 233.5q0 123 -37 229.5t-104.5 186.5t-164 126t-217.5 46h-2q-111 0 -207 -44t-165.5 -122t-109.5 -185.5t-40 -234.5zM391 655q0 84 29 150.5t78 114.5q41 39 100 61.5t137 22.5q59 0 101.5 -14.5t66.5 -31.5 q8 -6 11.5 -3t7.5 8l14 34l37 -4q-8 -51 -8 -117.5t4 -142.5h-37q-8 41 -20.5 84t-34.5 72q-49 66 -142 65q-53 0 -88 -18t-59 -51q-25 -35 -42.5 -89.5t-17.5 -127.5q0 -78 15.5 -128.5t42.5 -80.5q27 -33 66.5 -52.5t88.5 -19.5q88 0 140.5 46t76.5 120l41 -23 q-31 -109 -109.5 -156.5t-172.5 -47.5q-82 0 -146.5 25.5t-103.5 70.5q-35 41 -55.5 98.5t-20.5 134.5z" />
<glyph unicode="&#xaa;" horiz-adv-x="681" d="M51 711q0 43 22.5 72.5t57.5 41.5q23 8 66 22.5t90 31t87 31t56 24.5v47q0 39 -23.5 75t-97.5 36q-63 0 -89.5 -28t-26.5 -52q0 -10 2 -19.5t6 -19.5q8 -25 -17 -41q-20 -16 -49 -17q-20 0 -36.5 15.5t-16.5 42.5q0 35 21.5 65.5t56.5 53t79 36t91 13.5q88 0 129 -28 t53 -42q10 -12 18.5 -34.5t8.5 -45.5q0 -12 -1 -51t-1 -86t-1 -95t-1 -79q0 -37 10 -50.5t26 -13.5q37 0 64 91l43 -17q-31 -145 -143 -145q-55 0 -79 28.5t-28 65.5l-2 6q-47 -43 -101.5 -70.5t-109.5 -27.5q-78 0 -121 49t-43 115zM172 721q0 -45 27.5 -72.5t74.5 -27.5 q49 0 87 26.5t59 71.5q10 27 10 47v121q-12 -6 -35.5 -16.5t-51.5 -20.5t-54.5 -21.5t-46.5 -19.5q-35 -16 -52.5 -32.5t-17.5 -55.5z" />
<glyph unicode="&#xab;" horiz-adv-x="931" d="M94 420l19 39q86 31 171 120t144 216l53 -23q-16 -49 -38.5 -98t-49 -93t-52.5 -81t-46 -64q25 -31 53.5 -70.5t55 -83.5t47 -89.5t30.5 -83.5l-45 -31q-31 68 -75 125t-92 102t-94 74t-81 41zM455 420l18 39q86 31 171 121t144 217l54 -23q-16 -49 -39 -98t-49.5 -94 t-52 -82t-46.5 -64q25 -31 53.5 -70.5t55.5 -84.5t47 -90.5t31 -84.5l-45 -30q-31 68 -75 125t-92 102t-94.5 75t-80.5 42z" />
<glyph unicode="&#xac;" horiz-adv-x="1015" d="M106 612v97h795v-506h-96v409h-699z" />
<glyph unicode="&#xad;" horiz-adv-x="598" d="M70 424l22 111q109 -4 212.5 -4.5t225.5 4.5l-20 -111q-229 6 -440 0z" />
<glyph unicode="&#xae;" horiz-adv-x="446" d="M29 1098q0 45 15 84t43 67.5t65.5 45t80.5 16.5h3q43 0 79.5 -16.5t63.5 -45t42 -67.5t15 -84q0 -90 -57 -150.5t-146 -60.5q-88 0 -146 60.5t-58 150.5zM76 1098q0 -74 46 -123t114 -49q70 0 114.5 49t44.5 123t-45 125t-117 51h-2q-66 0 -110.5 -49t-44.5 -127z M129 1174l2 20q6 0 22.5 -1t26.5 -1q12 0 29.5 1t40.5 1q35 0 49 -13.5t14 -31.5q0 -23 -12 -32t-35 -13v-2q20 -2 30.5 -9.5t12.5 -13.5q4 -6 5 -14t3 -18q4 -20 19 -21q2 0 5 2t7 2l-2 -18q-18 -6 -39 -6q-23 0 -31 11t-10 27q-2 6 -2 12.5t-2 10.5q-4 18 -26 23 q-6 2 -11.5 1t-13.5 -1v-50q2 -8 8 -8l21 -4v-20q-8 0 -23.5 1t-32.5 1q-10 0 -24.5 -1t-24.5 -1v20l12 2q14 0 15 8q2 10 2 28.5v37.5q0 23 -1 38t-1 21q0 8 -8 8zM211 1110q14 0 22 2q12 0 20.5 9t8.5 20v2q0 31 -33 31q-16 0 -18 -7v-57z" />
<glyph unicode="&#xaf;" horiz-adv-x="933" d="M258 1102l21 108h399l-14 -108h-406z" />
<glyph unicode="&#xb0;" horiz-adv-x="606" d="M84 1079q0 115 67.5 176.5t165.5 61.5h2q98 0 151.5 -62.5t53.5 -160.5q0 -111 -66.5 -170.5t-158.5 -59.5t-153.5 54.5t-61.5 160.5zM186 1092q0 -78 34 -122t81 -44q39 0 63.5 18.5t37 44t16.5 56t4 55.5q0 20 -4 48t-16.5 52.5t-35 42t-59.5 17.5t-60.5 -16.5 t-36.5 -42t-18.5 -55.5t-5.5 -54z" />
<glyph unicode="&#xb1;" horiz-adv-x="1013" d="M106 20v95h801v-95h-801zM106 557v94h353v338h98v-338h350v-94h-350v-364h-98v364h-353z" />
<glyph unicode="&#xb2;" horiz-adv-x="677" d="M82 874q4 10 12 28t15 32q117 78 207 165t120 161q12 31 19.5 60.5t7.5 70.5q0 29 -7 56.5t-22.5 49t-41 34.5t-62.5 13q-72 0 -100.5 -37t-28.5 -96q0 -8 2 -23.5t6 -25.5q2 -16 -12 -31q-12 -12 -39 -12q-29 0 -45.5 20.5t-16.5 55.5q0 37 19.5 71.5t52.5 63.5 q35 29 82 47t106 18q53 0 93 -13t65 -34q76 -57 76 -170q0 -94 -70 -172q-29 -33 -105.5 -99.5t-189.5 -152.5q76 0 129.5 1t88 3.5t55 3.5t30.5 3q23 0 33 22q4 12 15.5 40t19.5 54l43 -16q-27 -96 -35 -140t-10 -65q-8 0 -26.5 1t-58.5 2t-106.5 2t-171.5 1h-76.5 t-68.5 -4z" />
<glyph unicode="&#xb3;" horiz-adv-x="677" d="M84 999q0 25 15.5 45.5t45.5 20.5q20 0 28.5 -11.5t16.5 -35.5q18 -59 60.5 -90t99.5 -31q78 0 118 46t40 122q0 61 -36 105t-132 44q-27 0 -49.5 -4t-38.5 -8l-29 33l6 16q20 4 51 9.5t56 11.5q20 6 43.5 16t43 26.5t32 43t12.5 65.5q0 47 -30.5 85t-96.5 38 q-76 0 -104.5 -33.5t-28.5 -76.5q0 -12 2 -23.5t2 -21.5q2 -12 -10.5 -22.5t-32.5 -10.5q-27 0 -43 18.5t-16 48.5q0 25 16 54.5t48 55.5t80 43t112 17h2q41 0 80.5 -9t72.5 -29.5t52.5 -53.5t19.5 -78q0 -41 -18.5 -68.5t-45.5 -47.5q-25 -16 -50 -27.5t-62 -24.5v-4 q57 -4 104 -20t76 -45q43 -43 43 -115q0 -51 -22.5 -90t-51.5 -63q-29 -25 -86 -47.5t-143 -22.5q-55 0 -101.5 12t-80 32.5t-52 47.5t-18.5 57z" />
<glyph unicode="&#xb4;" horiz-adv-x="933" d="M377 1030q14 20 38.5 62.5t51.5 88.5t51.5 88t36.5 62q23 37 48.5 52.5t51.5 15.5q23 0 36.5 -15.5t13.5 -44.5q0 -27 -16.5 -56.5t-39.5 -51.5q-29 -29 -87 -85t-144 -147z" />
<glyph unicode="&#xb5;" horiz-adv-x="995" d="M123 -449q6 90 12 192.5t11.5 192t9.5 154t6 78.5q0 43 1 98.5t2 115.5t1 122.5v120.5q0 76 -1 148.5t-5 107.5q27 0 71.5 6t81.5 10q-10 -41 -15 -155.5t-5 -284.5v-127.5t2 -91t5 -62t7 -41.5q10 -39 34 -58.5t67 -19.5q98 0 167.5 64.5t108.5 167.5q12 31 15 55.5 t3 52.5v181q0 113 -2 193.5t-4 107.5q29 0 69 4t75 8q-4 -49 -7.5 -127t-3.5 -174v-256q0 -109 2.5 -166t6.5 -86q4 -35 30 -35q23 0 51.5 31t41.5 96l45 -43q-31 -90 -80 -123t-101 -33q-74 0 -100.5 53.5t-24.5 155.5q-23 -39 -55.5 -75.5t-74.5 -66.5t-90 -47.5 t-101 -17.5q-35 0 -67.5 10.5t-55.5 39.5q2 -154 8 -290t15 -220l-15 -15q-25 0 -49.5 6.5t-43.5 13.5t-32.5 15t-15.5 14z" />
<glyph unicode="&#xb6;" horiz-adv-x="1064" d="M152 666q0 133 53 242.5t164 174.5q41 23 88 36.5t114 13.5h54.5t57.5 -1.5t49.5 -1.5h29.5q57 0 115.5 2.5t93.5 4.5v-56l-127 -14q-27 -4 -36 -23.5t-9 -95.5v-659q0 -137 -6.5 -230.5t-20.5 -158t-34.5 -107.5t-51.5 -78q-41 -49 -97.5 -69.5t-109.5 -20.5 q-41 0 -81 9.5t-70.5 33t-49 61.5t-18.5 93q0 61 36 98t75 37q33 0 49 -11.5t29 -33.5q8 -14 9 -27.5t-7 -11.5q-4 2 -12.5 3t-12.5 1q-35 0 -49.5 -26.5t-14.5 -49.5q0 -43 33 -78.5t105 -35.5q53 0 91 21.5t62.5 75.5t36.5 146.5t12 233.5v117q-23 -10 -51 -19.5 t-55 -16.5t-49.5 -12.5t-34.5 -5.5q-72 0 -137.5 32t-114.5 90.5t-78.5 138t-29.5 178.5z" />
<glyph unicode="&#xb7;" horiz-adv-x="385" d="M90 469q0 47 31 79t72 32h2q47 0 73.5 -33t26.5 -78q0 -51 -29.5 -82t-72.5 -31q-41 0 -72 31t-31 82z" />
<glyph unicode="&#xb8;" horiz-adv-x="933" d="M305 -367l21 56q16 -10 39.5 -16.5t46.5 -6.5q35 0 55 17.5t20 54.5q0 41 -36.5 61.5t-90.5 20.5l-8 20q23 35 53.5 80t63.5 98h61q-8 -14 -28.5 -46.5t-36.5 -61.5q20 -4 42.5 -13.5t42 -26.5t33 -43t13.5 -65q0 -74 -47 -118.5t-131 -44.5q-35 0 -68 12t-45 22z" />
<glyph unicode="&#xb9;" horiz-adv-x="677" d="M160 909l104 9q25 4 34 11t9 21q4 29 6 75t2 114v172q0 68 -1 110.5t-3 73.5q-2 20 -16 18q-16 -4 -53 -10l-74 -12l10 55q25 4 60.5 10.5t72.5 12.5t68 13t47 13l8 -4q0 -31 -3 -94t-3 -180v-180q0 -70 1 -110t5 -77q0 -27 33 -30l100 -11l2 -47q-78 0 -127 2t-84 2 q-47 0 -95 -2t-97 -2z" />
<glyph unicode="&#xba;" horiz-adv-x="706" d="M66 834q0 61 19 116.5t56 97.5t93.5 67.5t130.5 25.5h2q133 0 204.5 -78t71.5 -213q0 -61 -18.5 -116.5t-55.5 -96.5t-93 -65.5t-132 -24.5q-74 0 -126 23.5t-86 62.5t-50 91t-16 110zM193 844q0 -104 34 -170q45 -76 127 -76q39 0 69 15.5t54 56.5q18 29 28.5 79 t10.5 105q0 53 -9 92t-22 68q-43 76 -131 76h-2q-41 0 -67.5 -17.5t-48.5 -48.5q-20 -29 -31.5 -75t-11.5 -105z" />
<glyph unicode="&#xbb;" horiz-adv-x="931" d="M94 98q14 49 38 98.5t50.5 93.5t52 82t46.5 64q-25 31 -53.5 71t-55.5 85t-48.5 89t-29.5 85l45 31q31 -68 75 -125.5t91 -102.5t94 -74.5t82 -41.5l-18 -39q-86 -31 -171 -121t-147 -217zM455 100q14 49 37.5 98.5t50 93.5t52.5 81t46 63q-25 31 -53.5 71t-55 84t-48 88 t-29.5 85l45 31q31 -68 74.5 -125.5t91 -102.5t94.5 -73.5t82 -40.5l-19 -39q-86 -31 -171 -120t-144 -216z" />
<glyph unicode="&#xbc;" horiz-adv-x="1464" d="M125 606l104 8q25 4 34 12.5t9 22.5q4 29 6.5 74t2.5 113v172q0 68 -1 110.5t-4 73.5q-2 20 -16 18q-16 -4 -53 -10l-74 -12l10 55q25 4 61 10.5t72.5 12.5t67.5 13t47 13l8 -4q0 -31 -3 -94.5t-3 -179.5v-180q0 -70 1 -110t5 -77q0 -27 33 -31l100 -10l3 -47 q-78 0 -127.5 2t-83.5 2q-47 0 -95.5 -2t-97.5 -2zM285 2q102 162 217.5 347.5t227.5 367.5t213 349t175 290l58 -45q-74 -115 -172.5 -270.5t-208 -334t-227 -372t-230.5 -383.5zM713 297q55 59 111.5 123.5t106.5 124t92 111t69 83.5q25 6 55.5 16.5t54.5 20.5l8 -6 q-2 -31 -3 -82t-2 -107.5t-2 -114.5t-1 -104v-61q53 4 88 12.5t53 16.5l3 -39q-20 -16 -58.5 -30.5t-85.5 -20.5q0 -41 1 -89.5t3 -101.5q-29 -2 -61.5 -7t-54.5 -11l-9 4q2 35 4 83t5 118q-59 0 -118 2t-109 5t-87 8t-51 11zM813 319q18 -6 93 -14t184 -6q2 43 3 92t1 99.5 v96.5v83q-78 -96 -149 -185.5t-132 -165.5z" />
<glyph unicode="&#xbd;" horiz-adv-x="1464" d="M98 606l105 8q25 4 34 12.5t9 22.5q4 29 6 74t2 113v172q0 68 -1 109.5t-3 74.5q-2 20 -17 18q-16 -4 -53 -10l-74 -12l11 55q25 4 60.5 10.5t72.5 12.5t67.5 13t47.5 13l8 -4q0 -31 -3 -94.5t-3 -179.5v-180q0 -72 1 -111t5 -76q0 -27 33 -31l100 -10l2 -47 q-78 0 -127 2t-84 2q-47 0 -95 -2t-98 -2zM248 2q100 162 216 347.5t228.5 367.5t214 349t174.5 290l60 -45q-76 -115 -173.5 -270.5t-208 -334t-228 -372t-230.5 -383.5zM811 55q4 10 12 27.5t15 32.5q57 39 110 81t96 85t74 82.5t47 76.5q12 33 19.5 61.5t7.5 69.5 q0 29 -7 56.5t-22.5 49t-41 35t-62.5 13.5q-72 0 -100.5 -36t-28.5 -95q0 -8 2 -23.5t6 -25.5t-1 -18.5t-11 -12.5q-14 -14 -39 -14q-29 0 -45.5 21.5t-16.5 56.5t19.5 69.5t54.5 63.5q33 29 80 47t106 18q53 0 93.5 -14t66.5 -33q74 -59 74 -168q0 -96 -70 -174 q-29 -33 -105.5 -99.5t-189.5 -152.5q152 2 217.5 4t83.5 6q25 0 35 23q4 12 15.5 41t19.5 53l43 -16q-25 -98 -34 -141.5t-11 -63.5q-8 0 -26.5 1t-58.5 2t-106.5 2t-170.5 1h-77t-69 -4z" />
<glyph unicode="&#xbe;" horiz-adv-x="1464" d="M86 696q0 25 15.5 45.5t45.5 20.5q20 0 28.5 -11.5t17.5 -35.5q39 -121 159 -121q78 0 117 46t39 122q0 61 -36 105t-130 44q-29 0 -50.5 -4t-37.5 -8l-29 33l6 16q20 4 51 9.5t56 11.5q20 6 44 16t42 26.5t30.5 43t12.5 65.5q0 47 -30.5 85t-94.5 38q-76 0 -104.5 -33.5 t-28.5 -76.5q0 -12 2 -23.5t2 -22.5q2 -12 -10.5 -22t-32.5 -10q-27 0 -43 18.5t-16 48.5q0 25 16 54.5t48 55t80 43t110 17.5h2q41 0 80.5 -9t72.5 -29.5t52.5 -53.5t19.5 -78q0 -41 -18.5 -68.5t-45.5 -47.5q-25 -16 -50 -27.5t-62 -24.5v-4q57 -4 104 -20.5t76 -44.5 q43 -43 43 -115q0 -51 -22.5 -90t-51.5 -64t-86 -47t-143 -22q-55 0 -100.5 12t-79 32.5t-52 47.5t-18.5 57zM332 2q102 162 218 347.5t228.5 367.5t214 349t174.5 290l58 -45q-74 -115 -172.5 -270.5t-209 -335t-228 -373t-230.5 -383.5zM743 297q55 59 110.5 123.5 t107 124t93.5 110t68 82.5q25 8 55.5 18.5t55.5 20.5l8 -6q-2 -31 -3 -82t-2 -107.5t-2 -114.5t-1 -104v-61q53 4 88 12.5t53 16.5l2 -39q-20 -16 -58 -30.5t-85 -20.5q0 -41 1 -89.5t3 -101.5q-29 -2 -61.5 -7t-55.5 -11l-8 4q2 35 4 83t4 118q-59 0 -118.5 2t-109.5 5 t-87 8t-51 11zM844 319q18 -6 92.5 -14t183.5 -6q2 43 3 92t1 98.5v95.5v83q-78 -94 -149.5 -183.5t-130.5 -165.5z" />
<glyph unicode="&#xbf;" horiz-adv-x="759" d="M74 -139q0 72 29.5 121t66.5 90q45 49 89 101t79 99q39 47 45 93.5t-23 111.5l43 23q31 -33 60 -83t29 -100q0 -39 -15.5 -68.5t-36.5 -58.5q-16 -25 -42.5 -57.5t-54.5 -68t-53.5 -67.5t-41.5 -52q-23 -27 -35 -57.5t-12 -67.5q0 -113 53 -164t135 -51q43 0 75 12 t51.5 32.5t28.5 46t9 52.5q0 29 -6 48.5t-15 35.5q-6 14 -3 25.5t14 21.5q16 16 30.5 22.5t30.5 6.5q35 0 57.5 -27.5t22.5 -75.5q0 -59 -28.5 -106t-73.5 -81t-100.5 -52.5t-106.5 -18.5q-139 0 -220 86t-81 228zM287 799q0 49 29.5 79.5t76.5 30.5h2q37 0 67 -30.5 t30 -81.5q0 -47 -31 -78t-72 -31q-43 0 -72.5 31t-29.5 80z" />
<glyph unicode="&#xc0;" horiz-adv-x="1159" d="M-18 -6v55q39 2 67.5 7t49 19.5t36 39t31.5 67.5t43 120t59.5 171t67.5 196.5t66.5 198t57 175t40.5 124.5q16 41 22 67t10 46q29 4 59 10t56 17q25 -90 55.5 -198t64.5 -222.5t68.5 -229t66.5 -217t60.5 -187.5t49.5 -140q12 -33 30.5 -43.5t53.5 -14.5l75 -6v-55 q-29 2 -87 4t-117 2q-63 0 -122 -2l-118 -4l-2 55q88 6 110.5 15.5t16.5 35.5q-6 25 -19.5 70t-29 100.5t-32.5 113.5t-34 110q-18 2 -75.5 2h-122.5h-117.5t-71.5 -2q-23 -72 -39 -124.5t-27.5 -90t-19.5 -65.5t-12 -48q-8 -33 -7 -54.5t16 -33.5t49 -19.5t91 -9.5l-2 -55 q-45 0 -89 3t-103 3q-41 0 -103.5 -3t-121.5 -3zM301 1565q-4 29 15.5 48t48.5 23q43 6 86 -24q12 -8 42.5 -34t66.5 -55.5t69 -58t49 -41.5l-27 -39q-45 14 -89 30t-81 28t-62.5 21.5t-35.5 13.5q-27 10 -52.5 33.5t-29.5 54.5zM373 559q18 -2 70.5 -3t109.5 -1 q59 0 107.5 1t58.5 3q-18 68 -40 142.5t-43.5 149.5t-42 146.5t-38.5 137.5q-39 -121 -84 -263.5t-98 -312.5z" />
<glyph unicode="&#xc1;" horiz-adv-x="1159" d="M-18 -6v55q39 2 67.5 7t49 19.5t36 39t31.5 67.5t43 120t59.5 171t67.5 196.5t66.5 198t57 175t40.5 124.5q16 41 22 67t10 46q29 4 59 10t56 17q25 -90 55.5 -198t64.5 -222.5t68.5 -229t66.5 -217t60.5 -187.5t49.5 -140q12 -33 30.5 -43.5t53.5 -14.5l75 -6v-55 q-29 2 -87 4t-117 2q-63 0 -122 -2l-118 -4l-2 55q88 6 110.5 15.5t16.5 35.5q-6 25 -19.5 70t-29 100.5t-32.5 113.5t-34 110q-18 2 -75.5 2h-122.5h-117.5t-71.5 -2q-23 -72 -39 -124.5t-27.5 -90t-19.5 -65.5t-12 -48q-8 -33 -7 -54.5t16 -33.5t49 -19.5t91 -9.5l-2 -55 q-45 0 -89 3t-103 3q-41 0 -103.5 -3t-121.5 -3zM373 559q18 -2 70.5 -3t109.5 -1q59 0 107.5 1t58.5 3q-18 68 -40 142.5t-43.5 149.5t-42 146.5t-38.5 137.5q-39 -121 -84 -263.5t-98 -312.5zM481 1427q20 14 59.5 43t80.5 60t76.5 57.5t47.5 36.5q20 12 44 20.5t45 4.5 q27 -4 43 -19.5t12 -50.5q-4 -31 -31 -54.5t-59 -35.5q-29 -10 -103.5 -38t-185.5 -67z" />
<glyph unicode="&#xc2;" horiz-adv-x="1159" d="M-18 -6v55q39 2 67.5 7t49 19.5t36 39t31.5 67.5t43 120t59.5 171t67.5 196.5t66.5 198t57 175t40.5 124.5q16 41 22 67t10 46q29 4 59 10t56 17q25 -90 55.5 -198t64.5 -222.5t68.5 -229t66.5 -217t60.5 -187.5t49.5 -140q12 -33 30.5 -43.5t53.5 -14.5l75 -6v-55 q-29 2 -87 4t-117 2q-63 0 -122 -2l-118 -4l-2 55q88 6 110.5 15.5t16.5 35.5q-6 25 -19.5 70t-29 100.5t-32.5 113.5t-34 110q-18 2 -75.5 2h-122.5h-117.5t-71.5 -2q-23 -72 -39 -124.5t-27.5 -90t-19.5 -65.5t-12 -48q-8 -33 -7 -54.5t16 -33.5t49 -19.5t91 -9.5l-2 -55 q-45 0 -89 3t-103 3q-41 0 -103.5 -3t-121.5 -3zM336 1409q104 66 158.5 123t80.5 96l48 6q10 -18 29.5 -44.5t49 -57.5t68.5 -62.5t88 -60.5l-29 -49q-27 10 -58.5 24.5t-62 31t-60.5 32.5t-50 31q-47 -29 -112.5 -64t-118.5 -55zM373 559q18 -2 70.5 -3t109.5 -1 q59 0 107.5 1t58.5 3q-18 68 -40 142.5t-43.5 149.5t-42 146.5t-38.5 137.5q-39 -121 -84 -263.5t-98 -312.5z" />
<glyph unicode="&#xc3;" horiz-adv-x="1159" d="M-18 -6v55q39 2 67.5 7t49 19.5t36 39t31.5 67.5t43 120t59.5 171t67.5 196.5t66.5 198t57 175t40.5 124.5q16 41 22 67t10 46q29 4 59 10t56 17q25 -90 55.5 -198t64.5 -222.5t68.5 -229t66.5 -217t60.5 -187.5t49.5 -140q12 -33 30.5 -43.5t53.5 -14.5l75 -6v-55 q-29 2 -87 4t-117 2q-63 0 -122 -2l-118 -4l-2 55q88 6 110.5 15.5t16.5 35.5q-6 25 -19.5 70t-29 100.5t-32.5 113.5t-34 110q-18 2 -75.5 2h-122.5h-117.5t-71.5 -2q-23 -72 -39 -124.5t-27.5 -90t-19.5 -65.5t-12 -48q-8 -33 -7 -54.5t16 -33.5t49 -19.5t91 -9.5l-2 -55 q-45 0 -89 3t-103 3q-41 0 -103.5 -3t-121.5 -3zM352 1389q2 39 11.5 77.5t28 70.5t47 51.5t69.5 19.5q29 0 55.5 -14.5t63.5 -47.5q33 -29 52 -40t34 -11q49 0 63 121l55 -10q-2 -43 -10 -83t-24.5 -70t-43 -47t-63.5 -17q-29 0 -58.5 17t-70.5 52q-23 20 -42 32.5 t-38 12.5q-27 0 -45 -35.5t-24 -83.5zM373 559q18 -2 70.5 -3t109.5 -1q59 0 107.5 1t58.5 3q-18 68 -40 142.5t-43.5 149.5t-42 146.5t-38.5 137.5q-39 -121 -84 -263.5t-98 -312.5z" />
<glyph unicode="&#xc4;" horiz-adv-x="1159" d="M-18 -6v55q39 2 67.5 7t49 19.5t36 39t31.5 67.5t43 120t59.5 171t67.5 196.5t66.5 198t57 175t40.5 124.5q16 41 22 67t10 46q29 4 59 10t56 17q25 -90 55.5 -198t64.5 -222.5t68.5 -229t66.5 -217t60.5 -187.5t49.5 -140q12 -33 30.5 -43.5t53.5 -14.5l75 -6v-55 q-29 2 -87 4t-117 2q-63 0 -122 -2l-118 -4l-2 55q88 6 110.5 15.5t16.5 35.5q-6 25 -19.5 70t-29 100.5t-32.5 113.5t-34 110q-18 2 -75.5 2h-122.5h-117.5t-71.5 -2q-23 -72 -39 -124.5t-27.5 -90t-19.5 -65.5t-12 -48q-8 -33 -7 -54.5t16 -33.5t49 -19.5t91 -9.5l-2 -55 q-45 0 -89 3t-103 3q-41 0 -103.5 -3t-121.5 -3zM332 1489q0 43 24.5 68.5t63.5 25.5h2q39 0 61.5 -25.5t22.5 -60.5q0 -45 -30 -70.5t-60 -25.5q-31 0 -57.5 20.5t-26.5 67.5zM373 559q18 -2 70.5 -3t109.5 -1q59 0 107.5 1t58.5 3q-18 68 -40 142.5t-43.5 149.5t-42 146.5 t-38.5 137.5q-39 -121 -84 -263.5t-98 -312.5zM666 1489q0 43 24.5 68.5t63.5 25.5h2q41 0 63.5 -25.5t22.5 -60.5q0 -45 -30 -70.5t-62 -25.5q-31 0 -57.5 20.5t-26.5 67.5z" />
<glyph unicode="&#xc5;" horiz-adv-x="1159" d="M-18 -6v55q39 2 67.5 7t49 19.5t36 39t31.5 67.5t43 120t59.5 171t67.5 196.5t66.5 198t57 175t40.5 124.5q16 41 22 67t10 46q29 4 59 10t56 17q25 -90 55.5 -198t64.5 -222.5t68.5 -229t66.5 -217t60.5 -187.5t49.5 -140q12 -33 30.5 -43.5t53.5 -14.5l75 -6v-55 q-29 2 -87 4t-117 2q-63 0 -122 -2l-118 -4l-2 55q88 6 110.5 15.5t16.5 35.5q-6 25 -19.5 70t-29 100.5t-32.5 113.5t-34 110q-18 2 -75.5 2h-122.5h-117.5t-71.5 -2q-23 -72 -39 -124.5t-27.5 -90t-19.5 -65.5t-12 -48q-8 -33 -7 -54.5t16 -33.5t49 -19.5t91 -9.5l-2 -55 q-45 0 -89 3t-103 3q-41 0 -103.5 -3t-121.5 -3zM373 559q18 -2 70.5 -3t109.5 -1q59 0 107.5 1t58.5 3q-18 68 -40 142.5t-43.5 149.5t-42 146.5t-38.5 137.5q-39 -121 -84 -263.5t-98 -312.5zM412 1520q0 88 54 135t134 47h2q78 0 125 -45t47 -123q0 -86 -54 -131 t-132 -45q-76 0 -126 42t-50 120zM510 1532q0 -59 24.5 -88t59.5 -29q27 0 43 13.5t25.5 32t11.5 39t2 34.5q0 39 -17.5 76t-64.5 37h-2q-25 0 -41 -11.5t-25.5 -29t-12.5 -38t-3 -36.5z" />
<glyph unicode="&#xc6;" horiz-adv-x="1579" d="M-20 -6v53q41 4 68.5 11.5t48 24.5t40 48t43.5 84q121 252 236.5 495.5t232.5 475.5q8 20 5 28.5t-23 10.5l-146 8l-6 53h80t87 -2t86 -3t77 -1h356q47 0 86 1t74 3q33 2 55.5 4t36.5 4q-2 -18 -3 -54t-2 -80t0 -91t3 -86h-51q-4 35 -12.5 72t-20.5 77q-8 25 -19.5 41.5 t-36 26.5t-66.5 14.5t-111 4.5h-162q-16 0 -21.5 -6.5t-7.5 -26.5q-4 -39 -4 -90.5v-128.5v-314h133q70 0 112 4t64.5 19.5t31.5 44.5t16 80h51q-8 -94 -8 -196.5t6 -201.5l-54 2q-4 53 -11 89t-28.5 57.5t-62.5 30t-113 8.5l-137 -2v-191v-75.5t1 -79.5t3 -73t4 -56 q2 -16 7.5 -26.5t26 -17t60 -8.5t111.5 -2q74 0 123 3t82 11.5t52.5 21.5t31.5 34q25 39 41 96.5t29 108.5l47 -4q0 -16 -4.5 -64.5t-10.5 -101.5t-12 -102.5t-8 -69.5q-18 2 -50 4t-85 2q-53 2 -114.5 3t-143.5 1h-244q-63 0 -136 -3t-124 -3l2 53l119 10q27 4 36 22.5 t11 65.5q2 55 3 118t1 128v195q-27 0 -68 -1t-87 -1h-92t-83 -2q-49 -106 -94 -208t-88 -218q-20 -57 -6 -75t80 -26l71 -8l-2 -53q-53 0 -101 3t-110 3q-51 0 -100 -3t-102 -3zM469 655q66 -4 141.5 -4h151.5v566h-29q-29 -55 -62.5 -124t-67.5 -142.5t-68.5 -149.5 t-65.5 -146z" />
<glyph unicode="&#xc7;" horiz-adv-x="1110" d="M88 616q0 180 52.5 311.5t129.5 217.5q72 78 169.5 122t222.5 44q104 0 176.5 -29t111.5 -70l37 88l45 -14q-6 -37 -10 -85t-6 -99t-2 -103.5t2 -99.5l-51 -8q-4 74 -22.5 139.5t-54.5 114.5t-91.5 78.5t-134.5 29.5q-96 0 -164 -36.5t-121 -110.5q-55 -74 -90 -197 t-35 -270q0 -121 25.5 -231.5t72.5 -184.5q53 -88 131 -130t170 -42q61 0 115.5 14.5t99.5 47t82 86t66 131.5l49 -31q-43 -135 -136 -223.5t-253 -102.5q-10 -16 -20.5 -32.5t-20.5 -32.5q18 -6 40.5 -15.5t42 -26t33 -42t13.5 -62.5q0 -72 -47 -115.5t-127 -43.5 q-35 0 -67 12t-42 23l19 53q16 -10 38.5 -16.5t43.5 -6.5q33 0 54 17.5t21 54.5q0 41 -35.5 59.5t-89.5 18.5l-8 22q18 27 40 58.5t48 70.5h-16q-129 4 -226.5 53.5t-164.5 153.5q-53 78 -84 190.5t-31 249.5z" />
<glyph unicode="&#xc8;" horiz-adv-x="1032" d="M33 -6l2 53l123 12q27 2 37 18.5t12 59.5q6 123 6 262v467q0 104 -1 183t-3 122q0 29 -13.5 39.5t-48.5 14.5l-98 8v53q20 0 49 -1t64 -1q35 -2 71.5 -3t71.5 -1h309q92 0 163 3t97 9q-2 -18 -3 -55t-2 -82t0 -92t3 -84l-51 -4q-4 35 -12 75t-21 80q-8 25 -19 41.5 t-34.5 26.5t-65.5 14.5t-112 4.5h-168q-16 0 -21.5 -6.5t-7.5 -26.5q-2 -43 -4 -103.5t-2 -140.5v-244q16 0 57.5 -1t63.5 -1q68 0 109 5.5t63.5 22.5t32.5 48t14 80h51q-8 -98 -8 -200.5t6 -200.5l-51 2q-6 57 -14 92t-30.5 54t-63.5 26.5t-111 7.5q-31 0 -66.5 -1 t-52.5 -3v-226q0 -76 2 -157.5t6 -132.5q0 -16 6.5 -26.5t27 -17t61.5 -8.5t114 -2q72 0 119 3t78 10.5t49.5 21.5t32.5 37q25 35 45 94.5t35 114.5l47 -4q0 -16 -6 -65.5t-14.5 -104.5t-15.5 -104.5t-11 -67.5q-41 4 -128 6t-255 2h-246q-29 0 -66.5 -1t-74.5 -1 q-37 -2 -71 -3t-56 -1zM244 1565q-4 29 15.5 48t47.5 23q43 6 86 -24q12 -8 43 -34t67 -55.5t68.5 -58t49.5 -41.5l-27 -39q-45 14 -89 30t-81 28t-62.5 21.5t-35.5 13.5q-27 10 -52.5 33.5t-29.5 54.5z" />
<glyph unicode="&#xc9;" horiz-adv-x="1032" d="M33 -6l2 53l123 12q27 2 37 18.5t12 59.5q6 123 6 262v467q0 104 -1 183t-3 122q0 29 -13.5 39.5t-48.5 14.5l-98 8v53q20 0 49 -1t64 -1q35 -2 71.5 -3t71.5 -1h309q92 0 163 3t97 9q-2 -18 -3 -55t-2 -82t0 -92t3 -84l-51 -4q-4 35 -12 75t-21 80q-8 25 -19 41.5 t-34.5 26.5t-65.5 14.5t-112 4.5h-168q-16 0 -21.5 -6.5t-7.5 -26.5q-2 -43 -4 -103.5t-2 -140.5v-244q16 0 57.5 -1t63.5 -1q68 0 109 5.5t63.5 22.5t32.5 48t14 80h51q-8 -98 -8 -200.5t6 -200.5l-51 2q-6 57 -14 92t-30.5 54t-63.5 26.5t-111 7.5q-31 0 -66.5 -1 t-52.5 -3v-226q0 -76 2 -157.5t6 -132.5q0 -16 6.5 -26.5t27 -17t61.5 -8.5t114 -2q72 0 119 3t78 10.5t49.5 21.5t32.5 37q25 35 45 94.5t35 114.5l47 -4q0 -16 -6 -65.5t-14.5 -104.5t-15.5 -104.5t-11 -67.5q-41 4 -128 6t-255 2h-246q-29 0 -66.5 -1t-74.5 -1 q-37 -2 -71 -3t-56 -1zM420 1427q20 14 59 43t80 60t77 57.5t48 36.5q20 12 44 20.5t44 4.5q27 -4 43 -19.5t12 -50.5q-4 -31 -30.5 -54.5t-59.5 -35.5q-29 -10 -103.5 -38t-184.5 -67z" />
<glyph unicode="&#xca;" horiz-adv-x="1032" d="M33 -6l2 53l123 12q27 2 37 18.5t12 59.5q6 123 6 262v467q0 104 -1 183t-3 122q0 29 -13.5 39.5t-48.5 14.5l-98 8v53q20 0 49 -1t64 -1q35 -2 71.5 -3t71.5 -1h309q92 0 163 3t97 9q-2 -18 -3 -55t-2 -82t0 -92t3 -84l-51 -4q-4 35 -12 75t-21 80q-8 25 -19 41.5 t-34.5 26.5t-65.5 14.5t-112 4.5h-168q-16 0 -21.5 -6.5t-7.5 -26.5q-2 -43 -4 -103.5t-2 -140.5v-244q16 0 57.5 -1t63.5 -1q68 0 109 5.5t63.5 22.5t32.5 48t14 80h51q-8 -98 -8 -200.5t6 -200.5l-51 2q-6 57 -14 92t-30.5 54t-63.5 26.5t-111 7.5q-31 0 -66.5 -1 t-52.5 -3v-226q0 -76 2 -157.5t6 -132.5q0 -16 6.5 -26.5t27 -17t61.5 -8.5t114 -2q72 0 119 3t78 10.5t49.5 21.5t32.5 37q25 35 45 94.5t35 114.5l47 -4q0 -16 -6 -65.5t-14.5 -104.5t-15.5 -104.5t-11 -67.5q-41 4 -128 6t-255 2h-246q-29 0 -66.5 -1t-74.5 -1 q-37 -2 -71 -3t-56 -1zM256 1432q104 66 158.5 123t81.5 96l47 6q10 -18 29.5 -45t49 -57.5t68.5 -62.5t88 -60l-28 -50q-27 10 -59 24.5t-62.5 31t-60 33t-50.5 30.5q-47 -29 -112.5 -63.5t-118.5 -55.5z" />
<glyph unicode="&#xcb;" horiz-adv-x="1032" d="M33 -6l2 53l123 12q27 2 37 18.5t12 59.5q6 123 6 262v467q0 104 -1 183t-3 122q0 29 -13.5 39.5t-48.5 14.5l-98 8v53q20 0 49 -1t64 -1q35 -2 71.5 -3t71.5 -1h309q92 0 163 3t97 9q-2 -18 -3 -55t-2 -82t0 -92t3 -84l-51 -4q-4 35 -12 75t-21 80q-8 25 -19 41.5 t-34.5 26.5t-65.5 14.5t-112 4.5h-168q-16 0 -21.5 -6.5t-7.5 -26.5q-2 -43 -4 -103.5t-2 -140.5v-244q16 0 57.5 -1t63.5 -1q68 0 109 5.5t63.5 22.5t32.5 48t14 80h51q-8 -98 -8 -200.5t6 -200.5l-51 2q-6 57 -14 92t-30.5 54t-63.5 26.5t-111 7.5q-31 0 -66.5 -1 t-52.5 -3v-226q0 -76 2 -157.5t6 -132.5q0 -16 6.5 -26.5t27 -17t61.5 -8.5t114 -2q72 0 119 3t78 10.5t49.5 21.5t32.5 37q25 35 45 94.5t35 114.5l47 -4q0 -16 -6 -65.5t-14.5 -104.5t-15.5 -104.5t-11 -67.5q-41 4 -128 6t-255 2h-246q-29 0 -66.5 -1t-74.5 -1 q-37 -2 -71 -3t-56 -1zM262 1497q0 43 24.5 68.5t63.5 25.5h2q39 0 61.5 -25.5t22.5 -60.5q0 -45 -29.5 -70.5t-60.5 -25.5t-57.5 20.5t-26.5 67.5zM596 1497q0 43 24.5 68.5t63.5 25.5h2q41 0 63.5 -25.5t22.5 -60.5q0 -45 -29.5 -70.5t-62.5 -25.5q-31 0 -57.5 20.5 t-26.5 67.5z" />
<glyph unicode="&#xcc;" horiz-adv-x="569" d="M-12 1559q-4 29 15.5 48t47.5 23q43 6 86 -24q12 -8 43 -34t67 -55.5t68.5 -58t49.5 -41.5l-27 -39q-45 14 -89 29.5t-81 28t-62.5 21.5t-35.5 13q-27 10 -52.5 34t-29.5 55zM47 1231l2 55q39 -2 104.5 -4t125.5 -2q59 0 125.5 3t113.5 3v-55q-47 -2 -76.5 -5t-47 -11.5 t-23.5 -19.5t-9 -30q-2 -29 -4 -77t-2 -140v-565q0 -96 1 -153.5t5 -108.5q2 -41 33 -54.5t123 -17.5v-55q-53 2 -120.5 4t-121.5 2q-49 0 -113.5 -1t-111.5 -5v55q47 2 78 6t47.5 11.5t23.5 20.5t9 32q4 35 5 89t1 171v555v129t-2 86q0 25 -7 40t-24.5 22.5t-50.5 11.5 t-84 8z" />
<glyph unicode="&#xcd;" horiz-adv-x="569" d="M47 1231l2 55q39 -2 104.5 -4t125.5 -2q59 0 125.5 3t113.5 3v-55q-47 -2 -76.5 -5t-47 -11.5t-23.5 -19.5t-9 -30q-2 -29 -4 -77t-2 -140v-565q0 -96 1 -153.5t5 -108.5q2 -41 33 -54.5t123 -17.5v-55q-53 2 -120.5 4t-121.5 2q-49 0 -113.5 -1t-111.5 -5v55q47 2 78 6 t47.5 11.5t23.5 20.5t9 32q4 35 5 89t1 171v555v129t-2 86q0 25 -7 40t-24.5 22.5t-50.5 11.5t-84 8zM178 1419q20 14 59 43t80 59.5t77 57.5t48 37q20 12 44 20.5t44 3.5q27 -4 43.5 -19t12.5 -50q-4 -31 -31 -54.5t-59 -35.5q-29 -10 -104 -38t-185 -67z" />
<glyph unicode="&#xce;" horiz-adv-x="569" d="M20 1425q104 66 158.5 123.5t81.5 96.5l47 6q10 -18 29.5 -45t49.5 -57.5t69 -62.5t88 -61l-29 -49q-27 10 -58.5 24.5t-62.5 31t-60.5 33t-49.5 30.5q-47 -29 -113 -63.5t-119 -55.5zM47 1231l2 55q39 -2 104.5 -4t125.5 -2q59 0 125.5 3t113.5 3v-55q-47 -2 -76.5 -5 t-47 -11.5t-23.5 -19.5t-9 -30q-2 -29 -4 -77t-2 -140v-565q0 -96 1 -153.5t5 -108.5q2 -41 33 -54.5t123 -17.5v-55q-53 2 -120.5 4t-121.5 2q-49 0 -113.5 -1t-111.5 -5v55q47 2 78 6t47.5 11.5t23.5 20.5t9 32q4 35 5 89t1 171v555v129t-2 86q0 25 -7 40t-24.5 22.5 t-50.5 11.5t-84 8z" />
<glyph unicode="&#xcf;" horiz-adv-x="569" d="M31 1489q0 43 24.5 68.5t63.5 25.5h2q39 0 61.5 -25.5t22.5 -60.5q0 -45 -30 -70.5t-60 -25.5q-31 0 -57.5 20.5t-26.5 67.5zM47 1231l2 55q39 -2 104.5 -4t125.5 -2q59 0 125.5 3t113.5 3v-55q-47 -2 -76.5 -5t-47 -11.5t-23.5 -19.5t-9 -30q-2 -29 -4 -77t-2 -140v-565 q0 -96 1 -153.5t5 -108.5q2 -41 33 -54.5t123 -17.5v-55q-53 2 -120.5 4t-121.5 2q-49 0 -113.5 -1t-111.5 -5v55q47 2 78 6t47.5 11.5t23.5 20.5t9 32q4 35 5 89t1 171v555v129t-2 86q0 25 -7 40t-24.5 22.5t-50.5 11.5t-84 8zM365 1489q0 43 24.5 68.5t63.5 25.5h2 q41 0 63.5 -25.5t22.5 -60.5q0 -45 -30 -70.5t-62 -25.5q-31 0 -57.5 20.5t-26.5 67.5z" />
<glyph unicode="&#xd0;" horiz-adv-x="1282" d="M55 629l13 80q29 -2 73.5 -3t98.5 -4v187q0 117 -1 184.5t-1 100.5q-2 41 -43 47l-119 12l4 53q35 0 99.5 -3t117.5 -3q66 2 133.5 4t138.5 2q154 0 246 -22.5t150 -61.5q109 -72 170 -201t61 -315q0 -102 -17.5 -195.5t-55.5 -174t-99 -146.5t-150 -111 q-66 -35 -152.5 -50t-178.5 -15q-29 0 -56.5 1t-56.5 1q-35 2 -68.5 3t-68.5 1q-27 0 -60.5 -1t-66.5 -2t-60.5 -2t-42.5 -1l3 53l88 8q41 4 56 15.5t17 40.5q4 33 8.5 122t4.5 218v184q-47 2 -91.5 0t-93.5 -6zM383 297q0 -57 1 -96t2 -62.5t3 -40.5q0 -12 5 -20 t18.5 -14.5t39 -8.5t68.5 -2q160 0 253 45t147 121q49 72 79.5 183.5t30.5 279.5q0 141 -32.5 241.5t-79.5 157.5q-61 72 -151.5 108t-231.5 36q-49 0 -78 -3t-43.5 -8.5t-18.5 -12.5t-4 -15q-2 -12 -3 -32.5t-2 -55.5t-2 -88.5t-1 -128.5v-181q104 0 185 2.5t143 6.5 l-11 -80q-18 0 -53 1t-78 2t-91 2t-95 1v-195v-143z" />
<glyph unicode="&#xd1;" horiz-adv-x="1253" d="M31 -6l2 55q23 0 52.5 3t51.5 7q35 6 46.5 29t17.5 62q4 31 8 124t8 227t7 301t3 347q-4 14 -7 25.5t-13 21.5q-8 10 -25.5 16.5t-48.5 10.5l-90 8v55q29 0 78 -3t88 -3t67.5 1t57.5 5q14 -25 37.5 -61.5t66.5 -106.5q20 -35 72.5 -116.5t127.5 -198.5t168 -263.5 t198 -308.5q2 240 1 402t-3.5 266.5t-5.5 157.5t-5 73q-4 55 -22.5 72t-75.5 23l-96 6l10 55q59 0 118.5 -3t112.5 -3q57 0 112.5 3t88.5 3v-55q-35 -4 -57.5 -7t-44.5 -10q-23 -4 -33 -20t-14 -53q-4 -29 -7.5 -87.5t-6.5 -141.5t-5 -185t-2 -219v-514q-37 -6 -82 -21 q-63 106 -149 246.5t-180.5 292.5t-190.5 304.5t-180 283.5q0 -201 1 -366t2 -288.5t3 -202.5t6 -106q8 -37 23.5 -52t39.5 -19q23 -4 60 -8.5t67 -8.5l-2 -55q-41 0 -107.5 3t-141.5 3q-66 0 -117 -3t-90 -3zM418 1391q2 39 11 77.5t27.5 70.5t47 51.5t69.5 19.5 q29 0 55.5 -14.5t63.5 -47.5q33 -29 52.5 -40t33.5 -11q49 0 64 121l55 -10q-2 -43 -10 -83t-24.5 -70t-43 -47t-63.5 -17q-29 0 -58.5 17t-70.5 52q-23 20 -42.5 32.5t-37.5 12.5q-27 0 -45.5 -35.5t-24.5 -83.5z" />
<glyph unicode="&#xd2;" horiz-adv-x="1228" d="M88 627q0 143 35 268t104.5 217t170 145.5t233.5 53.5h2q133 0 229 -56.5t157.5 -147.5t91.5 -207t30 -236q0 -184 -40 -315.5t-110.5 -215.5t-167 -124t-209.5 -40q-115 0 -211 41t-165.5 123t-109.5 205t-40 289zM254 645q0 -141 29.5 -260t70.5 -190q53 -92 122 -129 t153 -37q78 0 142.5 33.5t115.5 123.5q41 70 64.5 192t23.5 267q0 135 -23.5 249t-66.5 196q-45 80 -110.5 122.5t-158.5 42.5h-2q-172 0 -268 -165q-41 -72 -66.5 -187t-25.5 -258zM340 1569q-4 29 15.5 48t47.5 23q43 6 86 -24q12 -8 43 -34t67 -55.5t68.5 -58t49.5 -41.5 l-27 -38q-45 14 -89 29.5t-81 27.5t-62.5 21.5t-35.5 13.5q-27 10 -52.5 33.5t-29.5 54.5z" />
<glyph unicode="&#xd3;" horiz-adv-x="1228" d="M88 627q0 143 35 268t104.5 217t170 145.5t233.5 53.5h2q133 0 229 -56.5t157.5 -147.5t91.5 -207t30 -236q0 -184 -40 -315.5t-110.5 -215.5t-167 -124t-209.5 -40q-115 0 -211 41t-165.5 123t-109.5 205t-40 289zM254 645q0 -141 29.5 -260t70.5 -190q53 -92 122 -129 t153 -37q78 0 142.5 33.5t115.5 123.5q41 70 64.5 192t23.5 267q0 135 -23.5 249t-66.5 196q-45 80 -110.5 122.5t-158.5 42.5h-2q-172 0 -268 -165q-41 -72 -66.5 -187t-25.5 -258zM485 1434q20 14 59.5 42.5t80.5 59.5t76.5 57.5t48.5 36.5q20 12 43.5 20.5t44.5 4.5 q27 -4 43 -19.5t12 -50.5q-4 -31 -30.5 -54.5t-59.5 -35.5q-29 -10 -103.5 -37.5t-185.5 -66.5z" />
<glyph unicode="&#xd4;" horiz-adv-x="1228" d="M88 627q0 143 35 268t104.5 217t170 145.5t233.5 53.5h2q133 0 229 -56.5t157.5 -147.5t91.5 -207t30 -236q0 -184 -40 -315.5t-110.5 -215.5t-167 -124t-209.5 -40q-115 0 -211 41t-165.5 123t-109.5 205t-40 289zM254 645q0 -141 29.5 -260t70.5 -190q53 -92 122 -129 t153 -37q78 0 142.5 33.5t115.5 123.5q41 70 64.5 192t23.5 267q0 135 -23.5 249t-66.5 196q-45 80 -110.5 122.5t-158.5 42.5h-2q-172 0 -268 -165q-41 -72 -66.5 -187t-25.5 -258zM358 1430q104 66 158.5 123t81.5 96l47 6q10 -18 29.5 -45t49.5 -57.5t68.5 -62.5 t88.5 -60l-29 -50q-27 10 -58.5 24.5t-62.5 31t-60.5 33t-49.5 30.5q-47 -29 -113 -63.5t-119 -55.5z" />
<glyph unicode="&#xd5;" horiz-adv-x="1228" d="M88 627q0 143 35 268t104.5 217t170 145.5t233.5 53.5h2q133 0 229 -56.5t157.5 -147.5t91.5 -207t30 -236q0 -184 -40 -315.5t-110.5 -215.5t-167 -124t-209.5 -40q-115 0 -211 41t-165.5 123t-109.5 205t-40 289zM254 645q0 -141 29.5 -260t70.5 -190q53 -92 122 -129 t153 -37q78 0 142.5 33.5t115.5 123.5q41 70 64.5 192t23.5 267q0 135 -23.5 249t-66.5 196q-45 80 -110.5 122.5t-158.5 42.5h-2q-172 0 -268 -165q-41 -72 -66.5 -187t-25.5 -258zM373 1397q2 39 11 77.5t27.5 70.5t47 51.5t69.5 19.5q29 0 55.5 -14.5t63.5 -47.5 q33 -29 52.5 -40t33.5 -11q49 0 64 121l55 -10q-2 -43 -10 -83t-24.5 -69.5t-43 -47t-63.5 -17.5q-29 0 -58.5 17.5t-70.5 51.5q-23 20 -42.5 32.5t-37.5 12.5q-27 0 -45.5 -35.5t-24.5 -82.5z" />
<glyph unicode="&#xd6;" horiz-adv-x="1228" d="M88 627q0 143 35 268t104.5 217t170 145.5t233.5 53.5h2q133 0 229 -56.5t157.5 -147.5t91.5 -207t30 -236q0 -184 -40 -315.5t-110.5 -215.5t-167 -124t-209.5 -40q-115 0 -211 41t-165.5 123t-109.5 205t-40 289zM254 645q0 -141 29.5 -260t70.5 -190q53 -92 122 -129 t153 -37q78 0 142.5 33.5t115.5 123.5q41 70 64.5 192t23.5 267q0 135 -23.5 249t-66.5 196q-45 80 -110.5 122.5t-158.5 42.5h-2q-172 0 -268 -165q-41 -72 -66.5 -187t-25.5 -258zM358 1501q0 43 25 68.5t63 25.5h3q39 0 61 -25.5t22 -60.5q0 -45 -29.5 -70.5t-60.5 -25.5 t-57.5 20.5t-26.5 67.5zM692 1501q0 43 24.5 68.5t63.5 25.5h2q41 0 63.5 -25.5t22.5 -60.5q0 -45 -29.5 -70.5t-62.5 -25.5q-31 0 -57.5 20.5t-26.5 67.5z" />
<glyph unicode="&#xd7;" horiz-adv-x="1013" d="M113 139l329 336l-329 332l67 72l328 -336l326 340l67 -74l-330 -334l330 -336l-67 -71l-326 340l-328 -340z" />
<glyph unicode="&#xd8;" horiz-adv-x="1230" d="M86 635q0 139 36 262t106.5 215t172 145.5t234.5 53.5q88 0 159.5 -25.5t129.5 -71.5q27 39 41 62.5t32 58.5l64 -43q-23 -35 -37 -59.5t-43 -65.5q82 -92 122 -226t40 -271q0 -182 -43 -314.5t-117 -218.5t-170 -127t-203 -41q-174 0 -291 92q-25 -41 -43 -69.5 t-43 -69.5l-65 41q25 41 45 72t49 71q-82 82 -129 215.5t-47 313.5zM254 639q0 -272 80 -420q139 229 274 459.5t264 449.5q-41 66 -104 96.5t-147 30.5h-3q-78 0 -147.5 -37.5t-118.5 -119.5q-41 -72 -69.5 -188.5t-28.5 -270.5zM371 152q47 -59 107.5 -91t125.5 -32h2 q88 0 159 32.5t122 120.5q39 72 64.5 195t25.5 291q0 117 -14.5 214t-53.5 175q-59 -96 -128.5 -215t-141.5 -241t-141.5 -238.5t-126.5 -210.5z" />
<glyph unicode="&#xd9;" horiz-adv-x="1247" d="M41 1231v57q57 -2 115.5 -5t107.5 -3q41 0 105.5 3t124.5 5l2 -55l-111 -12q-39 -4 -41 -52q-4 -53 -7 -153.5t-3 -216t2 -231t6 -201.5q4 -90 23.5 -136.5t50.5 -80.5q39 -47 106.5 -73t139.5 -26h2q68 0 125 14.5t100 54.5t68.5 110.5t31.5 181.5q6 100 7 208.5t1 208 t-3 180.5t-5 128q-4 59 -25.5 70.5t-58.5 15.5l-94 8l-6 57q49 -2 104.5 -5t98.5 -3q49 0 103 3t108 5l10 -57l-72 -6q-41 -4 -56.5 -19.5t-17.5 -50.5q-4 -121 -7 -239.5t-5 -227t-6 -200t-10 -154.5q-12 -104 -46 -168t-96 -113q-53 -41 -125.5 -62.5t-171.5 -21.5 q-104 0 -194 30t-146 97q-23 27 -38 55.5t-24 67.5t-14 92.5t-5 126.5v97.5v135v151.5t-1 147.5t-2.5 119t-1.5 70.5q-2 35 -9 47.5t-31 16.5zM369 1565q-4 29 15 48t48 23q43 6 86 -24q12 -8 43 -34t67 -55.5t68.5 -58t48.5 -41.5l-26 -39q-45 14 -89 30t-81 28t-62.5 21.5 t-35.5 13.5q-27 10 -52.5 33.5t-29.5 54.5z" />
<glyph unicode="&#xda;" horiz-adv-x="1247" d="M41 1231v57q57 -2 115.5 -5t107.5 -3q41 0 105.5 3t124.5 5l2 -55l-111 -12q-39 -4 -41 -52q-4 -53 -7 -153.5t-3 -216t2 -231t6 -201.5q4 -90 23.5 -136.5t50.5 -80.5q39 -47 106.5 -73t139.5 -26h2q68 0 125 14.5t100 54.5t68.5 110.5t31.5 181.5q6 100 7 208.5t1 208 t-3 180.5t-5 128q-4 59 -25.5 70.5t-58.5 15.5l-94 8l-6 57q49 -2 104.5 -5t98.5 -3q49 0 103 3t108 5l10 -57l-72 -6q-41 -4 -56.5 -19.5t-17.5 -50.5q-4 -121 -7 -239.5t-5 -227t-6 -200t-10 -154.5q-12 -104 -46 -168t-96 -113q-53 -41 -125.5 -62.5t-171.5 -21.5 q-104 0 -194 30t-146 97q-23 27 -38 55.5t-24 67.5t-14 92.5t-5 126.5v97.5v135v151.5t-1 147.5t-2.5 119t-1.5 70.5q-2 35 -9 47.5t-31 16.5zM524 1427q20 14 59.5 43t80.5 60t76.5 57.5t47.5 36.5q20 12 44 20.5t45 4.5q27 -4 43 -19.5t12 -50.5q-4 -31 -31 -54.5 t-59 -35.5q-29 -10 -103.5 -38t-185.5 -67z" />
<glyph unicode="&#xdb;" horiz-adv-x="1247" d="M41 1231v57q57 -2 115.5 -5t107.5 -3q41 0 105.5 3t124.5 5l2 -55l-111 -12q-39 -4 -41 -52q-4 -53 -7 -153.5t-3 -216t2 -231t6 -201.5q4 -90 23.5 -136.5t50.5 -80.5q39 -47 106.5 -73t139.5 -26h2q68 0 125 14.5t100 54.5t68.5 110.5t31.5 181.5q6 100 7 208.5t1 208 t-3 180.5t-5 128q-4 59 -25.5 70.5t-58.5 15.5l-94 8l-6 57q49 -2 104.5 -5t98.5 -3q49 0 103 3t108 5l10 -57l-72 -6q-41 -4 -56.5 -19.5t-17.5 -50.5q-4 -121 -7 -239.5t-5 -227t-6 -200t-10 -154.5q-12 -104 -46 -168t-96 -113q-53 -41 -125.5 -62.5t-171.5 -21.5 q-104 0 -194 30t-146 97q-23 27 -38 55.5t-24 67.5t-14 92.5t-5 126.5v97.5v135v151.5t-1 147.5t-2.5 119t-1.5 70.5q-2 35 -9 47.5t-31 16.5zM387 1432q104 66 158.5 123t81.5 96l47 6q10 -18 29.5 -45t49 -57.5t68.5 -62.5t88 -60l-28 -50q-27 10 -58.5 24.5t-62.5 31 t-60.5 33t-50.5 30.5q-47 -29 -112.5 -63.5t-118.5 -55.5z" />
<glyph unicode="&#xdc;" horiz-adv-x="1247" d="M41 1231v57q57 -2 115.5 -5t107.5 -3q41 0 105.5 3t124.5 5l2 -55l-111 -12q-39 -4 -41 -52q-4 -53 -7 -153.5t-3 -216t2 -231t6 -201.5q4 -90 23.5 -136.5t50.5 -80.5q39 -47 106.5 -73t139.5 -26h2q68 0 125 14.5t100 54.5t68.5 110.5t31.5 181.5q6 100 7 208.5t1 208 t-3 180.5t-5 128q-4 59 -25.5 70.5t-58.5 15.5l-94 8l-6 57q49 -2 104.5 -5t98.5 -3q49 0 103 3t108 5l10 -57l-72 -6q-41 -4 -56.5 -19.5t-17.5 -50.5q-4 -121 -7 -239.5t-5 -227t-6 -200t-10 -154.5q-12 -104 -46 -168t-96 -113q-53 -41 -125.5 -62.5t-171.5 -21.5 q-104 0 -194 30t-146 97q-23 27 -38 55.5t-24 67.5t-14 92.5t-5 126.5v97.5v135v151.5t-1 147.5t-2.5 119t-1.5 70.5q-2 35 -9 47.5t-31 16.5zM399 1493q0 43 25 68.5t63 25.5h2q39 0 61.5 -25.5t22.5 -60.5q0 -45 -29.5 -70.5t-60.5 -25.5t-57.5 20.5t-26.5 67.5zM733 1493 q0 43 24.5 68.5t63.5 25.5h2q41 0 63.5 -25.5t22.5 -60.5q0 -45 -29.5 -70.5t-62.5 -25.5q-31 0 -57.5 20.5t-26.5 67.5z" />
<glyph unicode="&#xdd;" horiz-adv-x="1026" d="M-33 1233l2 53q25 0 81 -3t114 -3q66 0 125 3t106 3l6 -53l-84 -10q-23 -2 -25.5 -10.5t5.5 -24.5q18 -41 51 -106.5t72 -139.5t77 -148.5t68 -134.5q100 190 161.5 312.5t90.5 193.5q12 29 10 40.5t-24 15.5q-25 4 -48.5 6t-56.5 4l7 55q35 0 91 -3t99 -3q37 0 85 3 t97 3l4 -55q-41 -2 -68.5 -6t-47 -15.5t-37 -30t-35.5 -49.5q-27 -43 -62.5 -104t-72.5 -130t-73 -136.5t-62 -118.5q-25 -55 -25 -102v-105.5v-122t2 -118t4 -89.5q2 -20 11.5 -28t37.5 -13q20 -4 54 -7t81 -7l9 -55q-86 2 -156 4t-141 2q-63 0 -125 -3t-127 -3l-6 55 q33 4 68.5 7t66.5 7q35 4 50 17.5t17 48.5q2 27 4.5 76t3.5 105.5t2 112.5t1 99q0 35 -7.5 56.5t-17.5 48.5q-12 27 -45 90t-73 138t-81 149.5t-71 125.5q-20 33 -37 52.5t-37 31t-48 14.5t-71 5zM416 1427q20 14 59 43t80 60t77 57.5t48 36.5q20 12 44 20.5t44 4.5 q27 -4 43 -19.5t12 -50.5q-4 -31 -30.5 -54.5t-59.5 -35.5q-29 -10 -103.5 -38t-185.5 -67z" />
<glyph unicode="&#xde;" horiz-adv-x="1024" d="M47 -6l2 55q51 4 81 8t46.5 11.5t21.5 21.5t7 37q4 53 6 116.5t2 151.5v510v256q0 20 -6 33.5t-23.5 21t-49.5 10.5t-81 5l6 55q35 -2 94.5 -4t122.5 -2q55 0 115 3t119 3v-55q-49 0 -78 -3t-44 -10.5t-19 -17.5t-7 -24q-2 -23 -3 -59t-1 -83q41 4 84 6t109 2 q115 0 188.5 -28.5t114.5 -71.5q43 -47 66.5 -111.5t23.5 -154.5q0 -98 -29.5 -168t-80.5 -123q-55 -57 -138.5 -85t-179.5 -28q-47 0 -90 7.5t-72 15.5v-84t4 -90q0 -20 5.5 -32.5t21.5 -21t52 -12.5t98 -6l-5 -55q-61 2 -133.5 4t-126.5 2q-47 0 -108.5 -2t-114.5 -4z M354 371q23 -14 64 -24.5t92 -10.5q74 0 128 25.5t85 70.5q29 39 45 99.5t16 140.5q0 74 -15 133t-50 98q-39 43 -96.5 61.5t-143.5 18.5q-41 0 -63.5 -2t-34.5 -7t-16.5 -11.5t-4.5 -12.5q-6 -43 -6 -149v-430z" />
<glyph unicode="&#xdf;" horiz-adv-x="1077" d="M49 813l2 59h139v19q0 98 27 194.5t98 174.5q49 53 123 89.5t170 36.5q80 0 139.5 -21.5t97.5 -60t56.5 -92t18.5 -116.5q0 -49 -17 -92q-68 -23 -111.5 -50.5t-71.5 -60.5t-39 -66.5t-11 -66.5q0 -41 16 -73t45 -58q27 -25 63.5 -55.5t71.5 -59.5q61 -47 98 -103.5 t37 -146.5q0 -68 -25.5 -122t-68.5 -91t-99 -56.5t-118 -19.5q-63 0 -112.5 10.5t-85.5 22.5q2 53 -1.5 105.5t-7.5 95.5l49 8q18 -98 60.5 -141t124.5 -43q61 0 111.5 43t50.5 137q0 51 -21.5 90t-56.5 72q-37 33 -63.5 57.5t-61.5 50.5q-51 45 -86 95.5t-35 128.5 q0 86 61.5 165.5t171.5 133.5q8 18 12.5 43.5t4.5 50.5q0 39 -11.5 80t-37 73.5t-66.5 53t-98 20.5q-152 0 -213.5 -131t-61.5 -403v-431v-161.5t5 -89.5q2 -35 21 -46.5t93 -15.5l-4 -55q-55 0 -103 3t-106 3q-49 0 -96 -3t-76 -3v55q41 2 65.5 5t39 9.5t19.5 15.5t7 23 q4 29 6 104t2 230v365z" />
<glyph unicode="&#xe0;" horiz-adv-x="880" d="M80 215q0 55 22.5 104.5t81.5 77.5q49 23 106.5 46.5t113 47t101.5 46t73 45.5v96q0 33 -8.5 62.5t-28 53t-50 38t-73.5 14.5q-92 0 -133 -41t-41 -100q0 -16 2 -33t6 -27t-1 -20.5t-11 -14.5q-10 -8 -22.5 -13t-29.5 -5q-29 0 -49 19.5t-20 64.5q0 37 23.5 77t65.5 73.5 t102.5 55t133.5 21.5q51 0 91 -10t68 -25.5t45.5 -34t27.5 -32.5q12 -20 20.5 -50t8.5 -59v-538q0 -61 15 -79t36 -18q51 0 78 117l47 -18q-18 -102 -65.5 -143.5t-106.5 -41.5q-70 0 -97.5 41t-33.5 105q-61 -70 -132 -108t-139 -38q-109 0 -168 70t-59 174zM223 1331 q2 35 20.5 52.5t39.5 17.5q23 0 48 -17.5t40 -50.5q10 -23 30.5 -64.5t43 -87.5t43 -88t30.5 -63l-41 -29q-35 39 -68.5 77t-63.5 71t-51.5 55.5t-29.5 32.5q-18 18 -29.5 46t-11.5 48zM227 236q0 -72 37 -123.5t105 -51.5q74 0 121 38t77 106q6 16 8.5 38.5t2.5 39.5v237 q-43 -27 -115 -60.5t-133 -68.5q-45 -25 -74 -55.5t-29 -97.5v-2z" />
<glyph unicode="&#xe1;" horiz-adv-x="880" d="M80 215q0 55 22.5 104.5t81.5 77.5q49 23 106.5 46.5t113 47t101.5 46t73 45.5v96q0 33 -8.5 62.5t-28 53t-50 38t-73.5 14.5q-92 0 -133 -41t-41 -100q0 -16 2 -33t6 -27t-1 -20.5t-11 -14.5q-10 -8 -22.5 -13t-29.5 -5q-29 0 -49 19.5t-20 64.5q0 37 23.5 77t65.5 73.5 t102.5 55t133.5 21.5q51 0 91 -10t68 -25.5t45.5 -34t27.5 -32.5q12 -20 20.5 -50t8.5 -59v-538q0 -61 15 -79t36 -18q51 0 78 117l47 -18q-18 -102 -65.5 -143.5t-106.5 -41.5q-70 0 -97.5 41t-33.5 105q-61 -70 -132 -108t-139 -38q-109 0 -168 70t-59 174zM227 236 q0 -72 37 -123.5t105 -51.5q74 0 121 38t77 106q6 16 8.5 38.5t2.5 39.5v237q-43 -27 -115 -60.5t-133 -68.5q-45 -25 -74 -55.5t-29 -97.5v-2zM346 1030q14 20 39 62.5t51.5 88.5t51 88t36.5 62q23 37 48.5 52.5t52.5 15.5q23 0 36 -15.5t13 -44.5q0 -27 -16.5 -56.5 t-39.5 -51.5q-29 -29 -87 -85t-144 -147z" />
<glyph unicode="&#xe2;" horiz-adv-x="880" d="M80 215q0 55 22.5 104.5t81.5 77.5q49 23 106.5 46.5t113 47t101.5 46t73 45.5v96q0 33 -8.5 62.5t-28 53t-50 38t-73.5 14.5q-92 0 -133 -41t-41 -100q0 -16 2 -33t6 -27t-1 -20.5t-11 -14.5q-10 -8 -22.5 -13t-29.5 -5q-29 0 -49 19.5t-20 64.5q0 37 23.5 77t65.5 73.5 t102.5 55t133.5 21.5q51 0 91 -10t68 -25.5t45.5 -34t27.5 -32.5q12 -20 20.5 -50t8.5 -59v-538q0 -61 15 -79t36 -18q51 0 78 117l47 -18q-18 -102 -65.5 -143.5t-106.5 -41.5q-70 0 -97.5 41t-33.5 105q-61 -70 -132 -108t-139 -38q-109 0 -168 70t-59 174zM217 1032 q92 123 138 216t65 134l45 15q16 -49 64.5 -144.5t136.5 -220.5l-41 -35q-18 18 -42 44t-49.5 54.5t-50 58.5t-43.5 58q-39 -55 -92 -114.5t-92 -100.5zM227 236q0 -72 37 -123.5t105 -51.5q74 0 121 38t77 106q6 16 8.5 38.5t2.5 39.5v237q-43 -27 -115 -60.5t-133 -68.5 q-45 -25 -74 -55.5t-29 -97.5v-2z" />
<glyph unicode="&#xe3;" horiz-adv-x="880" d="M80 215q0 55 22.5 104.5t81.5 77.5q49 23 106.5 46.5t113 47t101.5 46t73 45.5v96q0 33 -8.5 62.5t-28 53t-50 38t-73.5 14.5q-92 0 -133 -41t-41 -100q0 -16 2 -33t6 -27t-1 -20.5t-11 -14.5q-10 -8 -22.5 -13t-29.5 -5q-29 0 -49 19.5t-20 64.5q0 37 23.5 77t65.5 73.5 t102.5 55t133.5 21.5q51 0 91 -10t68 -25.5t45.5 -34t27.5 -32.5q12 -20 20.5 -50t8.5 -59v-538q0 -61 15 -79t36 -18q51 0 78 117l47 -18q-18 -102 -65.5 -143.5t-106.5 -41.5q-70 0 -97.5 41t-33.5 105q-61 -70 -132 -108t-139 -38q-109 0 -168 70t-59 174zM211 1061 q0 39 8 79t24.5 72.5t43 52t67.5 19.5q27 0 54.5 -14.5t62.5 -48.5q33 -33 52.5 -45.5t29.5 -12.5q25 0 42 28t21 99l54 -10q-2 -96 -32 -159.5t-101 -65.5q-31 0 -58.5 17.5t-66.5 55.5q-23 20 -39.5 34t-38.5 14q-29 0 -46.5 -34t-21.5 -87zM227 236q0 -72 37 -123.5 t105 -51.5q74 0 121 38t77 106q6 16 8.5 38.5t2.5 39.5v237q-43 -27 -115 -60.5t-133 -68.5q-45 -25 -74 -55.5t-29 -97.5v-2z" />
<glyph unicode="&#xe4;" horiz-adv-x="880" d="M80 215q0 55 22.5 104.5t81.5 77.5q49 23 106.5 46.5t113 47t101.5 46t73 45.5v96q0 33 -8.5 62.5t-28 53t-50 38t-73.5 14.5q-92 0 -133 -41t-41 -100q0 -16 2 -33t6 -27t-1 -20.5t-11 -14.5q-10 -8 -22.5 -13t-29.5 -5q-29 0 -49 19.5t-20 64.5q0 37 23.5 77t65.5 73.5 t102.5 55t133.5 21.5q51 0 91 -10t68 -25.5t45.5 -34t27.5 -32.5q12 -20 20.5 -50t8.5 -59v-538q0 -61 15 -79t36 -18q51 0 78 117l47 -18q-18 -102 -65.5 -143.5t-106.5 -41.5q-70 0 -97.5 41t-33.5 105q-61 -70 -132 -108t-139 -38q-109 0 -168 70t-59 174zM203 1190 q0 39 24.5 64.5t63.5 25.5h2q37 0 56.5 -24.5t19.5 -63.5q0 -41 -26 -64.5t-60 -23.5q-31 0 -55.5 21.5t-24.5 64.5zM227 236q0 -72 37 -123.5t105 -51.5q74 0 121 38t77 106q6 16 8.5 38.5t2.5 39.5v237q-43 -27 -115 -60.5t-133 -68.5q-45 -25 -74 -55.5t-29 -97.5v-2z M518 1190q0 39 24.5 64.5t63.5 25.5h2q37 0 56.5 -24.5t19.5 -61.5q0 -43 -25.5 -66.5t-60.5 -23.5q-31 0 -55.5 21.5t-24.5 64.5z" />
<glyph unicode="&#xe5;" horiz-adv-x="880" d="M80 215q0 55 22.5 104.5t81.5 77.5q49 23 106.5 46.5t113 47t101.5 46t73 45.5v96q0 33 -8.5 62.5t-28 53t-50 38t-73.5 14.5q-92 0 -133 -41t-41 -100q0 -16 2 -33t6 -27t-1 -20.5t-11 -14.5q-10 -8 -22.5 -13t-29.5 -5q-29 0 -49 19.5t-20 64.5q0 37 23.5 77t65.5 73.5 t102.5 55t133.5 21.5q51 0 91 -10t68 -25.5t45.5 -34t27.5 -32.5q12 -20 20.5 -50t8.5 -59v-538q0 -61 15 -79t36 -18q51 0 78 117l47 -18q-18 -102 -65.5 -143.5t-106.5 -41.5q-70 0 -97.5 41t-33.5 105q-61 -70 -132 -108t-139 -38q-109 0 -168 70t-59 174zM227 236 q0 -72 37 -123.5t105 -51.5q74 0 121 38t77 106q6 16 8.5 38.5t2.5 39.5v237q-43 -27 -115 -60.5t-133 -68.5q-45 -25 -74 -55.5t-29 -97.5v-2zM260 1188q0 86 53.5 132t130.5 46h2q78 0 125 -43t47 -125q0 -84 -54 -128t-128 -44q-76 0 -126 42t-50 120zM356 1198 q0 -61 25 -91t59 -30q27 0 43.5 13.5t25.5 33t11 40t2 36.5q0 41 -17.5 79t-64.5 38h-2q-25 0 -41 -12.5t-25.5 -30t-12.5 -37.5t-3 -39z" />
<glyph unicode="&#xe6;" horiz-adv-x="1316" d="M80 213q0 84 29.5 124t83.5 64q43 18 94 39t103 43.5t100.5 46t87.5 50.5v96q0 33 -9.5 63.5t-29 54t-50 38t-75.5 14.5q-82 0 -126 -36t-44 -105q0 -16 2 -32t6 -28q2 -25 -14 -39q-20 -16 -54 -16q-33 0 -49 23.5t-16 60.5q0 41 24.5 82t67.5 72.5t102.5 52t126.5 20.5 q100 0 162 -41t80 -106q41 66 108.5 106.5t157.5 40.5q96 0 156.5 -37t93.5 -90t43 -111.5t10 -101.5q0 -68 -43 -88q-12 -4 -38.5 -8t-60.5 -7t-74 -5t-77 -2q-55 0 -124.5 -1t-124.5 1q-4 -111 17.5 -184.5t49.5 -114.5q35 -49 84 -73t109 -24q94 0 146 47.5t87 135.5 l47 -27q-14 -45 -38.5 -87t-63.5 -76t-91 -54.5t-122 -20.5q-127 0 -205 53.5t-115 139.5q-25 -29 -56.5 -63.5t-70 -63.5t-85 -48.5t-101.5 -19.5q-53 0 -94 20.5t-68.5 53.5t-43 76t-15.5 92zM227 231q0 -68 38 -119t104 -51q68 0 118 38t78 112q6 16 9.5 35.5t3.5 36.5 v237q-23 -14 -52.5 -28.5t-62.5 -31t-67 -32.5t-64 -35q-23 -14 -42.5 -27.5t-33.5 -31t-21.5 -41t-7.5 -60.5v-2zM713 514q45 -4 83 -4h78q76 0 125.5 4t75.5 8q20 6 29.5 21.5t9.5 46.5q0 53 -10 99t-32.5 81t-57.5 55.5t-84 20.5h-2q-55 0 -95 -35t-67 -85t-40 -108.5 t-13 -103.5z" />
<glyph unicode="&#xe7;" horiz-adv-x="829" d="M74 422q0 96 27.5 183t82 153.5t132 105.5t176.5 39q125 0 200.5 -59.5t75.5 -151.5q0 -43 -21.5 -67.5t-60.5 -24.5q-23 0 -41 14q-16 12 -12 35q2 14 5 29.5t3 28.5q0 63 -36 102t-124 39q-63 0 -111 -33t-81 -89t-49.5 -131t-16.5 -157q0 -172 62 -270q35 -55 87 -84 t115 -29q96 0 151.5 48.5t94.5 152.5l45 -27q-29 -102 -96 -171t-184 -83q-10 -16 -20.5 -32.5t-20.5 -32.5q20 -4 42.5 -13.5t42 -26.5t33 -43t13.5 -65q0 -74 -48 -118.5t-130 -44.5q-35 0 -68 12t-45 22l20 56q16 -10 40 -16.5t46 -6.5q35 0 55.5 17.5t20.5 54.5 q0 41 -36.5 61.5t-90.5 20.5l-8 20q18 27 41 60.5t47 72.5q-170 2 -268 125q-43 53 -66.5 139.5t-23.5 184.5z" />
<glyph unicode="&#xe8;" horiz-adv-x="827" d="M76 416q0 92 23.5 180t70.5 155.5t118.5 109.5t168.5 42q94 0 153.5 -37t93 -90t46 -113.5t12.5 -105.5q0 -29 -9.5 -52.5t-35.5 -33.5q-29 -10 -102.5 -15t-163.5 -7h-232q-4 -98 17.5 -176t50.5 -121q70 -96 188 -97q90 0 143.5 43t92.5 142l49 -27 q-41 -121 -122 -181.5t-198 -60.5q-106 0 -172.5 36t-111.5 102q-39 53 -59.5 136t-20.5 171zM219 1331q2 35 20.5 52.5t39.5 17.5q23 0 48 -17.5t40 -50.5q10 -23 30.5 -64.5t43 -87.5t43 -88t30.5 -63l-41 -29q-35 39 -68.5 77t-63.5 71t-51.5 55.5t-29.5 32.5 q-18 18 -29.5 46t-11.5 48zM223 510h174q72 0 116 4t69 8q43 6 43 70q0 41 -8.5 86t-30 82t-57 61.5t-89.5 24.5h-2q-55 0 -95 -33t-65.5 -83t-39 -109.5t-15.5 -110.5z" />
<glyph unicode="&#xe9;" horiz-adv-x="827" d="M76 416q0 92 23.5 180t70.5 155.5t118.5 109.5t168.5 42q94 0 153.5 -37t93 -90t46 -113.5t12.5 -105.5q0 -29 -9.5 -52.5t-35.5 -33.5q-29 -10 -102.5 -15t-163.5 -7h-232q-4 -98 17.5 -176t50.5 -121q70 -96 188 -97q90 0 143.5 43t92.5 142l49 -27 q-41 -121 -122 -181.5t-198 -60.5q-106 0 -172.5 36t-111.5 102q-39 53 -59.5 136t-20.5 171zM223 510h174q72 0 116 4t69 8q43 6 43 70q0 41 -8.5 86t-30 82t-57 61.5t-89.5 24.5h-2q-55 0 -95 -33t-65.5 -83t-39 -109.5t-15.5 -110.5zM352 1030q14 20 39 62.5t51.5 88.5 t51 88t36.5 62q23 37 48.5 52.5t52.5 15.5q23 0 36 -15.5t13 -44.5q0 -27 -16.5 -56.5t-38.5 -51.5q-29 -29 -87.5 -85t-144.5 -147z" />
<glyph unicode="&#xea;" horiz-adv-x="827" d="M76 416q0 92 23.5 180t70.5 155.5t118.5 109.5t168.5 42q94 0 153.5 -37t93 -90t46 -113.5t12.5 -105.5q0 -29 -9.5 -52.5t-35.5 -33.5q-29 -10 -102.5 -15t-163.5 -7h-232q-4 -98 17.5 -176t50.5 -121q70 -96 188 -97q90 0 143.5 43t92.5 142l49 -27 q-41 -121 -122 -181.5t-198 -60.5q-106 0 -172.5 36t-111.5 102q-39 53 -59.5 136t-20.5 171zM217 1032q92 123 138 216t65 134l45 15q16 -49 64.5 -144.5t136.5 -220.5l-41 -35q-18 18 -42 44t-49.5 54.5t-50 58.5t-43.5 58q-39 -55 -92 -114.5t-92 -100.5zM223 510h174 q72 0 116 4t69 8q43 6 43 70q0 41 -8.5 86t-30 82t-57 61.5t-89.5 24.5h-2q-55 0 -95 -33t-65.5 -83t-39 -109.5t-15.5 -110.5z" />
<glyph unicode="&#xeb;" horiz-adv-x="827" d="M76 416q0 92 23.5 180t70.5 155.5t118.5 109.5t168.5 42q94 0 153.5 -37t93 -90t46 -113.5t12.5 -105.5q0 -29 -9.5 -52.5t-35.5 -33.5q-29 -10 -102.5 -15t-163.5 -7h-232q-4 -98 17.5 -176t50.5 -121q70 -96 188 -97q90 0 143.5 43t92.5 142l49 -27 q-41 -121 -122 -181.5t-198 -60.5q-106 0 -172.5 36t-111.5 102q-39 53 -59.5 136t-20.5 171zM199 1190q0 39 24.5 64.5t63.5 25.5h2q37 0 56.5 -24.5t19.5 -63.5q0 -41 -26 -64.5t-60 -23.5q-31 0 -55.5 21.5t-24.5 64.5zM223 510h174q72 0 116 4t69 8q43 6 43 70 q0 41 -8.5 86t-30 82t-57 61.5t-89.5 24.5h-2q-55 0 -95 -33t-65.5 -83t-39 -109.5t-15.5 -110.5zM514 1190q0 39 24.5 64.5t63.5 25.5h2q37 0 56.5 -24.5t19.5 -61.5q0 -43 -25.5 -66.5t-60.5 -23.5q-31 0 -55.5 21.5t-24.5 64.5z" />
<glyph unicode="&#xec;" horiz-adv-x="483" d="M16 1331q2 35 20.5 52.5t39.5 17.5q23 0 48.5 -17.5t39.5 -50.5q10 -23 30.5 -64.5t43 -87.5t43 -88t30.5 -63l-41 -29q-35 39 -68.5 77t-63 71t-51 55.5t-30.5 32.5q-18 18 -29.5 46t-11.5 48zM45 -6l2 55q43 2 69.5 5t41 9.5t19.5 15.5t5 23q2 29 5 94.5t3 170.5v219 q0 84 -1 133t-5 74q0 20 -25.5 24t-111.5 0l4 51q31 2 66 4t71.5 6.5t71.5 9.5t64 13q0 -35 -3.5 -113.5t-3.5 -183.5v-258q0 -100 2.5 -156.5t4.5 -89.5q2 -31 24.5 -40t100.5 -11l-5 -55q-41 0 -92 3t-112 3t-107.5 -3t-87.5 -3z" />
<glyph unicode="&#xed;" horiz-adv-x="483" d="M45 -6l2 55q43 2 69.5 5t41 9.5t19.5 15.5t5 23q2 29 5 94.5t3 170.5v219q0 84 -1 133t-5 74q0 20 -25.5 24t-111.5 0l4 51q31 2 66 4t71.5 6.5t71.5 9.5t64 13q0 -35 -3.5 -113.5t-3.5 -183.5v-258q0 -100 2.5 -156.5t4.5 -89.5q2 -31 24.5 -40t100.5 -11l-5 -55 q-41 0 -92 3t-112 3t-107.5 -3t-87.5 -3zM152 1030q14 20 38.5 62.5t51 88.5t51 88t37.5 62q23 37 48 52.5t52 15.5q23 0 36 -15.5t13 -44.5q0 -27 -16.5 -56.5t-38.5 -51.5q-29 -29 -87 -85t-144 -147z" />
<glyph unicode="&#xee;" horiz-adv-x="483" d="M10 1032q92 123 138.5 216t64.5 134l45 15q16 -49 64.5 -144.5t136.5 -220.5l-41 -35q-18 18 -42 44t-49.5 54.5t-50 58.5t-43.5 58q-39 -55 -92 -114.5t-92 -100.5zM45 -6l2 55q43 2 69.5 5t41 9.5t19.5 15.5t5 23q2 29 5 94.5t3 170.5v219q0 84 -1 133t-5 74 q0 20 -25.5 24t-111.5 0l4 51q31 2 66 4t71.5 6.5t71.5 9.5t64 13q0 -35 -3.5 -113.5t-3.5 -183.5v-258q0 -100 2.5 -156.5t4.5 -89.5q2 -31 24.5 -40t100.5 -11l-5 -55q-41 0 -92 3t-112 3t-107.5 -3t-87.5 -3z" />
<glyph unicode="&#xef;" horiz-adv-x="483" d="M4 1190q0 39 24.5 64.5t63.5 25.5h2q37 0 56.5 -24.5t19.5 -63.5q0 -41 -25.5 -64.5t-60.5 -23.5q-31 0 -55.5 21.5t-24.5 64.5zM45 -6l2 55q43 2 69.5 5t41 9.5t19.5 15.5t5 23q2 29 5 94.5t3 170.5v219q0 84 -1 133t-5 74q0 20 -25.5 24t-111.5 0l4 51q31 2 66 4 t71.5 6.5t71.5 9.5t64 13q0 -35 -3.5 -113.5t-3.5 -183.5v-258q0 -100 2.5 -156.5t4.5 -89.5q2 -31 24.5 -40t100.5 -11l-5 -55q-41 0 -92 3t-112 3t-107.5 -3t-87.5 -3zM319 1190q0 39 25 64.5t64 25.5h2q37 0 56 -24.5t19 -61.5q0 -43 -25.5 -66.5t-60.5 -23.5 q-31 0 -55.5 21.5t-24.5 64.5z" />
<glyph unicode="&#xf0;" horiz-adv-x="942" d="M76 416q0 104 30.5 194t85 154.5t129 101.5t162.5 37q61 0 106.5 -15.5t92.5 -51.5q-12 76 -42 151.5t-83 136.5q-68 -35 -140.5 -76.5t-135.5 -76.5l-29 65q80 43 147.5 79t108.5 59q-66 66 -141.5 101.5t-173.5 43.5l12 55q45 2 97 -8t104.5 -28.5t102.5 -47t93 -63.5 q66 37 114 64.5t89 49.5l26 -65q-29 -16 -74.5 -41t-105.5 -57q102 -117 152.5 -281t50.5 -354q0 -289 -106.5 -430.5t-292.5 -141.5q-90 0 -161 32t-119 90.5t-73.5 140t-25.5 182.5zM231 444q0 -174 50 -280q31 -68 79 -100.5t107 -32.5q66 0 107.5 29.5t74.5 101.5 q23 49 41.5 140t18.5 214q0 127 -21 189q-25 66 -76 102.5t-123 38.5q-133 4 -196 -121q-29 -53 -45.5 -124t-16.5 -157z" />
<glyph unicode="&#xf1;" horiz-adv-x="1019" d="M61 -6v55q37 2 60.5 4t37 8.5t18.5 18.5t7 31q4 47 5 103t1 116v190q0 86 -1 151.5t-3 106.5q-2 23 -22.5 29t-102.5 4l5 51q57 2 122.5 9.5t118.5 21.5q2 -14 4 -34.5t4 -42t3 -40t1 -28.5q27 27 57 54t66.5 49.5t78.5 37t93 14.5q92 0 142.5 -37t72.5 -84 q23 -51 23 -123v-557q0 -16 4 -26t17.5 -15.5t40 -7.5t71.5 -4l-6 -55q-41 0 -91 3t-112 3q-55 0 -100 -3t-82 -3l4 55q72 4 93.5 13.5t23.5 37.5q4 33 7 109t3 192q0 100 -1 157.5t-3 90.5t-5 47.5t-9 28.5q-18 41 -52 64.5t-92 23.5q-78 0 -134 -37t-91 -100 q-12 -23 -16.5 -47.5t-4.5 -57.5v-256v-119.5t5 -89.5q2 -35 24.5 -45t99.5 -12l-4 -55q-37 0 -97 3t-105 3q-47 0 -92.5 -3t-86.5 -3zM281 1061q0 39 8 79t24.5 72.5t43 52t67.5 19.5q27 0 54.5 -14.5t62.5 -48.5q33 -33 52 -45.5t30 -12.5q25 0 42 28t21 99l53 -10 q-2 -96 -31.5 -159.5t-101.5 -65.5q-31 0 -58.5 17.5t-66.5 55.5q-23 20 -39 34t-39 14q-29 0 -46 -34t-21 -87z" />
<glyph unicode="&#xf2;" horiz-adv-x="942" d="M76 432q0 92 25.5 177t76.5 150.5t127 104.5t176 39h2q98 0 170 -37t119 -100.5t70.5 -145t23.5 -174.5q0 -104 -25.5 -191t-75.5 -150.5t-125 -98.5t-171 -35q-102 0 -177 37t-123 99.5t-70.5 146.5t-22.5 178zM227 457q0 -88 16.5 -168t43.5 -131q72 -129 196 -129 q59 0 104.5 27.5t76.5 88.5q23 45 37 118t14 165t-15.5 169t-42.5 126q-29 53 -74.5 88t-113.5 35h-2q-61 0 -104.5 -27.5t-73.5 -77.5q-29 -49 -45.5 -121.5t-16.5 -162.5zM258 1331q2 35 20.5 52.5t38.5 17.5q23 0 48.5 -17.5t40.5 -50.5q10 -23 30.5 -64.5t43 -87.5 t43 -88t30.5 -63l-41 -29q-35 39 -68.5 77t-63.5 71t-51.5 55.5t-29.5 32.5q-18 18 -29.5 46t-11.5 48z" />
<glyph unicode="&#xf3;" horiz-adv-x="942" d="M76 432q0 92 25.5 177t76.5 150.5t127 104.5t176 39h2q98 0 170 -37t119 -100.5t70.5 -145t23.5 -174.5q0 -104 -25.5 -191t-75.5 -150.5t-125 -98.5t-171 -35q-102 0 -177 37t-123 99.5t-70.5 146.5t-22.5 178zM227 457q0 -88 16.5 -168t43.5 -131q72 -129 196 -129 q59 0 104.5 27.5t76.5 88.5q23 45 37 118t14 165t-15.5 169t-42.5 126q-29 53 -74.5 88t-113.5 35h-2q-61 0 -104.5 -27.5t-73.5 -77.5q-29 -49 -45.5 -121.5t-16.5 -162.5zM383 1030q14 20 38.5 62.5t51.5 88.5t51.5 88t36.5 62q23 37 48.5 52.5t52.5 15.5q23 0 36 -15.5 t13 -44.5q0 -27 -16.5 -56.5t-39.5 -51.5q-29 -29 -87 -85t-144 -147z" />
<glyph unicode="&#xf4;" horiz-adv-x="942" d="M76 432q0 92 25.5 177t76.5 150.5t127 104.5t176 39h2q98 0 170 -37t119 -100.5t70.5 -145t23.5 -174.5q0 -104 -25.5 -191t-75.5 -150.5t-125 -98.5t-171 -35q-102 0 -177 37t-123 99.5t-70.5 146.5t-22.5 178zM227 457q0 -88 16.5 -168t43.5 -131q72 -129 196 -129 q59 0 104.5 27.5t76.5 88.5q23 45 37 118t14 165t-15.5 169t-42.5 126q-29 53 -74.5 88t-113.5 35h-2q-61 0 -104.5 -27.5t-73.5 -77.5q-29 -49 -45.5 -121.5t-16.5 -162.5zM264 1032q92 123 138.5 216t64.5 134l45 15q16 -49 64.5 -144.5t136.5 -220.5l-41 -35 q-18 18 -42 44t-49.5 54.5t-50 58.5t-43.5 58q-39 -55 -92 -114.5t-92 -100.5z" />
<glyph unicode="&#xf5;" horiz-adv-x="942" d="M76 432q0 92 25.5 177t76.5 150.5t127 104.5t176 39h2q98 0 170 -37t119 -100.5t70.5 -145t23.5 -174.5q0 -104 -25.5 -191t-75.5 -150.5t-125 -98.5t-171 -35q-102 0 -177 37t-123 99.5t-70.5 146.5t-22.5 178zM227 457q0 -88 16.5 -168t43.5 -131q72 -129 196 -129 q59 0 104.5 27.5t76.5 88.5q23 45 37 118t14 165t-15.5 169t-42.5 126q-29 53 -74.5 88t-113.5 35h-2q-61 0 -104.5 -27.5t-73.5 -77.5q-29 -49 -45.5 -121.5t-16.5 -162.5zM240 1061q0 39 8 79t24.5 72.5t43 52t67.5 19.5q27 0 54.5 -14.5t62.5 -48.5q33 -33 52 -45.5 t30 -12.5q25 0 42 28t21 99l53 -10q-2 -96 -31.5 -159.5t-101.5 -65.5q-31 0 -58.5 17.5t-66.5 55.5q-23 20 -39 34t-39 14q-29 0 -46 -34t-21 -87z" />
<glyph unicode="&#xf6;" horiz-adv-x="942" d="M76 432q0 92 25.5 177t76.5 150.5t127 104.5t176 39h2q98 0 170 -37t119 -100.5t70.5 -145t23.5 -174.5q0 -104 -25.5 -191t-75.5 -150.5t-125 -98.5t-171 -35q-102 0 -177 37t-123 99.5t-70.5 146.5t-22.5 178zM227 457q0 -88 16.5 -168t43.5 -131q72 -129 196 -129 q59 0 104.5 27.5t76.5 88.5q23 45 37 118t14 165t-15.5 169t-42.5 126q-29 53 -74.5 88t-113.5 35h-2q-61 0 -104.5 -27.5t-73.5 -77.5q-29 -49 -45.5 -121.5t-16.5 -162.5zM233 1190q0 39 25 64.5t64 25.5h2q37 0 56 -24.5t19 -63.5q0 -41 -25.5 -64.5t-60.5 -23.5 q-31 0 -55.5 21.5t-24.5 64.5zM549 1190q0 39 24.5 64.5t63.5 25.5h2q37 0 56.5 -24.5t19.5 -61.5q0 -43 -25.5 -66.5t-60.5 -23.5q-31 0 -55.5 21.5t-24.5 64.5z" />
<glyph unicode="&#xf7;" horiz-adv-x="1013" d="M106 434v94h799v-94h-799zM422 190q0 39 26.5 67t61.5 28h2q39 0 64.5 -27t25.5 -68q0 -35 -26.5 -63.5t-63.5 -28.5q-35 0 -62.5 28t-27.5 64zM422 772q0 37 27.5 64.5t62.5 27.5q39 0 65.5 -27.5t26.5 -64.5q0 -41 -26.5 -66.5t-67.5 -25.5h-2q-31 0 -58.5 27.5 t-27.5 64.5z" />
<glyph unicode="&#xf8;" horiz-adv-x="948" d="M76 422q0 96 27.5 183t81 153.5t129 105.5t171.5 39q72 0 125.5 -17.5t96.5 -45.5l59 90l63 -41l-67 -98q55 -63 82.5 -153.5t27.5 -188.5q0 -96 -26.5 -183.5t-78.5 -153t-129 -103.5t-175 -38q-131 0 -211 62l-66 -94l-65 38l74 103q-59 63 -89 155.5t-30 186.5z M225 426q0 -66 12.5 -130.5t34.5 -109.5q94 137 190.5 284.5t188.5 287.5q-57 88 -172 88q-61 0 -107 -27.5t-77 -77.5q-29 -47 -49.5 -125.5t-20.5 -187.5v-2zM309 117q59 -88 166 -88q55 0 102.5 24.5t79.5 83.5q27 51 46.5 131t19.5 187v2q0 59 -9 121.5t-28 109.5 q-90 -129 -185 -277.5t-192 -293.5z" />
<glyph unicode="&#xf9;" horiz-adv-x="997" d="M35 827l8 52q41 0 84 1t80 5q72 6 102 12q-6 -41 -9 -137t-5 -268q-2 -147 0 -236.5t10 -124.5t34 -55.5t75 -20.5q84 0 155.5 53.5t110.5 145.5q14 35 18 61.5t4 59.5v205q0 152 -6 213q-2 10 -7 17t-19.5 10t-40 4t-68.5 1l-2 54q45 0 92 1t82 3t61.5 4t43.5 4 q-4 -49 -6.5 -128t-2.5 -175v-256q0 -109 2.5 -166t6.5 -86q0 -12 5 -18.5t18 -10.5t41 -4h75l-4 -47q-31 -2 -69 -5t-73 -7t-67.5 -7.5t-58.5 -9.5q-2 37 -3.5 91.5t0.5 105.5q-23 -33 -57.5 -67.5t-78.5 -62.5t-97 -46.5t-111 -18.5q-74 0 -114.5 26t-57.5 54 q-14 23 -19 52.5t-5 64.5t1 88t2 112.5t2 122t1 117.5q0 76 -1 121t-3 66q-2 20 -24.5 25t-104.5 5zM274 1331q2 35 20.5 52.5t39.5 17.5q23 0 48.5 -17.5t39.5 -50.5q10 -23 30.5 -64.5t43 -87.5t43 -88t30.5 -63l-41 -29q-35 39 -68.5 77t-63 71t-51 55.5t-30.5 32.5 q-18 18 -29.5 46t-11.5 48z" />
<glyph unicode="&#xfa;" horiz-adv-x="997" d="M35 827l8 52q41 0 84 1t80 5q72 6 102 12q-6 -41 -9 -137t-5 -268q-2 -147 0 -236.5t10 -124.5t34 -55.5t75 -20.5q84 0 155.5 53.5t110.5 145.5q14 35 18 61.5t4 59.5v205q0 152 -6 213q-2 10 -7 17t-19.5 10t-40 4t-68.5 1l-2 54q45 0 92 1t82 3t61.5 4t43.5 4 q-4 -49 -6.5 -128t-2.5 -175v-256q0 -109 2.5 -166t6.5 -86q0 -12 5 -18.5t18 -10.5t41 -4h75l-4 -47q-31 -2 -69 -5t-73 -7t-67.5 -7.5t-58.5 -9.5q-2 37 -3.5 91.5t0.5 105.5q-23 -33 -57.5 -67.5t-78.5 -62.5t-97 -46.5t-111 -18.5q-74 0 -114.5 26t-57.5 54 q-14 23 -19 52.5t-5 64.5t1 88t2 112.5t2 122t1 117.5q0 76 -1 121t-3 66q-2 20 -24.5 25t-104.5 5zM406 1030q14 20 38.5 62.5t51 88.5t51 88t37.5 62q23 37 48 52.5t52 15.5q23 0 36 -15.5t13 -44.5q0 -27 -16.5 -56.5t-38.5 -51.5q-29 -29 -87.5 -85t-144.5 -147z" />
<glyph unicode="&#xfb;" horiz-adv-x="997" d="M35 827l8 52q41 0 84 1t80 5q72 6 102 12q-6 -41 -9 -137t-5 -268q-2 -147 0 -236.5t10 -124.5t34 -55.5t75 -20.5q84 0 155.5 53.5t110.5 145.5q14 35 18 61.5t4 59.5v205q0 152 -6 213q-2 10 -7 17t-19.5 10t-40 4t-68.5 1l-2 54q45 0 92 1t82 3t61.5 4t43.5 4 q-4 -49 -6.5 -128t-2.5 -175v-256q0 -109 2.5 -166t6.5 -86q0 -12 5 -18.5t18 -10.5t41 -4h75l-4 -47q-31 -2 -69 -5t-73 -7t-67.5 -7.5t-58.5 -9.5q-2 37 -3.5 91.5t0.5 105.5q-23 -33 -57.5 -67.5t-78.5 -62.5t-97 -46.5t-111 -18.5q-74 0 -114.5 26t-57.5 54 q-14 23 -19 52.5t-5 64.5t1 88t2 112.5t2 122t1 117.5q0 76 -1 121t-3 66q-2 20 -24.5 25t-104.5 5zM266 1032q92 123 138.5 216t64.5 134l45 15q16 -49 64.5 -144.5t136.5 -220.5l-41 -35q-18 18 -42 44t-49.5 54.5t-50 58.5t-43.5 58q-39 -55 -92 -114.5t-92 -100.5z" />
<glyph unicode="&#xfc;" horiz-adv-x="997" d="M35 827l8 52q41 0 84 1t80 5q72 6 102 12q-6 -41 -9 -137t-5 -268q-2 -147 0 -236.5t10 -124.5t34 -55.5t75 -20.5q84 0 155.5 53.5t110.5 145.5q14 35 18 61.5t4 59.5v205q0 152 -6 213q-2 10 -7 17t-19.5 10t-40 4t-68.5 1l-2 54q45 0 92 1t82 3t61.5 4t43.5 4 q-4 -49 -6.5 -128t-2.5 -175v-256q0 -109 2.5 -166t6.5 -86q0 -12 5 -18.5t18 -10.5t41 -4h75l-4 -47q-31 -2 -69 -5t-73 -7t-67.5 -7.5t-58.5 -9.5q-2 37 -3.5 91.5t0.5 105.5q-23 -33 -57.5 -67.5t-78.5 -62.5t-97 -46.5t-111 -18.5q-74 0 -114.5 26t-57.5 54 q-14 23 -19 52.5t-5 64.5t1 88t2 112.5t2 122t1 117.5q0 76 -1 121t-3 66q-2 20 -24.5 25t-104.5 5zM254 1190q0 39 24.5 64.5t63.5 25.5h2q37 0 56.5 -24.5t19.5 -63.5q0 -41 -25.5 -64.5t-60.5 -23.5q-31 0 -55.5 21.5t-24.5 64.5zM569 1190q0 39 24.5 64.5t63.5 25.5h2 q37 0 56.5 -24.5t19.5 -61.5q0 -43 -25.5 -66.5t-60.5 -23.5q-31 0 -55.5 21.5t-24.5 64.5z" />
<glyph unicode="&#xfd;" horiz-adv-x="833" d="M-10 825l6 56q35 -2 80 -4.5t98 -2.5q45 0 96.5 2.5t91.5 4.5l9 -56l-72 -8q-23 -4 -29 -13t2 -32q23 -74 52.5 -163t59.5 -174t54.5 -157.5t36.5 -113.5q20 63 47 146t50.5 166t43 157t29.5 121q8 39 -3 51t-48 16l-66 4l11 56q33 0 75.5 -3.5t81.5 -3.5t82 3.5t90 3.5 l-4 -56q-33 -2 -53 -7t-35.5 -16t-27 -30.5t-23.5 -50.5q-27 -72 -61.5 -176.5t-73.5 -223t-79 -244.5t-77 -239q-31 -98 -59.5 -162.5t-58 -101.5t-62.5 -52.5t-70 -15.5q-59 0 -90 34t-31 75q0 39 21.5 62.5t50.5 23.5q43 0 53 -39q16 -59 52 -59q27 0 52 45t47.5 105.5 t40 122t28.5 95.5q-10 16 -19.5 38t-15.5 44q-29 86 -65 190.5t-69.5 203t-62.5 178.5t-43 116q-20 47 -37.5 61.5t-58.5 18.5zM371 1030q14 20 38.5 62.5t51 88.5t51.5 88t37 62q23 37 48.5 52.5t51.5 15.5q23 0 36 -15.5t13 -44.5q0 -27 -16 -56.5t-39 -51.5 q-29 -29 -87 -85t-144 -147z" />
<glyph unicode="&#xfe;" horiz-adv-x="962" d="M-16 -471l12 51q45 2 71.5 5t42 9.5t21.5 16.5t6 24q4 49 8.5 137.5t4.5 247.5v988v102t-1.5 75t-2.5 53.5t-1 37.5q0 10 -6 16t-21.5 8.5t-43 2.5t-74.5 -3l12 54q31 2 69 5l76 6t71.5 8t56.5 9q-2 -23 -3 -64.5t-2 -113t-2.5 -182.5t-1.5 -272q76 72 152 112.5 t147 40.5q76 0 126.5 -23.5t86.5 -64.5q41 -47 70 -131t29 -197q0 -104 -23.5 -197t-75 -164t-129 -112t-186.5 -41q-53 0 -108.5 17.5t-90.5 50.5v-213t7 -180q0 -18 6 -29.5t22.5 -18t46 -9.5t80.5 -5l-8 -53q-43 0 -100.5 2t-128.5 2q-72 0 -124 -3t-91 -5zM273 357 q-1 -87 3 -158q0 -35 21 -70q31 -45 78 -70.5t108 -25.5h2q78 0 127.5 43t78 107.5t38.5 142t10 145.5q0 84 -16 152.5t-45 109.5q-27 39 -66 60.5t-92 21.5q-76 0 -133 -40t-90 -113q-10 -23 -15.5 -44.5t-5.5 -56.5q-2 -117 -3 -204z" />
<glyph unicode="&#xff;" horiz-adv-x="833" d="M-10 825l6 56q35 -2 80 -4.5t98 -2.5q45 0 96.5 2.5t91.5 4.5l9 -56l-72 -8q-23 -4 -29 -13t2 -32q23 -74 52.5 -163t59.5 -174t54.5 -157.5t36.5 -113.5q20 63 47 146t50.5 166t43 157t29.5 121q8 39 -3 51t-48 16l-66 4l11 56q33 0 75.5 -3.5t81.5 -3.5t82 3.5t90 3.5 l-4 -56q-33 -2 -53 -7t-35.5 -16t-27 -30.5t-23.5 -50.5q-27 -72 -61.5 -176.5t-73.5 -223t-79 -244.5t-77 -239q-31 -98 -59.5 -162.5t-58 -101.5t-62.5 -52.5t-70 -15.5q-59 0 -90 34t-31 75q0 39 21.5 62.5t50.5 23.5q43 0 53 -39q16 -59 52 -59q27 0 52 45t47.5 105.5 t40 122t28.5 95.5q-10 16 -19.5 38t-15.5 44q-29 86 -65 190.5t-69.5 203t-62.5 178.5t-43 116q-20 47 -37.5 61.5t-58.5 18.5zM215 1190q0 39 24.5 64.5t63.5 25.5h2q37 0 56.5 -24.5t19.5 -63.5q0 -41 -25.5 -64.5t-60.5 -23.5q-31 0 -55.5 21.5t-24.5 64.5zM530 1190 q0 39 25 64.5t63 25.5h3q37 0 56 -24.5t19 -61.5q0 -43 -25.5 -66.5t-60.5 -23.5q-31 0 -55.5 21.5t-24.5 64.5z" />
<glyph unicode="&#x152;" horiz-adv-x="1787" d="M86 614q0 213 67.5 358.5t170.5 227.5q59 49 142 79t175 30q115 0 197 -37t133 -107q2 31 2 64v55q18 -2 42.5 -3t61.5 -1h275q47 0 91 1t79 1q35 2 61.5 4t42.5 6q-2 -18 -3 -54t-2 -80t0 -91t3 -86h-53q-4 33 -11.5 73t-17.5 79q-8 25 -19.5 41t-37 25t-67.5 13.5 t-111 4.5h-158q-16 0 -20.5 -6.5t-8.5 -28.5q-2 -47 -4 -114t-2 -153v-217q16 -4 63.5 -4h90.5q70 0 110.5 4t63 17.5t32 42t15.5 78.5h49q-6 -92 -6 -193.5t4 -193.5l-51 2q-6 55 -13.5 89.5t-29 55t-61.5 28t-109 7.5h-92.5t-65.5 -4v-181v-90t1 -92t3 -86t4 -69 q0 -16 5.5 -26.5t24.5 -16t59 -7.5t114 -2t123 3t82 11.5t52.5 21.5t31.5 36q27 37 42 92t27 109l50 -4q0 -16 -4.5 -62.5t-10.5 -100.5t-11 -103.5t-7 -69.5q-18 4 -50 4t-85 2q-51 2 -121 3t-166 1h-186q-53 0 -80 -1t-49 -3q2 18 1 50t1 79q-59 -78 -151.5 -117 t-201.5 -39q-98 0 -181 28t-140 77q-92 78 -148.5 216t-56.5 324zM258 627q0 -121 29.5 -246t99.5 -215q98 -127 264 -127q80 0 141.5 29.5t100.5 83.5q25 33 40 68.5t24.5 88.5t13.5 134t4 206q0 100 -1 164t-4 104.5t-8.5 65.5t-13.5 47q-12 39 -35.5 78t-60.5 70.5 t-88 51t-119 19.5q-72 0 -130 -23.5t-109 -82.5q-61 -72 -104.5 -198t-43.5 -316v-2z" />
<glyph unicode="&#x153;" horiz-adv-x="1464" d="M76 422q0 92 27.5 178t80 153.5t128 108.5t173.5 41q117 0 193 -53t117 -150q43 92 116.5 147.5t178.5 55.5q98 0 158.5 -38t94 -91t44 -112.5t10.5 -102.5q0 -66 -45 -86q-10 -4 -37 -8t-62.5 -7t-75.5 -6t-77 -3q-57 0 -124 -1.5t-122 1.5q-4 -111 16.5 -183.5 t49.5 -113.5q35 -51 82 -74t112 -23q92 0 144.5 45t89.5 136l47 -27q-37 -106 -113 -172t-207 -66q-121 0 -192.5 47.5t-112.5 133.5q-47 -86 -128 -133.5t-185 -47.5q-96 0 -168 36t-119 97.5t-70.5 143.5t-23.5 174zM231 434q0 -92 14.5 -164.5t41.5 -122.5 q31 -59 79 -87.5t103 -28.5q59 0 106.5 25.5t79.5 84.5q27 49 44.5 129t17.5 185q0 92 -12.5 162.5t-34.5 111.5q-29 59 -78 87t-115 28q-61 2 -105 -27t-75 -78q-29 -47 -47.5 -121.5t-18.5 -183.5zM858 512q47 -2 84 -2h78q76 0 125 5t74 9q20 6 30.5 19.5t10.5 50.5 q0 49 -10.5 94t-32 81t-58.5 56.5t-88 20.5h-2q-53 0 -91 -32t-64.5 -81t-40 -108.5t-15.5 -112.5z" />
<glyph unicode="&#x178;" horiz-adv-x="1026" d="M-33 1233l2 53q25 0 81 -3t114 -3q66 0 125 3t106 3l6 -53l-84 -10q-23 -2 -25.5 -10.5t5.5 -24.5q18 -41 51 -106.5t72 -139.5t77 -148.5t68 -134.5q100 190 161.5 312.5t90.5 193.5q12 29 10 40.5t-24 15.5q-25 4 -48.5 6t-56.5 4l7 55q35 0 91 -3t99 -3q37 0 85 3 t97 3l4 -55q-41 -2 -68.5 -6t-47 -15.5t-37 -30t-35.5 -49.5q-27 -43 -62.5 -104t-72.5 -130t-73 -136.5t-62 -118.5q-25 -55 -25 -102v-105.5v-122t2 -118t4 -89.5q2 -20 11.5 -28t37.5 -13q20 -4 54 -7t81 -7l9 -55q-86 2 -156 4t-141 2q-63 0 -125 -3t-127 -3l-6 55 q33 4 68.5 7t66.5 7q35 4 50 17.5t17 48.5q2 27 4.5 76t3.5 105.5t2 112.5t1 99q0 35 -7.5 56.5t-17.5 48.5q-12 27 -45 90t-73 138t-81 149.5t-71 125.5q-20 33 -37 52.5t-37 31t-48 14.5t-71 5zM281 1493q0 43 24.5 68.5t63.5 25.5h2q39 0 61.5 -25.5t22.5 -60.5 q0 -45 -30 -70.5t-60 -25.5q-31 0 -57.5 20.5t-26.5 67.5zM614 1493q0 43 25 68.5t63 25.5h3q41 0 63.5 -25.5t22.5 -60.5q0 -45 -30 -70.5t-63 -25.5q-31 0 -57.5 20.5t-26.5 67.5z" />
<glyph unicode="&#x2c6;" horiz-adv-x="933" d="M244 1032q92 123 138 216t64 134l46 15q16 -49 64 -144.5t136 -220.5l-41 -35q-18 18 -41.5 44t-49 54.5t-50.5 58.5t-43 58q-39 -55 -92 -114.5t-92 -100.5z" />
<glyph unicode="&#x2dc;" horiz-adv-x="933" d="M238 1061q0 39 8 79t24.5 72.5t43 52t67.5 19.5q27 0 54.5 -14.5t62.5 -48.5q33 -33 52 -45.5t30 -12.5q25 0 42 28t21 99l53 -10q-2 -96 -31.5 -159.5t-101.5 -65.5q-31 0 -58.5 17.5t-66.5 55.5q-23 20 -39 34t-39 14q-29 0 -46 -34t-21 -87z" />
<glyph unicode="&#x2000;" horiz-adv-x="851" />
<glyph unicode="&#x2001;" horiz-adv-x="1702" />
<glyph unicode="&#x2002;" horiz-adv-x="851" />
<glyph unicode="&#x2003;" horiz-adv-x="1702" />
<glyph unicode="&#x2004;" horiz-adv-x="567" />
<glyph unicode="&#x2005;" horiz-adv-x="425" />
<glyph unicode="&#x2006;" horiz-adv-x="283" />
<glyph unicode="&#x2007;" horiz-adv-x="283" />
<glyph unicode="&#x2008;" horiz-adv-x="212" />
<glyph unicode="&#x2009;" horiz-adv-x="340" />
<glyph unicode="&#x200a;" horiz-adv-x="94" />
<glyph unicode="&#x2010;" horiz-adv-x="598" d="M70 424l22 111q109 -4 212.5 -4.5t225.5 4.5l-20 -111q-229 6 -440 0z" />
<glyph unicode="&#x2011;" horiz-adv-x="598" d="M70 424l22 111q109 -4 212.5 -4.5t225.5 4.5l-20 -111q-229 6 -440 0z" />
<glyph unicode="&#x2012;" horiz-adv-x="598" d="M70 424l22 111q109 -4 212.5 -4.5t225.5 4.5l-20 -111q-229 6 -440 0z" />
<glyph unicode="&#x2013;" horiz-adv-x="1034" d="M98 428l27 102q82 0 187.5 -1t216 -1t217 1t192.5 1l-29 -102q-78 0 -181 1t-214 1t-219.5 -1t-196.5 -1z" />
<glyph unicode="&#x2014;" horiz-adv-x="1697" d="M98 428l27 102q55 0 168 -1t255 -1h301h304t264 1t182 1l-26 -102q-59 0 -175 1t-260.5 1h-303h-303t-260 -1t-173.5 -1z" />
<glyph unicode="&#x2018;" horiz-adv-x="339" d="M68 1223q0 55 20.5 97t52 71.5t68.5 45t67 17.5l11 -45q-61 -12 -103.5 -54t-42.5 -95q0 -8 3 -8.5t8 3.5q10 4 24 8.5t25 4.5q29 0 52 -24.5t23 -67.5q0 -41 -29.5 -70t-66.5 -29q-51 0 -81.5 40t-30.5 106z" />
<glyph unicode="&#x2019;" horiz-adv-x="339" d="M55 1114q61 12 104.5 54t41.5 96q0 14 -11 4q-10 -4 -24 -8.5t-25 -4.5q-29 0 -52 25t-23 68q0 41 29.5 69.5t66.5 28.5q51 0 81.5 -40t30.5 -106q0 -55 -20.5 -97t-52 -71.5t-68.5 -45t-67 -17.5z" />
<glyph unicode="&#x201a;" horiz-adv-x="348" d="M53 -145q63 12 107.5 53t44.5 100q0 6 -3 7t-7 -3q-10 -4 -25.5 -8t-26.5 -4q-31 0 -55.5 25.5t-21.5 70.5q0 41 29.5 72t68.5 31q55 0 86 -44t31 -110q0 -57 -21.5 -101t-54.5 -74t-71 -46.5t-71 -18.5z" />
<glyph unicode="&#x201c;" horiz-adv-x="614" d="M66 1221q0 55 20 97t52 71.5t69 45t69 17.5l9 -45q-59 -12 -103.5 -54t-42.5 -96q0 -8 3 -8t8 4q10 4 24 8.5t25 4.5q29 0 52 -24.5t23 -67.5q0 -41 -28.5 -70t-67.5 -29q-51 0 -81.5 40t-30.5 106zM340 1221q0 55 21.5 97t53 71.5t68.5 45t68 17.5l8 -45 q-59 -12 -101 -54t-42 -96q0 -10 10 -4q8 4 23.5 8.5t25.5 4.5q29 0 51.5 -24.5t22.5 -67.5q0 -41 -28.5 -70t-65.5 -29q-53 0 -84 40t-31 106z" />
<glyph unicode="&#x201d;" horiz-adv-x="614" d="M55 1114q61 12 103.5 54t42.5 96q0 14 -11 4q-10 -4 -24 -8.5t-25 -4.5q-29 0 -52 25t-23 68q0 41 29.5 69.5t66.5 28.5q51 0 81.5 -40t30.5 -106q0 -55 -20.5 -97t-52 -71.5t-68.5 -45t-67 -17.5zM330 1114q61 12 103 54t42 96q0 10 -10 4q-10 -4 -24.5 -8.5t-24.5 -4.5 q-29 0 -52.5 25t-23.5 68q0 41 29.5 69.5t66.5 28.5q51 0 82 -40t31 -106q0 -55 -20.5 -97t-52.5 -71.5t-68.5 -45t-67.5 -17.5z" />
<glyph unicode="&#x201e;" horiz-adv-x="628" d="M55 -145q61 12 105.5 53t44.5 100q0 14 -10 4q-10 -6 -25.5 -9t-26.5 -3q-29 0 -53 24.5t-24 69.5q0 43 29.5 73t68.5 30q55 0 86 -43t31 -109q0 -57 -21.5 -101t-54.5 -74t-71 -46.5t-71 -18.5zM336 -145q61 12 105 53t44 100q0 14 -10 4q-23 -12 -51 -12 q-29 0 -53.5 24.5t-24.5 69.5q0 41 30 72t68 31q55 0 86 -43t31 -109q0 -57 -21.5 -101t-54 -74t-69.5 -46.5t-70 -18.5z" />
<glyph unicode="&#x2022;" horiz-adv-x="577" d="M104 451q0 88 55.5 144t129.5 56h2q86 0 135 -57t49 -143q0 -88 -54 -142.5t-132 -54.5q-74 0 -129.5 54t-55.5 143z" />
<glyph unicode="&#x2026;" horiz-adv-x="1460" d="M139 84q0 47 31 79t72 32h2q47 0 73.5 -33t26.5 -78q0 -51 -30.5 -82t-71.5 -31t-72 31t-31 82zM627 84q0 47 30.5 79t71.5 32h2q47 0 73.5 -33t26.5 -78q0 -51 -30.5 -82t-71.5 -31t-71.5 31t-30.5 82zM1114 84q0 47 31 79t72 32h2q47 0 73.5 -33t26.5 -78 q0 -51 -31 -82t-71 -31q-41 0 -72 31t-31 82z" />
<glyph unicode="&#x202f;" horiz-adv-x="340" />
<glyph unicode="&#x2039;" horiz-adv-x="579" d="M94 420l19 41q86 33 172 126t147 224l51 -25q-16 -51 -38.5 -101t-49 -96t-52.5 -86t-46 -67q25 -33 53.5 -75t55 -87t47 -92t30.5 -88l-45 -33q-31 70 -75 130.5t-92 107.5t-95 78t-82 43z" />
<glyph unicode="&#x203a;" horiz-adv-x="579" d="M94 86q14 51 38 101.5t50.5 96.5t52 85t46.5 67q-25 33 -53.5 75t-55.5 87t-48.5 92t-29.5 88l45 33q31 -72 75 -131t92 -106.5t95.5 -78t81.5 -42.5l-18 -41q-86 -33 -172 -126t-148 -225z" />
<glyph unicode="&#x205f;" horiz-adv-x="425" />
<glyph unicode="&#x20ac;" d="M20 516l19 64h80v56.5t2 53.5h-66l21 64h53q10 82 41 173t84 167.5t131 126t182 49.5q72 0 122 -18.5t82 -47t46 -63.5t14 -66q0 -49 -19 -77.5t-54 -28.5q-25 0 -39 14q-16 12 -12 33q4 16 7 28.5t3 34.5q0 135 -162 135q-80 0 -131 -50t-82 -121.5t-45 -150.5t-21 -138 l461 2l-24 -68l-443 2q-2 -25 -2 -55.5v-54.5l420 2l-24 -68l-392 2q4 -68 17.5 -149.5t44.5 -152.5t82 -118t131 -47q37 0 71.5 8.5t67.5 32t60.5 67.5t52.5 115l47 -28q-43 -141 -124 -206t-204 -65q-113 0 -187.5 50.5t-118.5 128t-64.5 175t-26.5 189.5h-101z" />
<glyph unicode="&#x2122;" horiz-adv-x="641" d="M20 1180q4 33 6.5 59.5t4.5 40.5q12 -4 35.5 -6t58.5 -2h35q45 0 66.5 2t37.5 6q0 -6 -3 -30.5t-1 -63.5l-20 -6q-4 23 -6.5 35t-6.5 18q-4 8 -14 11t-49 3v-102q0 -27 1 -45.5t1 -28.5q0 -4 8 -7t37 -5v-27q-12 0 -32.5 2t-49.5 2q-18 0 -29.5 -2t-27.5 -2v27q29 2 35 5 t6 7q2 10 3 29.5t1 46.5v100q-35 0 -46.5 -3t-15.5 -13q-4 -12 -7 -25.5t-7 -27.5zM276 1032v27q25 2 32 7t9 24q2 18 4.5 59t2.5 88l-2 6q0 4 -13 4l-24 4v25q20 0 31.5 -1t19.5 -1h28.5t22.5 2q2 -10 11.5 -31.5t20.5 -46t22.5 -50.5t17.5 -40q29 61 47 108.5t22 59.5 q14 -2 23.5 -2h19.5q16 0 29.5 1t26.5 1l2 -25q-23 -2 -30 -4t-9 -8v-55q0 -29 1 -61.5t1 -47.5q2 -8 8 -12t31 -4v-27q-8 0 -21.5 2t-36.5 2q-25 0 -42 -2t-21 -2v27q23 0 29 3t6 13q0 14 1 66.5t1 107.5h-2q-29 -72 -51.5 -129t-32.5 -82l-25 -4q-6 16 -17 43t-24.5 56.5 t-26 59.5t-20.5 52h-2v-96t2 -64q0 -10 3 -17t18 -9h22v-27q-10 0 -24.5 2t-32.5 2t-32.5 -2t-25.5 -2z" />
<glyph unicode="&#x25fc;" horiz-adv-x="880" d="M0 0v881h881v-881h-881z" />
</font>
</defs>
</svg>
